<?xml version="1.0" encoding="UTF-8" standalone="no"?>
<svg
   id="ff13122b-c9a2-4eb3-994d-202711f70fc9"
   data-name="Layer 1"
   width="746"
   height="721.34323"
   viewBox="0 0 746 721.34323"
   version="1.1"
   xmlns="http://www.w3.org/2000/svg"
   xmlns:svg="http://www.w3.org/2000/svg">
  <defs
     id="defs1075" />
  <g
     id="layer1"
     style="display:none">
    <path
       d="m 907.60236,809.95184 v -72.34 c 0,0 28.19164,51.28597 0,72.34 z"
       transform="translate(-227,-89.32838)"
       fill="#f1f1f1"
       id="path984" />
    <path
       d="m 909.34383,809.93912 -53.28962,-48.92125 c 0,0 56.84519,13.91553 53.28962,48.92125 z"
       transform="translate(-227,-89.32838)"
       fill="#f1f1f1"
       id="path986" />
    <path
       d="m 721.38766,408.51766 -282.78522,165.2779 a 4.32611,4.32611 0 0 1 -5.91113,-1.55023 L 250.842,261.107 a 4.32609,4.32609 0 0 1 1.55022,-5.91112 L 535.17747,89.918 a 4.3261,4.3261 0 0 1 5.91112,1.55023 l 181.8493,311.13836 a 4.3261,4.3261 0 0 1 -1.55023,5.91107 z"
       transform="translate(-227,-89.32838)"
       fill="#ffffff"
       id="path988" />
    <path
       d="m 721.38766,408.51766 -282.78522,165.2779 a 4.32611,4.32611 0 0 1 -5.91113,-1.55023 L 250.842,261.107 a 4.32609,4.32609 0 0 1 1.55022,-5.91112 L 535.17747,89.918 a 4.3261,4.3261 0 0 1 5.91112,1.55023 l 181.8493,311.13836 a 4.3261,4.3261 0 0 1 -1.55023,5.91107 z M 253.26442,256.68812 a 2.59553,2.59553 0 0 0 -0.93013,3.54668 l 181.84929,311.13835 a 2.59553,2.59553 0 0 0 3.54668,0.93014 l 282.78522,-165.2779 a 2.59552,2.59552 0 0 0 0.93014,-3.54667 L 539.59632,92.34036 a 2.59553,2.59553 0 0 0 -3.54668,-0.93014 z"
       transform="translate(-227,-89.32838)"
       fill="#3f3d56"
       id="path990" />
    <path
       d="m 435.03979,287.67306 -70.1367,40.99241 a 4.32609,4.32609 0 0 1 -5.91112,-1.55023 l -40.99241,-70.1367 a 4.32608,4.32608 0 0 1 1.55023,-5.91112 l 70.1367,-40.99241 a 4.32609,4.32609 0 0 1 5.91112,1.55023 l 40.99239,70.1367 a 4.32608,4.32608 0 0 1 -1.55021,5.91112 z M 320.422,252.55969 a 2.59552,2.59552 0 0 0 -0.93014,3.54667 l 40.99241,70.1367 a 2.59552,2.59552 0 0 0 3.54667,0.93014 l 70.1367,-40.99241 a 2.59552,2.59552 0 0 0 0.93014,-3.54667 l -40.99241,-70.1367 a 2.59552,2.59552 0 0 0 -3.54667,-0.93014 z"
       transform="translate(-227,-89.32838)"
       fill="#f2f2f2"
       id="path992" />
    <path
       d="m 419.90917,308.028 -70.1367,40.99241 a 3.89341,3.89341 0 0 1 -5.32,-1.39521 l -40.99241,-70.1367 a 3.89342,3.89342 0 0 1 1.39521,-5.32 l 70.1367,-40.99241 a 3.89342,3.89342 0 0 1 5.32,1.39521 l 40.99241,70.1367 a 3.89342,3.89342 0 0 1 -1.39521,5.32 z"
       transform="translate(-227,-89.32838)"
       fill="#039be5"
       id="path994" />
    <path
       d="m 589.19632,255.13236 -219.36374,128.2103 a 3.8890306,3.8890306 0 0 1 -3.9248,-6.71522 l 219.36373,-128.2103 a 3.8890331,3.8890331 0 0 1 3.92481,6.71522 z"
       transform="translate(-227,-89.32838)"
       fill="#cccccc"
       id="path996" />
    <path
       d="m 549.73949,309.2249 -166.38813,97.248 a 3.8890331,3.8890331 0 0 1 -3.92481,-6.71522 l 166.38814,-97.24795 a 3.8890306,3.8890306 0 1 1 3.9248,6.71522 z"
       transform="translate(-227,-89.32838)"
       fill="#cccccc"
       id="path998" />
    <path
       d="m 538.736,170.509 -96.99757,56.69163 a 3.8890288,3.8890288 0 0 1 -3.92481,-6.71521 l 96.99757,-56.69163 a 3.8890288,3.8890288 0 0 1 3.92481,6.71521 z"
       transform="translate(-227,-89.32838)"
       fill="#cccccc"
       id="path1000" />
    <path
       d="m 528.04745,207.78755 -72.79026,42.54331 a 3.8890331,3.8890331 0 0 1 -3.92481,-6.71522 l 72.79026,-42.54331 a 3.8890331,3.8890331 0 0 1 3.92481,6.71522 z"
       transform="translate(-227,-89.32838)"
       fill="#cccccc"
       id="path1002" />
    <path
       d="M 616.23386,301.39274 396.87013,429.603 a 3.8890331,3.8890331 0 0 1 -3.92481,-6.71522 l 219.36374,-128.2103 a 3.8890306,3.8890306 0 0 1 3.9248,6.71522 z"
       transform="translate(-227,-89.32838)"
       fill="#cccccc"
       id="path1004" />
    <path
       d="m 576.777,355.48528 -166.38814,97.248 a 3.8890306,3.8890306 0 1 1 -3.9248,-6.71522 l 166.38813,-97.24795 a 3.8890331,3.8890331 0 1 1 3.92481,6.71522 z"
       transform="translate(-227,-89.32838)"
       fill="#cccccc"
       id="path1006" />
    <path
       d="m 643.27141,347.65312 -219.36374,128.2103 a 3.8890306,3.8890306 0 0 1 -3.9248,-6.71522 L 639.3466,340.9379 a 3.8890331,3.8890331 0 0 1 3.92481,6.71522 z"
       transform="translate(-227,-89.32838)"
       fill="#cccccc"
       id="path1008" />
    <path
       d="M 656.79018,370.78331 437.42645,498.9936 a 3.8890288,3.8890288 0 1 1 -3.92481,-6.71521 l 219.36374,-128.2103 a 3.8890306,3.8890306 0 1 1 3.9248,6.71522 z"
       transform="translate(-227,-89.32838)"
       fill="#cccccc"
       id="path1010" />
    <path
       d="m 585.85233,460.8263 a 84.70308,84.70308 0 0 0 8.2014,-11.47053 c 2.16171,-3.64878 4.2824,-7.55 4.759,-11.82932 a 11.68306,11.68306 0 0 0 -3.49862,-9.98546 8.22181,8.22181 0 0 0 -9.64609,-1.09646 9.80894,9.80894 0 0 0 -4.923,8.75985 12.959,12.959 0 0 0 5.53588,9.81385 c 6.48388,4.69765 16.60994,4.4522 23.52077,0.87731 7.784,-4.02657 11.80578,-14.56146 5.69036,-21.77281 -1.272,-1.4999 -3.38871,0.17627 -3.07005,1.79433 a 8.72086,8.72086 0 0 0 17.279,-2.13545 l -2.7491,1.60676 a 20.99018,20.99018 0 0 0 20.87922,-2.23986 19.4701,19.4701 0 0 0 3.90715,-3.77622 c 1.34569,-1.75547 3.60614,-2.88981 5.43647,-4.15451 l 13.19043,-9.11411 c 1.94021,-1.34062 0.0954,-4.53543 -1.86081,-3.18378 l -11.946,8.25429 c -1.99075,1.37553 -3.99447,2.73415 -5.973,4.12714 -1.4144,0.9958 -2.28466,2.60338 -3.57157,3.78591 a 17.28811,17.28811 0 0 1 -18.25191,3.08747 1.86585,1.86585 0 0 0 -2.7491,1.60675 5.0482,5.0482 0 0 1 -10.02595,1.18765 l -3.07006,1.79434 c 3.94506,4.652 1.31808,11.78725 -3.22684,14.90874 -5.08283,3.49093 -12.59333,4.09689 -18.32272,1.92692 a 10.81086,10.81086 0 0 1 -6.365,-5.84005 6.44305,6.44305 0 0 1 1.462,-7.373 4.62265,4.62265 0 0 1 6.427,-0.0685 8.269,8.269 0 0 1 2.19083,7.45928 c -0.5909,3.69454 -2.63337,7.10141 -4.53329,10.257 a 78.797,78.797 0 0 1 -7.337,10.21716 c -1.52123,1.80027 1.10343,4.39464 2.64071,2.57538 z"
       transform="translate(-227,-89.32838)"
       fill="#039be5"
       id="path1012" />
    <path
       d="m 618.59271,548.50763 a 8.67233,8.67233 0 0 1 0.872,1.051 l 40.84857,-0.99946 4.76541,-8.70792 14.08178,5.47419 -6.93809,16.23551 a 6.59134,6.59134 0 0 1 -6.8516,3.95362 l -46.15126,-5.57517 a 8.64875,8.64875 0 1 1 -0.62683,-11.43176 z"
       transform="translate(-227,-89.32838)"
       fill="#ffb7b7"
       id="path1014" />
    <polygon
       points="504.932,655.449 524.755,655.45 524.753,707.256 511.322,707.256 "
       fill="#ffb7b7"
       id="polygon1016" />
    <path
       d="m 755.17806,809.60436 -43.308,-0.002 V 809.055 a 16.85758,16.85758 0 0 1 16.85668,-16.8564 h 0.001 l 26.451,10e-4 z"
       transform="translate(-227,-89.32838)"
       fill="#2f2e41"
       id="path1018" />
    <polygon
       points="404.916,651.529 423.145,659.317 402.792,706.958 390.441,701.681 "
       fill="#ffb7b7"
       id="polygon1020" />
    <path
       d="m 627.82776,809.60436 -39.826,-17.014 0.21518,-0.50375 a 16.85759,16.85759 0 0 1 22.12325,-8.87963 l 10e-4,4.2e-4 24.3243,10.39164 z"
       transform="translate(-227,-89.32838)"
       fill="#2f2e41"
       id="path1022" />
    <polygon
       points="486.887,489.179 516.593,492.358 507.849,468.459 459.468,470.402 458.496,486.141 "
       fill="#ffb7b7"
       id="polygon1024" />
    <path
       d="m 684.60236,575.67162 -11.02912,-76.88748 19.11648,-6.26508 5.61475,-7.7001 27.32289,1.61686 4.01137,8.98546 14.56924,6.88423 -2.239,41.58174 1.63341,34.78437 z"
       transform="translate(-227,-89.32838)"
       fill="#2f2e41"
       id="path1026" />
    <path
       d="m 677.66064,555.06728 -19.44456,-7.77975 0.0829,-0.346 c 0.0835,-0.3488 8.35927,-34.93247 9.45817,-40.48989 1.14475,-5.79 5.3269,-7.39073 5.50452,-7.4559 l 0.12974,-0.0479 7.69528,2.34222 3.37955,26.55448 z"
       transform="translate(-227,-89.32838)"
       fill="#2f2e41"
       id="path1028" />
    <path
       d="m 639.79576,787.18106 -25.88371,-5.30948 41.36969,-114.1538 14.15862,-38.93618 c 0,0 8.9802,-31.21887 13.03747,-43.30013 l 2.44851,-16.21028 57.96181,6.41562 c 0,0 16.18859,23.77448 11.27061,62.52545 l 2.22432,145.65037 -25.88371,1.32737 -21.68037,-146.89558 -38.05126,80.5271 c 0,0 -11.99335,34.36378 -20.57424,41.81214 z"
       transform="translate(-227,-89.32838)"
       fill="#2f2e41"
       id="path1030" />
    <path
       d="m 719.64415,581.093 a 8.67278,8.67278 0 0 1 1.36357,0.0751 l 27.04038,-30.63372 -3.14545,-9.415 13.58853,-6.60419 7.18819,16.12634 a 6.59137,6.59137 0 0 1 -1.75929,7.71237 l -35.46688,30.052 a 8.64875,8.64875 0 1 1 -8.80905,-7.31289 z"
       transform="translate(-227,-89.32838)"
       fill="#ffb7b7"
       id="path1032" />
    <path
       d="m 745.8896,553.5156 -11.2798,-26.53276 4.39939,-18.48144 4.74015,-5.9887 a 2.73032,2.73032 0 0 1 2.19377,0.0205 c 1.74821,0.70363 3.23693,2.86 4.42494,6.40951 l 10.57114,30.11085 z"
       transform="translate(-227,-89.32838)"
       fill="#2f2e41"
       id="path1034" />
    <path
       d="m 687.36746,474.98733 v -20.00321 a 26.8043,26.8043 0 0 1 53.6086,0 v 20.00321 a 3.60464,3.60464 0 0 1 -3.60058,3.60058 H 690.968 a 3.60463,3.60463 0 0 1 -3.60054,-3.60058 z"
       transform="translate(-227,-89.32838)"
       fill="#2f2e41"
       id="path1036" />
    <circle
       cx="481.66376"
       cy="369.14191"
       r="19.65197"
       fill="#ffb7b7"
       id="circle1038" />
    <path
       d="m 681.0262,456.58438 a 21.22738,21.22738 0 0 1 21.20341,-21.2034 h 4.00083 a 21.22721,21.22721 0 0 1 21.20321,21.2034 v 0.40006 H 718.979 l -2.88366,-8.07473 -0.57666,8.07473 h -4.36948 l -1.45492,-4.07409 -0.29106,4.07409 h -28.377 z"
       transform="translate(-227,-89.32838)"
       fill="#2f2e41"
       id="path1040" />
    <path
       d="m 706.72972,480.8373 a 3.54728,3.54728 0 0 1 -0.28188,-3.76623 c 4.23955,-8.06379 10.17546,-22.96384 2.29646,-32.15282 l -0.5663,-0.66026 h 22.87359 v 34.34145 l -20.77892,3.66621 a 3.67755,3.67755 0 0 1 -0.63721,0.0563 3.58611,3.58611 0 0 1 -2.90574,-1.48461 z"
       transform="translate(-227,-89.32838)"
       fill="#2f2e41"
       id="path1042" />
    <polygon
       points="247.551,655.523 229.636,649.121 212.904,695.94 225.042,700.278 "
       fill="#9f616a"
       id="polygon1044" />
    <path
       d="m 432.60236,795.92854 5.62164,-15.7298 23.90478,8.54334 a 16.197,16.197 0 0 1 9.79011,20.67889 l -0.17712,0.49491 z"
       transform="translate(-227,-89.32838)"
       fill="#2f2e41"
       id="path1046" />
    <polygon
       points="310.859,658.226 291.834,658.227 291.836,707.946 304.726,707.945 "
       fill="#9f616a"
       id="polygon1048" />
    <path
       d="m 515.54791,793.06587 25.3854,-10e-4 h 10e-4 a 16.1777,16.1777 0 0 1 16.178,16.17747 v 0.52571 l -41.56364,0.002 z"
       transform="translate(-227,-89.32838)"
       fill="#2f2e41"
       id="path1050" />
    <path
       d="m 489.45887,479.62865 5.60594,-11.07722 c 0,0 20.884,5.23229 22.78254,17.3361 z"
       transform="translate(-227,-89.32838)"
       fill="#f1f1f1"
       id="path1052" />
    <polygon
       points="214.093,673.622 238.276,683.085 279.282,613.691 284.539,594.765 287.693,693.599 309.503,692.937 319.502,600.65 303.464,514.857 239.328,516.96 254.573,602.034 "
       fill="#2f2e41"
       id="polygon1054" />
    <path
       d="m 495.26738,626.39974 c -22.39644,0 -36.61635,-4.28374 -36.93491,-4.35151 l -0.5157,-0.10986 11.66553,-54.08577 0.5252,-49.88931 c 0,-21.14145 13.91444,-36.728 15.84531,-38.16653 a 9.09551,9.09551 0 0 1 4.83743,-5.94508 c 4.64131,-2.10593 10.313,0.421 10.55173,0.52982 l 17.02328,6.38248 0.0801,0.23616 c 0.2051,0.60478 22.62721,74.21379 22.62721,74.21379 0,0 -1.35707,64.315 -1.83016,66.422 0,-3e-5 -31.43092,4.76381 -43.87501,4.76381 z"
       transform="translate(-227,-89.32838)"
       fill="#3f3d56"
       id="path1056" />
    <circle
       cx="285.47681"
       cy="352.72705"
       r="23.008209"
       fill="#9f616a"
       id="circle1058" />
    <polygon
       points="306.02,462.65 259.823,432.715 300.076,488.877 "
       opacity="0.2"
       id="polygon1060" />
    <path
       d="m 613.02352,560.25673 a 9.87366,9.87366 0 0 1 -14.82487,-3.07339 l -34.64668,5.5456 7.506,-16.61679 31.75033,-2.71866 a 9.92718,9.92718 0 0 1 10.21526,16.86324 z"
       transform="translate(-227,-89.32838)"
       fill="#9f616a"
       id="path1062" />
    <polygon
       points="361.741,471.983 346.076,472.26 345.842,455.838 358.291,454.617 "
       fill="#f1f1f1"
       id="polygon1064" />
    <path
       d="m 583.04706,567.36242 -60.96976,-5.42884 -30.78585,-48.96058 -0.0948,-0.4327 a 16.85541,16.85541 0 0 1 31.4666,-11.28612 l 18.072,35.25105 36.47268,5.51312 z"
       transform="translate(-227,-89.32838)"
       fill="#3f3d56"
       id="path1066" />
    <path
       d="m 492.87889,462.03183 19.09695,0.68547 c 1.16406,0.0418 4.32334,-12.521 4.7369,-15.12708 a 7.11274,7.11274 0 0 1 7.41971,-5.754 c 1.42953,0.135 5.03429,-2.53568 8.754,-5.69809 7.062,-6.00388 6.69461,-17.28005 -1.063,-22.35333 q -0.318,-0.208 -0.62428,-0.37983 c -4.89391,-2.73917 -10.61888,-3.659 -16.22678,-3.72917 -5.08371,-0.0636 -10.31154,0.57628 -14.79018,2.98249 -8.02926,4.31383 -12.3024,13.74076 -12.67776,22.84774 -0.37536,9.10698 2.5442,18.012 5.85721,26.50324"
       transform="translate(-227,-89.32838)"
       fill="#2f2e41"
       id="path1068" />
    <path
       d="M 971.60236,810.67162 H 228 a 1,1 0 0 1 0,-2 h 744 a 1,1 0 0 1 1,1 c 0,0.55224 -0.84539,1 -1.39764,1 z"
       transform="translate(-227,-89.32838)"
       fill="#cbcbcb"
       id="path1070" />
  </g>
  <g
     id="layer2">
    <rect
       id="effaf695-3865-40c6-8918-ced0238239c2"
       data-name="Rectangle 25"
       width="341.12399"
       height="385.99298"
       fill="#e6e6e6"
       x="10.289115"
       y="114.5458"
       style="stroke-width:0.999998" />
    <rect
       id="f33d627f-c769-4bde-9d74-ef156faf640e"
       data-name="Rectangle 25-2"
       x="16.371368"
       y="122.71181"
       width="328.36325"
       height="369.66211"
       fill="#ffffff"
       style="stroke-width:0.999998" />
    <circle
       id="b5fd4af9-5b07-4da2-8ccf-5b3d4ac887f6"
       data-name="Ellipse 116"
       cx="180.85168"
       cy="460.82382"
       r="18.406231"
       fill="#e6e6e6"
       style="stroke-width:0.999998" />
    <rect
       id="f05405a0-af73-4807-bbd1-d761cdd06c65"
       data-name="Rectangle 31"
       x="72.023254"
       y="253.56419"
       width="105.7189"
       height="10.815015"
       fill="#e6e6e6"
       style="stroke-width:0.999998" />
    <rect
       id="a05e4a04-50b7-46b0-b842-8db21044ae7a"
       data-name="Rectangle 32"
       x="72.023254"
       y="285.97232"
       width="159.55835"
       height="10.815015"
       fill="#039be5"
       style="stroke-width:0.999998" />
    <rect
       id="bdce3bac-3998-4a72-bc14-4aa79023038d"
       data-name="Rectangle 38"
       x="72.023254"
       y="318.58401"
       width="143.89633"
       height="10.815015"
       fill="#e6e6e6"
       style="stroke-width:0.999998" />
    <rect
       id="e1177af0-2f80-4461-b67e-43945f3b6fee"
       data-name="Rectangle 39"
       x="72.023254"
       y="350.33405"
       width="222.20642"
       height="10.815015"
       fill="#039be5"
       style="stroke-width:0.999998" />
    <rect
       id="b290cdc3-2096-427b-bfd4-6b657da823ea"
       data-name="Rectangle 40"
       x="74.333069"
       y="380.57159"
       width="181.09319"
       height="10.815015"
       fill="#e6e6e6"
       style="stroke-width:0.999998" />
    <g
       id="b2dad932-78e1-44e1-9682-073c8202f887"
       data-name="Group 51"
       transform="matrix(1.1900323,-3.6203028e-8,3.6203028e-8,1.1900323,10.289117,114.54577)"
       style="stroke-width:0.840313">
      <path
         id="e043db59-b600-449e-8c52-e1eb73379667"
         data-name="Path 341"
         d="M 217.64577,123.08567 A 32.89091,32.89091 0 1 0 250.535,155.9783 v -0.002 a 32.89088,32.89088 0 0 0 -32.89091,-32.89091 z m 0,9.86638 a 9.8664,9.8664 0 1 1 -9.86636,9.86644 v 0 a 9.86643,9.86643 0 0 1 9.86636,-9.86644 z m 0,47.50128 a 23.961,23.961 0 0 1 -19.73454,-10.53178 c 0.15847,-6.57819 13.15636,-10.1991 19.73454,-10.1991 6.57818,0 19.57608,3.62091 19.73455,10.1991 a 23.99974,23.99974 0 0 1 -19.73455,10.53178 z"
         transform="translate(-74.56905,-97.82358)"
         fill="#039be5"
         style="stroke-width:0.684302" />
    </g>
  </g>
  <g
     id="layer3">
    <path
       d="m 738.50012,510.29992 c 0,87.30929 -55.33805,161.70021 -132.84824,190.00663 a 199.9921,199.9921 0 0 1 -36.35302,9.5417 203.5978,203.5978 0 0 1 -101.55732,-9.22303 C 389.74091,672.55167 333.9983,597.90949 334.0351,510.25702 c 0,-111.6446 90.54501,-202.18961 202.23251,-202.18961 a 201.35221,201.35221 0 0 1 117.66884,37.75007 c 51.20143,36.68377 84.56367,96.68552 84.56367,164.48244 z"
       fill="#e5e5e5"
       id="path2"
       style="stroke-width:1" />
    <path
       d="m 605.65185,700.30655 a 199.9921,199.9921 0 0 1 -36.35302,9.5417 203.5978,203.5978 0 0 1 -101.55732,-9.22303 l 9.33931,-37.4743 0.56375,-2.24907 19.05894,0.0735 95.74805,0.34318 1.22565,3.6218 z"
       fill="#2f2e41"
       id="path4"
       style="stroke-width:1" />
    <g
       id="b96c6486-fa38-4cba-8e5e-13dca7f44a0c"
       data-name="Group 52"
       transform="matrix(0.61282578,0,0,0.61282578,94.504826,280.88687)"
       style="stroke-width:1.63179">
      <path
         id="b0fbfc35-67c9-42b4-b2fe-33d0d7288754"
         data-name="Path 846"
         d="m 482.17805,625.61438 a 29.75626,29.75626 0 0 1 2.991,3.6 l 140.109,-3.428 16.345,-29.868 48.3,18.776 -23.8,55.687 a 22.609,22.609 0 0 1 -23.5,13.561 l -158.3,-19.123 a 29.665,29.665 0 1 1 -2.15,-39.211 z"
         transform="translate(-74.56905,-97.82358)"
         fill="#9f616a"
         style="stroke-width:2.66272" />
      <path
         id="a6a8f1c9-3ab8-4f6f-ba9b-45acc2f7af89"
         data-name="Path 852"
         d="m 670.75807,455.06457 65.569,-21.489 19.258,-26.411 93.716,5.546 13.759,30.82 49.972,23.613 -7.68,142.624 -13.138,133.477 c -67.558,-34.983 -193.63907,-8.31221 -194.74307,-7.87819 z"
         transform="translate(-74.56905,-97.82358)"
         fill="#039be5"
         style="stroke-width:2.66272" />
      <path
         id="fc06e97d-785e-4845-9aa0-60a5889f9ce3"
         data-name="Path 853"
         d="m 684.775,648.11407 -66.694,-26.684 0.284,-1.187 c 0.286,-1.2 28.672,-119.817 32.441,-138.879 3.926,-19.859 18.271,-25.35 18.88,-25.573 l 0.445,-0.164 26.394,8.034 11.592,91.081 z"
         transform="translate(-74.56905,-97.82358)"
         fill="#039be5"
         style="stroke-width:2.66272" />
      <path
         id="b248559b-61d8-49e2-8eef-81cc9521c19e"
         data-name="Path 855"
         d="m 828.7801,737.37719 a 29.72053,29.72053 0 0 1 4.677,0.258 l 92.747,-105.072 -10.788,-32.286 46.608,-22.652 24.655,55.313 a 22.608,22.608 0 0 1 -6.034,26.453 l -121.65,103.073 a 29.6649,29.6649 0 1 1 -30.215,-25.087 z"
         transform="translate(-74.56905,-97.82358)"
         fill="#9f616a"
         style="stroke-width:2.66272" />
      <path
         id="b0e9bc84-32e8-4599-bd8d-d35670d3692b"
         data-name="Path 856"
         d="m 918.801,642.79113 -38.689,-91.006 15.09,-63.391 16.259,-20.541 a 9.36609,9.36609 0 0 1 7.524,0.07 c 6,2.413 11.1,9.81 15.177,21.984 l 36.259,103.279 z"
         transform="translate(-74.56905,-97.82358)"
         fill="#039be5"
         style="stroke-width:2.66272" />
      <path
         id="b58b0f1b-b11b-4f57-8de2-a939101b4938"
         data-name="Path 857"
         d="m 718.072,373.4422 v -68.61 a 91.938005,91.938005 0 1 1 183.875,-0.60916 q 10e-4,0.30455 0,0.60916 v 68.61 a 12.364,12.364 0 0 1 -12.35,12.35 H 730.422 a 12.364,12.364 0 0 1 -12.35,-12.35 z"
         transform="translate(-74.56905,-97.82358)"
         fill="#2f2e41"
         style="stroke-width:2.66272" />
      <circle
         id="ba54abe3-4119-45e5-b5c1-150877d750f7"
         data-name="Ellipse 148"
         cx="716.54791"
         cy="218.96507"
         r="67.404999"
         fill="#9f616a"
         style="stroke-width:2.66272" />
      <path
         id="b6bcc4bf-1738-426f-8fbf-3ee273a728b5"
         data-name="Path 858"
         d="m 696.322,310.32116 a 72.809,72.809 0 0 1 72.727,-72.727 h 13.723 a 72.808,72.808 0 0 1 72.726,72.727 v 1.372 h -29 l -9.891,-27.7 -1.978,27.7 h -14.986 l -4.99,-13.974 -1,13.974 h -97.331 z"
         transform="translate(-74.56905,-97.82358)"
         fill="#2f2e41"
         style="stroke-width:2.66272" />
      <path
         id="be96ad09-85ff-4345-abef-5a49918f7c18"
         data-name="Path 859"
         d="m 784.484,393.508 a 12.16709,12.16709 0 0 1 -0.967,-12.918 c 14.541,-27.658 34.9,-78.765 7.877,-110.283 l -1.938,-2.262 h 78.456 v 117.79 l -71.271,12.575 a 12.60771,12.60771 0 0 1 -2.185,0.193 12.3,12.3 0 0 1 -9.967,-5.092 z"
         transform="translate(-74.56905,-97.82358)"
         fill="#2f2e41"
         style="stroke-width:2.66272" />
    </g>
    <path
       id="bcfa45dc-2c5a-4ac5-8376-9a2a23e225d0"
       data-name="Path 842"
       d="m 182.4202,462.8416 c 8.30379,-15.21708 28.19611,-24.85377 44.46848,-16.16757 7.32449,3.90921 13.14695,10.82434 14.99523,18.9976 2.14489,9.4945 -2.3747,18.54778 -7.04014,26.52432 -2.5322,4.32961 -5.30707,8.57098 -7.40294,13.13776 -2.17001,4.72918 -3.72107,10.19497 -2.08728,15.33964 1.47078,4.6348 5.15877,8.00596 9.19729,10.48361 a 68.531241,68.531241 0 0 0 14.13237,6.31211 83.186601,83.186601 0 0 0 31.55134,4.08203 86.287543,86.287543 0 0 0 15.72511,-2.542 c 5.4805,-1.39724 10.85866,-3.16831 16.34835,-4.53491 9.16543,-2.27665 19.61594,-3.40854 28.30704,1.16437 8.44351,4.44421 12.2222,13.73894 13.39086,22.78118 2.15837,16.69705 -4.46199,34.02409 -16.41516,45.71681 -5.73482,5.6098 -12.95146,10.2446 -20.81156,12.14069 -6.85813,1.65463 -15.66444,1.54861 -21.12227,-3.57829 -6.09026,-5.72196 -4.65747,-14.89718 0.17956,-20.93413 6.17422,-7.70261 16.63393,-9.55273 25.96788,-9.74025 10.61782,-0.21327 21.22584,1.36782 31.83753,0.38485 a 48.902884,48.902884 0 0 0 15.0559,-3.6316 38.153062,38.153062 0 0 0 11.34647,-7.6781 c 6.55111,-6.36481 10.96958,-14.84387 13.16656,-23.65998 2.64557,-10.60188 2.0689,-21.74428 0.0153,-32.39335 a 146.07363,146.07363 0 0 0 -4.22114,-16.24418 c -0.70904,-2.24907 -4.26036,-1.28693 -3.54581,0.97746 6.32436,20.05411 9.85056,43.24283 -2.36857,61.86231 a 36.835291,36.835291 0 0 1 -22.0268,15.85564 c -10.57553,2.62841 -21.67258,1.32922 -32.424,0.93824 -10.22316,-0.37199 -21.4489,0.0294 -30.21231,5.98363 -7.18906,4.88361 -12.2173,14.17282 -10.04422,22.94236 2.09526,8.45699 10.22255,12.74677 18.35107,13.4074 8.5287,0.69494 16.92135,-2.16756 24.08406,-6.64364 14.89963,-9.31067 24.80657,-25.68537 26.87976,-43.04611 1.08041,-9.04592 -0.019,-18.78985 -4.12125,-27.00049 a 26.433112,26.433112 0 0 0 -9.71145,-10.82312 c -4.17335,-2.55855 -8.99383,-3.8179 -13.83516,-4.26343 -10.99899,-1.013 -21.56656,2.76323 -32.00053,5.65209 a 88.736168,88.736168 0 0 1 -16.31833,3.115 81.49508,81.49508 0 0 1 -16.10016,-0.26229 79.278072,79.278072 0 0 1 -15.60071,-3.46247 62.442467,62.442467 0 0 1 -14.16117,-6.40219 c -3.9129,-2.50217 -7.29692,-6.08597 -7.48935,-10.96958 -0.20897,-5.29543 2.46111,-10.2489 5.00066,-14.71333 5.01721,-8.81918 11.21471,-17.44532 12.5231,-27.76959 1.14598,-9.03122 -2.48808,-17.93251 -8.76341,-24.37392 a 32.952255,32.952255 0 0 0 -24.35186,-10.10243 c -9.31066,0.26657 -18.22544,4.31551 -25.07377,10.53386 a 41.278719,41.278719 0 0 0 -8.45699,10.74283 c -1.13434,2.0781 2.03948,3.93557 3.17505,1.85564 z"
       fill="#3f3d56"
       style="stroke-width:1" />
  </g>
</svg>
