<svg xmlns="http://www.w3.org/2000/svg" width="369" height="95" aria-hidden="true" class="svg-inline--fa fa-user fa-w-14" data-icon="user" data-prefix="fas"><g style="font-size:40px;line-height:25px;font-family:Sans;letter-spacing:0;word-spacing:0;fill:#fafafa;stroke-width:.999996px"><path d="M247.147 69.663q-1.344 0-2.166-.747-.746-.82-.746-2.09V31.732q0-1.344.746-2.09.822-.822 2.166-.822 1.269 0 2.016.822.82.746.82 2.09v2.54q2.39-2.764 5.9-4.332 3.584-1.568 7.69-1.568 5.302 0 9.483 2.24 4.181 2.166 6.57 6.422 2.465 4.256 2.465 10.378v19.414q0 1.194-.822 2.016-.821.821-2.016.821-1.27 0-2.09-.821-.822-.822-.822-2.016V47.412q0-6.944-3.882-10.229-3.808-3.36-9.483-3.36-3.659 0-6.645 1.419-2.912 1.418-4.63 3.882t-1.717 5.6v22.102q0 1.27-.821 2.09-.747.747-2.016.747m66.154.373q-6.048 0-10.752-2.613-4.63-2.688-7.317-7.392-2.613-4.704-2.613-10.752 0-6.123 2.464-10.752 2.538-4.704 6.944-7.392 4.405-2.688 10.154-2.688 5.675 0 9.856 2.613 4.256 2.54 6.57 7.094 2.316 4.554 2.316 10.378 0 1.195-.747 1.942-.747.672-1.941.672h-30.166q.448 4.032 2.464 7.168 2.016 3.061 5.302 4.853 3.285 1.717 7.466 1.717 2.688 0 5.376-.896 2.763-.97 4.406-2.389.82-.672 1.866-.672 1.046-.075 1.792.523.97.896.97 1.941.076 1.045-.82 1.792-2.464 2.09-6.272 3.51-3.808 1.343-7.318 1.343m-1.12-36.437q-5.75 0-9.482 3.584-3.734 3.51-4.48 9.184h27.328q-.598-5.675-4.182-9.184-3.51-3.584-9.184-3.584m44.427 36.064q-3.957 0-7.093-1.867-3.062-1.866-4.854-5.077-1.792-3.285-1.792-7.467V35.316h-4.853q-1.12 0-1.867-.672-.746-.746-.746-1.792 0-1.12.746-1.792.747-.746 1.867-.746h4.853V18.74q0-1.269.747-2.09.821-.822 2.09-.822 1.27 0 2.091.822.822.821.822 2.09v11.574h8.437q1.12 0 1.867.746.746.672.746 1.792 0 1.046-.746 1.792-.747.672-1.867.672h-8.437v19.936q0 3.808 2.24 6.272 2.24 2.39 5.749 2.39h2.016q1.195 0 1.941.821.747.821.747 2.09 0 1.27-.896 2.091-.896.747-2.24.747z" aria-label="net" style="font-size:74.6667px;font-family:Comfortaa;-inkscape-font-specification:&quot;Comfortaa, Normal&quot;"/></g><g style="font-size:40px;line-height:25px;font-family:Sans;letter-spacing:0;word-spacing:0;fill:#fafafa;stroke-width:.999996px"><path d="M11.107 69.663q-1.344 0-2.166-.747-.746-.82-.746-2.165V31.732q0-1.344.746-2.09.822-.822 2.166-.822 1.269 0 2.016.822.821.746.821 2.09v35.02q0 1.343-.821 2.164-.747.747-2.016.747m-.075-48.608q-1.643 0-2.837-1.195Q7 18.666 7 16.948q0-1.866 1.195-2.912 1.269-1.12 2.912-1.12 1.568 0 2.762 1.12 1.27 1.046 1.27 2.912 0 1.718-1.195 2.912-1.195 1.195-2.912 1.195M47.17 70.036q-5.898 0-10.602-2.688-4.704-2.762-7.467-7.466-2.688-4.704-2.688-10.678 0-5.898 2.614-10.602 2.688-4.704 7.242-7.392 4.555-2.763 10.304-2.763 5.003 0 9.035 2.165 4.032 2.091 6.496 5.6V14.26q0-1.344.821-2.09.822-.822 2.091-.822t2.09.822q.822.746.822 2.09v35.243q-.15 5.824-2.912 10.528-2.688 4.63-7.392 7.317-4.63 2.688-10.453 2.688m0-5.226q4.331 0 7.691-2.016 3.435-2.09 5.376-5.6 2.016-3.51 2.016-7.99 0-4.405-2.016-7.914-1.941-3.584-5.376-5.6-3.36-2.016-7.69-2.016-4.256 0-7.691 2.016t-5.45 5.6q-2.017 3.51-2.017 7.914 0 4.48 2.016 7.99t5.451 5.6q3.435 2.016 7.69 2.016m52.714 5.226q-6.048 0-10.752-2.613-4.629-2.688-7.317-7.392-2.613-4.704-2.613-10.752 0-6.123 2.464-10.752 2.538-4.704 6.944-7.392 4.405-2.688 10.154-2.688 5.675 0 9.856 2.613 4.256 2.54 6.571 7.094t2.315 10.378q0 1.195-.747 1.942-.747.672-1.941.672H84.653q.448 4.032 2.464 7.168 2.016 3.061 5.302 4.853 3.285 1.717 7.466 1.717 2.688 0 5.376-.896 2.763-.97 4.406-2.389.821-.672 1.866-.672 1.046-.075 1.792.523.971.896.971 1.941.075 1.045-.821 1.792-2.464 2.09-6.272 3.51-3.808 1.343-7.318 1.343M98.765 33.6q-5.749 0-9.482 3.584-3.734 3.51-4.48 9.184h27.328q-.598-5.675-4.182-9.184-3.509-3.584-9.184-3.584m31.36 36.063q-1.344 0-2.165-.747-.747-.82-.747-2.09V31.732q0-1.344.747-2.09.821-.822 2.165-.822 1.27 0 2.016.822.822.746.822 2.09v2.54q2.39-2.764 5.898-4.332 3.584-1.568 7.691-1.568 5.301 0 9.483 2.24 4.181 2.166 6.57 6.422 2.464 4.256 2.464 10.378v19.414q0 1.194-.82 2.016-.822.821-2.017.821-1.27 0-2.09-.821-.822-.822-.822-2.016V47.412q0-6.944-3.883-10.229-3.808-3.36-9.482-3.36-3.659 0-6.646 1.419-2.912 1.418-4.629 3.882t-1.717 5.6v22.102q0 1.27-.822 2.09-.746.747-2.016.747m63.616 0q-3.957 0-7.093-1.867-3.061-1.866-4.853-5.077-1.792-3.285-1.792-7.467V35.316h-4.854q-1.12 0-1.866-.672-.747-.746-.747-1.792 0-1.12.747-1.792.746-.746 1.866-.746h4.854V18.74q0-1.269.746-2.09.822-.822 2.091-.822t2.09.822.822 2.09v11.574h8.437q1.12 0 1.867.746.747.672.747 1.792 0 1.046-.747 1.792-.747.672-1.867.672h-8.437v19.936q0 3.808 2.24 6.272 2.24 2.39 5.75 2.39h2.015q1.195 0 1.942.821t.746 2.09-.896 2.091q-.896.747-2.24.747z" aria-label="ident" style="font-size:74.6667px;font-family:Comfortaa;-inkscape-font-specification:&quot;Comfortaa, Normal&quot;"/></g><g style="font-style:normal;font-weight:400;font-size:40px;line-height:25px;font-family:Sans;letter-spacing:0;word-spacing:0;fill:#039be5;fill-opacity:1;stroke:none;stroke-width:1px;stroke-linecap:butt;stroke-linejoin:miter;stroke-opacity:1"><path d="M-32.633 56.976v19.149q0 1.194.821 2.016.822.82 2.016.82 1.27 0 2.091-.82.822-.822.822-2.016V56.976c0-3.086-.475-13.198 5.62-13.198s5.62 10.112 5.62 13.198v19.149q0 1.194.82 2.016.822.82 2.092.82 1.194 0 2.016-.82.82-.822.82-2.016V56.976c0-4.081.268-18.911-11.368-18.911s-11.37 14.83-11.37 18.911" aria-label="n" style="font-style:normal;font-variant:normal;font-weight:400;font-stretch:normal;font-size:74.6667px;font-family:Comfortaa;-inkscape-font-specification:&quot;Comfortaa, Normal&quot;;font-variant-ligatures:normal;font-variant-caps:normal;font-variant-numeric:normal;font-variant-east-asian:normal;fill:#039be5;fill-opacity:1" transform="matrix(-1 0 0 1 199.026 -9.284)"/></g><path d="M227.061 17.146a6.77 6.77 0 0 1-6.772 6.772 6.77 6.77 0 0 1-6.771-6.772 6.77 6.77 0 0 1 6.771-6.772 6.77 6.77 0 0 1 6.772 6.772" style="fill:none;stroke:#039be5;stroke-width:5.749;stroke-miterlimit:4;stroke-dasharray:none;stroke-opacity:1"/></svg>