<?xml version="1.0" encoding="UTF-8" standalone="no"?>
<svg
   data-name="Layer 1"
   width="751.15472"
   height="448.14688"
   viewBox="-20 -10 791.15421 472.011"
   version="1.1"
   id="svg132"
   xmlns="http://www.w3.org/2000/svg"
   xmlns:svg="http://www.w3.org/2000/svg">
  <defs
     id="defs136" />
  <path
     d="m 521.13684,395.19651 c -0.0155,0.031 -0.031,0.0543 -0.0465,0.0853 a 6.0196235,6.0196235 0 0 1 -4.17924,3.03944 c -0.20935,-0.2016 -0.4342,-0.40319 -0.65906,-0.59703 a 0.25873254,0.25873254 0 0 1 0.11631,-0.0388 5.3566839,5.3566839 0 0 0 4.07843,-2.69053 c 0.0388,-0.062 0.0775,-0.13181 0.10855,-0.19384 a 0.34973748,0.34973748 0 0 1 0.48848,-0.093 0.36424461,0.36424461 0 0 1 0.093,0.48844 z"
     fill="#ffffff"
     id="path10"
     style="stroke-width:0.775368" />
  <path
     d="M 73.261,5.4431 A 67.89449,67.89449 0 0 0 5.4431,73.261 v 259.89981 a 67.8945,67.8945 0 0 0 67.8179,67.8179 h 604.63268 a 67.8945,67.8945 0 0 0 67.8179,-67.8179 V 73.261 A 67.89449,67.89449 0 0 0 677.89368,5.4431 Z"
     fill="#ffffff"
     style="isolation:isolate"
     id="path12" />
  <path
     d="M 677.89368,406.42186 H 73.261 A 73.3436,73.3436 0 0 1 0,333.16086 V 73.261 A 73.3436,73.3436 0 0 1 73.261,0 h 604.63268 a 73.3436,73.3436 0 0 1 73.26105,73.261 v 259.89981 a 73.3436,73.3436 0 0 1 -73.26105,73.26105 z M 73.261,10.88625 A 62.44539,62.44539 0 0 0 10.88625,73.261 V 333.16081 A 62.44539,62.44539 0 0 0 73.261,395.53556 h 604.63268 a 62.44539,62.44539 0 0 0 62.37475,-62.37475 V 73.261 A 62.44539,62.44539 0 0 0 677.89368,10.88625 Z"
     fill="#e6e6e6"
     style="isolation:isolate"
     id="path14" />
  <path
     d="M 377.20081,59.25268 H 89.65734 A 23.19146,23.19146 0 0 0 66.50579,82.40423 v 129.6921 a 21.81835,21.81835 0 0 0 0.38106,4.10053 c 0.0907,0.61682 0.23588,1.2156 0.38095,1.81438 a 23.22593,23.22593 0 0 0 22.38954,17.23664 h 287.54347 c 0.47175,0 0.94351,-0.0182 1.39711,-0.0545 h 0.32657 v -0.0182 a 1.38119,1.38119 0 0 0 0.2722,-0.018 c 0.0907,0 0.19956,-0.0182 0.29026,-0.0182 a 0.16309,0.16309 0 0 0 0.0907,-0.0182 c 0.19956,-0.0182 0.39923,-0.0363 0.58062,-0.0545 0.32658,-0.0544 0.65315,-0.0907 0.96168,-0.14507 a 0.308,0.308 0 0 1 0.12691,-0.0182 0.35874,0.35874 0 0 1 0.1815,-0.0363 0.0666,0.0666 0 0 1 0.0544,-0.0182 c 0.19967,-0.0362 0.39923,-0.0725 0.59878,-0.127 a 2.0948,2.0948 0 0 0 0.32658,-0.0725 c 0.39922,-0.0907 0.79833,-0.1814 1.17939,-0.30842 0.1814,-0.0545 0.34474,-0.0907 0.52613,-0.14518 0.23588,-0.0725 0.48992,-0.16334 0.7258,-0.254 a 2.86042,2.86042 0 0 0 0.3629,-0.127 0.09422,0.09422 0 0 0 0.0725,-0.0362 16.2231,16.2231 0 0 0 1.54219,-0.6351 c 0.43554,-0.19956 0.85281,-0.41728 1.27009,-0.635 0.16334,-0.0725 0.30841,-0.16335 0.47175,-0.254 a 0.38141,0.38141 0 0 0 0.10886,-0.0725 c 0.41728,-0.254 0.83466,-0.50808 1.23377,-0.744 0.0182,-0.0181 0.0182,-0.0362 0.0363,-0.0362 a 0.01779,0.01779 0 0 0 0.0182,-0.0182 13.87442,13.87442 0 0 0 1.23376,-0.87087 h 0.0182 c 0.10886,-0.0908 0.19956,-0.16334 0.29026,-0.23588 0.127,-0.0908 0.254,-0.19967 0.3629,-0.29036 0.21771,-0.1814 0.43543,-0.3629 0.635,-0.5443 a 2.78525,2.78525 0 0 0 0.34473,-0.30841 c 0.30853,-0.2722 0.59878,-0.56245 0.889,-0.85282 a 5.1333,5.1333 0 0 0 0.43555,-0.47176 7.52669,7.52669 0 0 0 0.635,-0.68947 c 0.18139,-0.23577 0.38106,-0.47165 0.56245,-0.70753 a 8.12348,8.12348 0 0 0 0.59878,-0.78017 c 0.32658,-0.43554 0.61683,-0.871 0.90719,-1.34273 0.23588,-0.381 0.47176,-0.78018 0.68948,-1.17929 0.10886,-0.19955 0.21771,-0.41738 0.32657,-0.6351 0.0182,0 0.0182,-0.0181 0.0182,-0.0362 0.19956,-0.38106 0.38095,-0.76212 0.5443,-1.16123 0.0725,-0.16335 0.14518,-0.30842 0.19955,-0.47176 0.14518,-0.30841 0.254,-0.635 0.38106,-0.96156 0.19956,-0.59878 0.39911,-1.21572 0.56246,-1.83255 0.14507,-0.59878 0.29025,-1.19756 0.38095,-1.81438 a 21.81835,21.81835 0 0 0 0.38106,-4.10053 V 82.40423 A 23.19146,23.19146 0 0 0 377.20091,59.25268 Z"
     fill="#039be5"
     id="path16" />
  <rect
     x="66.505783"
     y="96.447548"
     width="333.84656"
     height="1.81438"
     fill="#ffffff"
     opacity="0.3"
     id="rect18" />
  <rect
     x="66.505783"
     y="116.40577"
     width="333.84656"
     height="1.81438"
     fill="#ffffff"
     opacity="0.3"
     id="rect20" />
  <rect
     x="66.505783"
     y="136.36398"
     width="333.84656"
     height="1.81438"
     fill="#ffffff"
     opacity="0.3"
     id="rect22" />
  <rect
     x="66.505783"
     y="156.3222"
     width="333.84656"
     height="1.81438"
     fill="#ffffff"
     opacity="0.3"
     id="rect24" />
  <rect
     x="66.505783"
     y="176.28043"
     width="333.84656"
     height="1.81438"
     fill="#ffffff"
     opacity="0.3"
     id="rect26" />
  <rect
     x="66.505783"
     y="196.23865"
     width="333.84656"
     height="1.81438"
     fill="#ffffff"
     opacity="0.3"
     id="rect28" />
  <path
     d="m 399.97134,216.19686 c -0.0907,0.61682 -0.23588,1.2156 -0.38095,1.81438 H 66.75983 a 14.99887,14.99887 0 0 1 -0.21772,-1.81438 z"
     fill="#ffffff"
     opacity="0.3"
     id="path30" />
  <g
     opacity="0.1"
     id="g34"
     transform="translate(-5e-5,-5e-5)">
    <path
       d="m 624.775,354.93629 v 28.08662 a 21.81835,21.81835 0 0 1 -0.38106,4.10053 c -0.0907,0.61682 -0.23588,1.2156 -0.38095,1.81438 -0.16335,0.61683 -0.3629,1.23377 -0.56246,1.83255 -0.127,0.32657 -0.23588,0.65315 -0.38106,0.96156 -0.0544,0.16334 -0.127,0.30841 -0.19955,0.47176 -0.16335,0.39911 -0.34474,0.78017 -0.5443,1.16123 0,0.0182 0,0.0362 -0.0182,0.0362 -0.10886,0.21772 -0.21771,0.43555 -0.32657,0.6351 -0.21772,0.39911 -0.4536,0.79834 -0.68948,1.17929 -0.29036,0.47175 -0.58061,0.90719 -0.90719,1.34273 a 8.12348,8.12348 0 0 1 -0.59878,0.78017 c -0.18139,0.23588 -0.38106,0.47176 -0.56245,0.70753 a 7.52669,7.52669 0 0 1 -0.635,0.68947 5.1333,5.1333 0 0 1 -0.43555,0.47176 c -0.29025,0.29037 -0.5805,0.58062 -0.889,0.85282 a 2.78525,2.78525 0 0 1 -0.34473,0.30841 c -0.19956,0.1814 -0.41728,0.3629 -0.635,0.5443 -0.10886,0.0907 -0.23588,0.19955 -0.3629,0.29036 -0.0907,0.0725 -0.1814,0.14507 -0.29026,0.23588 h -0.0182 a 13.87442,13.87442 0 0 1 -1.23376,0.87087 0.01779,0.01779 0 0 1 -0.0182,0.0182 c -0.0182,0 -0.0182,0.0182 -0.0363,0.0362 -0.254,0.18151 -0.52613,0.34474 -0.79833,0.50808 -0.14518,0.0907 -0.29026,0.16323 -0.43544,0.23588 a 0.38141,0.38141 0 0 1 -0.10886,0.0725 c -0.16334,0.0907 -0.30841,0.1815 -0.47175,0.254 -0.41728,0.21771 -0.83455,0.43543 -1.27009,0.635 a 16.2231,16.2231 0 0 1 -1.54219,0.6351 0.09422,0.09422 0 0 1 -0.0725,0.0362 2.86042,2.86042 0 0 1 -0.3629,0.127 c -0.23588,0.0907 -0.48992,0.1815 -0.7258,0.254 -0.18139,0.0545 -0.34473,0.0907 -0.52613,0.14518 -0.38106,0.127 -0.78017,0.21772 -1.17939,0.30842 a 2.0948,2.0948 0 0 1 -0.32658,0.0725 c -0.19955,0.0545 -0.39911,0.0908 -0.59878,0.127 a 0.0666,0.0666 0 0 0 -0.0544,0.0182 0.35874,0.35874 0 0 0 -0.1815,0.0363 0.308,0.308 0 0 0 -0.12691,0.0182 c -0.30853,0.0544 -0.6351,0.0907 -0.96168,0.14507 -0.18139,0.0182 -0.38106,0.0363 -0.58062,0.0545 a 0.16309,0.16309 0 0 1 -0.0907,0.0182 c -0.19956,0.0182 -0.38106,0.0362 -0.56246,0.0544 h -0.0363 c -0.19956,0.0182 -0.39911,0.0182 -0.59867,0.0363 -0.3629,0.0182 -0.7258,0.0182 -1.08869,0.0182 H 314.08 A 23.22593,23.22593 0 0 1 291.69046,388.9378 h -0.508 a 14.99887,14.99887 0 0 1 -0.21772,-1.81438 c -0.0182,-0.34474 -0.0363,-0.70764 -0.0363,-1.05238 V 354.4283 a 43.14762,43.14762 0 0 1 11.231,1.83254 c 9.87026,3.01183 19.4683,8.11025 29.774,8.11025 0.81649,0 1.66931,-0.0362 2.50386,-0.10886 10.85009,-0.90719 19.2869,-7.63849 26.30856,-15.24076 0.56245,-0.59878 1.12491,-1.19755 1.65115,-1.81438 1.32446,-1.46965 2.59456,-2.97562 3.82832,-4.46342 A 97.67852,97.67852 0 0 1 379.416,329.06316 c 0.78017,-0.6351 1.56034,-1.23376 2.35867,-1.81438 a 33.5112,33.5112 0 0 1 16.00288,-6.40483 c 0.74385,-0.0725 1.48781,-0.127 2.23166,-0.14507 7.76561,-0.23588 15.05936,2.55823 21.70006,6.5499 0.96157,0.58062 1.92324,1.17928 2.8486,1.81438 a 108.35117,108.35117 0 0 1 9.16261,6.949 175.16547,175.16547 0 0 0 14.15214,11.19484 c 0.3629,0.254 0.7258,0.508 1.08859,0.72569 0.56245,0.38106 1.14307,0.744 1.72368,1.08869 a 41.9322,41.9322 0 0 0 16.4021,6.187 c 0.19956,0.0363 0.41728,0.0727 0.635,0.0907 9.453,1.10686 18.2527,-1.68737 26.2904,-6.2777 0.99789,-0.58061 2.01394,-1.17939 2.99378,-1.81438 a 123.97436,123.97436 0 0 0 17.58138,-14.15217 c 1.41516,-1.32458 2.8486,-2.6672 4.33629,-3.99167 0.67143,-0.59877 1.34274,-1.21571 2.03221,-1.81438 10.77734,-9.47114 23.20593,-18.14384 37.88423,-18.14384 0.61694,0 1.25193,0.0182 1.887,0.0544 10.55973,0.50808 19.8312,5.62465 27.61486,12.12007 a 84.69952,84.69952 0 0 1 6.47737,5.96939 c 0.0907,0.0907 0.16334,0.16323 0.254,0.254 0.508,0.508 1.016,1.0341 1.48781,1.56034 5.80605,6.07814 11.15839,12.57367 17.47252,18.14384 0.68947,0.635 1.397,1.23377 2.1228,1.81438 a 59.24951,59.24951 0 0 0 6.89463,4.93507 c 0.56252,0.34478 1.14313,0.67136 1.72373,0.97988 z"
       transform="translate(-224.42261,-170.92653)"
       id="path32" />
  </g>
  <g
     opacity="0.1"
     id="g38"
     transform="translate(-5e-5,-5e-5)">
    <path
       d="m 624.775,327.52087 v 55.502 a 21.81835,21.81835 0 0 1 -0.38106,4.10053 c -0.0907,0.61682 -0.23588,1.2156 -0.38095,1.81438 -0.16335,0.61683 -0.3629,1.23377 -0.56246,1.83255 -0.127,0.32657 -0.23588,0.65315 -0.38106,0.96156 -0.0544,0.16334 -0.127,0.30841 -0.19955,0.47176 -0.16335,0.39911 -0.34474,0.78017 -0.5443,1.16123 0,0.0182 0,0.0362 -0.0182,0.0362 -0.10886,0.21772 -0.21771,0.43555 -0.32657,0.6351 -0.21772,0.39911 -0.4536,0.79834 -0.68948,1.17929 -0.29036,0.47175 -0.58061,0.90719 -0.90719,1.34273 a 8.12348,8.12348 0 0 1 -0.59878,0.78017 c -0.18139,0.23588 -0.38106,0.47176 -0.56245,0.70753 a 7.52669,7.52669 0 0 1 -0.635,0.68947 5.1333,5.1333 0 0 1 -0.43555,0.47176 c -0.29025,0.29037 -0.5805,0.58062 -0.889,0.85282 a 2.78525,2.78525 0 0 1 -0.34473,0.30841 c -0.19956,0.1814 -0.41728,0.3629 -0.635,0.5443 -0.10886,0.0907 -0.23588,0.19955 -0.3629,0.29036 -0.0907,0.0725 -0.1814,0.14507 -0.29026,0.23588 h -0.0182 a 13.87442,13.87442 0 0 1 -1.23376,0.87087 0.01779,0.01779 0 0 1 -0.0182,0.0182 c -0.0182,0 -0.0182,0.0182 -0.0363,0.0362 -0.254,0.18151 -0.52613,0.34474 -0.79833,0.50808 -0.14518,0.0907 -0.29026,0.16323 -0.43544,0.23588 a 0.38141,0.38141 0 0 1 -0.10886,0.0725 c -0.16334,0.0907 -0.30841,0.1815 -0.47175,0.254 -0.41728,0.21771 -0.83455,0.43543 -1.27009,0.635 a 16.2231,16.2231 0 0 1 -1.54219,0.6351 0.09422,0.09422 0 0 1 -0.0725,0.0362 2.86042,2.86042 0 0 1 -0.3629,0.127 c -0.23588,0.0907 -0.48992,0.1815 -0.7258,0.254 -0.18139,0.0545 -0.34473,0.0907 -0.52613,0.14518 -0.38106,0.127 -0.78017,0.21772 -1.17939,0.30842 a 2.0948,2.0948 0 0 1 -0.32658,0.0725 c -0.19955,0.0545 -0.39911,0.0908 -0.59878,0.127 a 0.0666,0.0666 0 0 0 -0.0544,0.0182 0.35874,0.35874 0 0 0 -0.1815,0.0363 0.308,0.308 0 0 0 -0.12691,0.0182 c -0.30853,0.0544 -0.6351,0.0907 -0.96168,0.14507 -0.18139,0.0182 -0.38106,0.0363 -0.58062,0.0545 a 0.16309,0.16309 0 0 1 -0.0907,0.0182 c -0.0907,0 -0.19956,0.0182 -0.29026,0.0182 a 1.38119,1.38119 0 0 1 -0.2722,0.018 0.95767,0.95767 0 0 1 -0.23588,0.0182 h -0.0907 c -0.0907,0.0182 -0.19956,0.0182 -0.30842,0.0363 -0.3629,0.0182 -0.7258,0.0182 -1.08869,0.0182 H 314.08 a 23.22593,23.22593 0 0 1 -22.38954,-17.23664 c -0.14507,-0.59878 -0.29026,-1.19756 -0.38095,-1.81438 a 21.81835,21.81835 0 0 1 -0.38106,-4.10053 v -32.31396 c 0.635,-0.5443 1.25193,-1.10675 1.86886,-1.68737 0.635,-0.59878 1.25182,-1.19755 1.86876,-1.81438 A 139.23351,139.23351 0 0 0 309.3807,329.0633 c 0.14518,-0.19955 0.29036,-0.38106 0.41738,-0.58061 0.29025,-0.41728 0.5805,-0.8165 0.889,-1.23377 a 142.58682,142.58682 0 0 1 14.71462,-18.14384 c 0.61694,-0.61693 1.23377,-1.21571 1.86887,-1.81438 6.74946,-6.35034 14.44242,-11.08586 23.51434,-12.21088 12.50113,-1.56034 24.13128,4.22755 34.41891,12.21088 0.762,0.59867 1.50586,1.19745 2.24982,1.81438 3.51991,2.86665 6.85831,5.98745 10.01532,9.09008 0.83466,0.83455 1.68748,1.66921 2.54019,2.50386 2.19544,2.19533 4.44526,4.39078 6.71324,6.5499 0.65315,0.61683 1.28825,1.21561 1.9414,1.81438 9.07192,8.40061 18.88768,15.78516 30.55416,18.14384 0.79833,0.16323 1.61483,0.30841 2.43132,0.41727 a 40.6162,40.6162 0 0 0 13.245,-0.41727 c 0.7258,-0.127 1.43332,-0.29036 2.15912,-0.47176 10.92262,-2.70341 21.0468,-9.50735 30.20953,-17.67208 0.65315,-0.59877 1.32446,-1.19755 1.97761,-1.81438 4.68115,-4.3364 9.12641,-8.98122 13.28131,-13.5535 1.37894,-1.524 2.79411,-3.06632 4.20938,-4.59034 0.58061,-0.59877 1.14307,-1.19755 1.70552,-1.81438 a 153.33059,153.33059 0 0 1 19.84936,-18.14383 c 0.85271,-0.63511 1.70553,-1.23377 2.55824,-1.81439 9.59816,-6.5499 20.08524,-10.75928 31.60664,-10.088 9.50735,0.5443 18.19821,4.46332 26.0182,10.088 0.79833,0.58062 1.59666,1.17928 2.395,1.81439 a 108.69841,108.69841 0 0 1 16.20244,16.09357 c 0.56245,0.67131 1.12491,1.36079 1.68736,2.05026 0.29036,0.34474 0.56245,0.70764 0.85282,1.05226 l 0.59866,0.76212 c 4.80817,6.00561 9.43482,12.24709 14.35184,18.14384 z"
       transform="translate(-224.42261,-170.92653)"
       id="path36" />
  </g>
  <g
     opacity="0.1"
     id="g42"
     transform="translate(-5e-5,-5e-5)">
    <path
       d="m 624.775,304.6052 v 78.41771 a 21.81835,21.81835 0 0 1 -0.38106,4.10053 c -0.0907,0.61682 -0.23588,1.2156 -0.38095,1.81438 -0.16335,0.61683 -0.3629,1.23377 -0.56246,1.83255 -0.127,0.32657 -0.23588,0.65315 -0.38106,0.96156 -0.0544,0.16334 -0.127,0.30841 -0.19955,0.47176 -0.16335,0.39911 -0.34474,0.78017 -0.5443,1.16123 0,0.0182 0,0.0362 -0.0182,0.0362 -0.10886,0.21772 -0.21771,0.43555 -0.32657,0.6351 -0.21772,0.39911 -0.4536,0.79834 -0.68948,1.17929 -0.29036,0.47175 -0.58061,0.90719 -0.90719,1.34273 a 8.12348,8.12348 0 0 1 -0.59878,0.78017 c -0.18139,0.23588 -0.38106,0.47176 -0.56245,0.70753 a 7.52669,7.52669 0 0 1 -0.635,0.68947 5.1333,5.1333 0 0 1 -0.43555,0.47176 c -0.29025,0.29037 -0.5805,0.58062 -0.889,0.85282 a 2.78525,2.78525 0 0 1 -0.34473,0.30841 c -0.19956,0.1814 -0.41728,0.3629 -0.635,0.5443 -0.10886,0.0907 -0.23588,0.19955 -0.3629,0.29036 -0.0907,0.0725 -0.1814,0.14507 -0.29026,0.23588 h -0.0182 a 13.87442,13.87442 0 0 1 -1.23376,0.87087 0.01779,0.01779 0 0 1 -0.0182,0.0182 c -0.0182,0 -0.0182,0.0182 -0.0363,0.0362 -0.254,0.18151 -0.52613,0.34474 -0.79833,0.50808 -0.14518,0.0907 -0.29026,0.16323 -0.43544,0.23588 a 0.38141,0.38141 0 0 1 -0.10886,0.0725 c -0.16334,0.0907 -0.30841,0.1815 -0.47175,0.254 -0.41728,0.21771 -0.83455,0.43543 -1.27009,0.635 a 16.2231,16.2231 0 0 1 -1.54219,0.6351 0.09422,0.09422 0 0 1 -0.0725,0.0362 2.86042,2.86042 0 0 1 -0.3629,0.127 c -0.23588,0.0907 -0.48992,0.1815 -0.7258,0.254 -0.18139,0.0545 -0.34473,0.0907 -0.52613,0.14518 -0.38106,0.127 -0.78017,0.21772 -1.17939,0.30842 a 2.0948,2.0948 0 0 1 -0.32658,0.0725 c -0.19955,0.0545 -0.39911,0.0908 -0.59878,0.127 a 0.0666,0.0666 0 0 0 -0.0544,0.0182 0.35874,0.35874 0 0 0 -0.1815,0.0363 0.308,0.308 0 0 0 -0.12691,0.0182 c -0.30853,0.0544 -0.6351,0.0907 -0.96168,0.14507 -0.18139,0.0182 -0.38106,0.0363 -0.58062,0.0545 a 0.16309,0.16309 0 0 1 -0.0907,0.0182 c -0.0907,0 -0.19956,0.0182 -0.29026,0.0182 a 1.38119,1.38119 0 0 1 -0.2722,0.018 0.0634,0.0634 0 0 1 -0.0363,0.0182 h -0.29025 c -0.4536,0.0363 -0.92536,0.0545 -1.39711,0.0545 H 314.08 A 23.22593,23.22593 0 0 1 291.69046,388.9378 c -0.14507,-0.59878 -0.29026,-1.19756 -0.38095,-1.81438 a 21.81835,21.81835 0 0 1 -0.38106,-4.10053 v -46.84723 q 2.74881,-3.56526 5.51568,-7.11236 c 0.47176,-0.61694 0.94352,-1.21571 1.41527,-1.81438 2.4857,-3.19333 4.98956,-6.35034 7.56595,-9.43482 2.46754,-2.95745 5.0622,-5.87858 7.76562,-8.709 0.58061,-0.59877 1.16112,-1.21571 1.7599,-1.81438 a 100.85065,100.85065 0 0 1 23.46,-18.14383 c 1.1794,-0.65316 2.37684,-1.25193 3.59256,-1.81439 a 56.0621,56.0621 0 0 1 20.52067,-5.35245 56.98994,56.98994 0 0 1 27.1069,5.35245 c 1.27,0.54429 2.5219,1.16123 3.75567,1.81439 8.87236,4.57217 17.20043,10.977 25.00226,18.14383 0.67131,0.58062 1.3063,1.19745 1.95957,1.81438 6.187,5.80605 12.04742,12.02938 17.63575,18.14384 0.41738,0.4536 0.83466,0.92535 1.25193,1.37895 0.127,0.14507 0.2722,0.29025 0.39922,0.43543 5.44315,5.98745 11.24909,12.04754 17.418,17.67208 0.16334,0.16323 0.34474,0.30842 0.52613,0.47176 0.67131,0.61683 1.34274,1.2156 2.0321,1.81438 2.43132,2.15912 4.93518,4.22744 7.47536,6.187 a 97.28013,97.28013 0 0 0 19.54084,11.95684 c 1.46964,0.67131 2.95745,1.27009 4.46342,1.81438 a 53.6583,53.6583 0 0 0 26.05452,3.08448 51.91031,51.91031 0 0 0 11.81166,-3.08448 c 1.45148,-0.54429 2.86675,-1.16123 4.26375,-1.81438 9.19894,-4.35457 17.50885,-10.94079 25.38332,-18.14384 0.65315,-0.59878 1.30631,-1.19755 1.95946,-1.81438 4.48158,-4.20938 8.836,-8.58211 13.13612,-12.80954 1.81438,-1.77818 3.66509,-3.5744 5.57017,-5.3343 0.65326,-0.59877 1.32457,-1.19755 1.99589,-1.81438 2.28614,-2.05026 4.64481,-4.0642 7.076,-5.96939 a 90.8935,90.8935 0 0 1 19.45025,-12.17445 c 0.59867,-0.2722 1.21561,-0.52624 1.81439,-0.76212 0.92535,-0.381 1.85059,-0.72568 2.77595,-1.05226 A 48.65691,48.65691 0 0 1 624.775,304.6052 Z"
       transform="translate(-224.42261,-170.92653)"
       id="path40" />
  </g>
  <circle
     cx="138.17395"
     cy="116.40577"
     r="5.44315"
     fill="#ffffff"
     id="circle44" />
  <circle
     cx="221.63559"
     cy="176.28043"
     r="5.44315"
     fill="#ffffff"
     id="circle46" />
  <circle
     cx="334.12735"
     cy="136.36398"
     r="5.44315"
     fill="#ffffff"
     id="circle48" />
  <path
     d="m 581.71811,182.80575 h -128.3477 a 4.63111,4.63111 0 1 0 0,9.26221 h 128.3477 a 4.631105,4.631105 0 1 0 0,-9.26221 z"
     fill="#e6e6e6"
     id="path50" />
  <path
     d="m 581.71811,252.93388 h -128.3477 a 4.631105,4.631105 0 1 0 0,9.26221 h 128.3477 a 4.631105,4.631105 0 1 0 0,-9.26221 z"
     fill="#e6e6e6"
     id="path52" />
  <path
     d="m 581.71811,323.06201 h -128.3477 a 4.6311,4.6311 0 1 0 0,9.2622 h 128.3477 a 4.6311,4.6311 0 1 0 0,-9.2622 z"
     fill="#e6e6e6"
     id="path54" />
  <circle
     cx="659.48773"
     cy="187.78328"
     r="11.5653"
     fill="#f2f2f2"
     style="isolation:isolate"
     id="circle56" />
  <path
     d="m 657.91002,193.80248 a 1.2861,1.2861 0 0 1 -1.02908,-0.5147 l -3.15519,-4.207 a 1.28645,1.28645 0 1 1 2.05837,-1.54367 l 2.06424,2.7521 5.30172,-7.95247 a 1.2865037,1.2865037 0 0 1 2.14087,1.42725 l -6.31038,9.46557 a 1.287,1.287 0 0 1 -1.03474,0.57249 z"
     fill="#ffffff"
     id="path58" />
  <circle
     cx="659.48773"
     cy="257.91141"
     r="11.5653"
     fill="#f2f2f2"
     style="isolation:isolate"
     id="circle60" />
  <path
     d="m 657.91002,263.93061 a 1.2861,1.2861 0 0 1 -1.02908,-0.5147 l -3.15519,-4.207 a 1.28645,1.28645 0 1 1 2.05837,-1.54367 l 2.06424,2.7521 5.30172,-7.95247 a 1.2865009,1.2865009 0 1 1 2.14087,1.42724 l -6.31038,9.46558 a 1.28705,1.28705 0 0 1 -1.03474,0.57249 z"
     fill="#ffffff"
     id="path62" />
  <circle
     cx="659.48773"
     cy="328.03952"
     r="11.5653"
     fill="#f2f2f2"
     style="isolation:isolate"
     id="circle64" />
  <path
     d="m 581.71811,112.67762 h -128.3477 a 4.631105,4.631105 0 1 0 0,9.26221 h 128.3477 a 4.631105,4.631105 0 1 0 0,-9.26221 z"
     fill="#e6e6e6"
     id="path66" />
  <circle
     cx="659.48773"
     cy="117.65514"
     r="11.5653"
     fill="#039be5"
     id="circle68" />
  <path
     d="m 657.91002,123.67435 a 1.28612,1.28612 0 0 1 -1.02908,-0.51469 l -3.15519,-4.207 a 1.28645,1.28645 0 1 1 2.05837,-1.54367 l 2.06424,2.7521 5.30172,-7.95247 a 1.2865037,1.2865037 0 1 1 2.14087,1.42725 l -6.31038,9.46557 a 1.287,1.287 0 0 1 -1.03474,0.57249 z"
     fill="#ffffff"
     id="path70" />
  <circle
     cx="621.11578"
     cy="117.65514"
     r="11.5653"
     fill="#f2f2f2"
     style="isolation:isolate"
     id="circle72" />
  <circle
     cx="621.11578"
     cy="187.78328"
     r="11.5653"
     fill="#f2f2f2"
     style="isolation:isolate"
     id="circle74" />
  <circle
     cx="621.11578"
     cy="257.91141"
     r="11.5653"
     fill="#f2f2f2"
     style="isolation:isolate"
     id="circle76" />
  <circle
     cx="621.11578"
     cy="328.03952"
     r="11.5653"
     fill="#f2f2f2"
     style="isolation:isolate"
     id="circle78" />
  <path
     d="m 657.91002,334.05874 a 1.2861,1.2861 0 0 1 -1.02908,-0.5147 l -3.15519,-4.207 a 1.286452,1.286452 0 1 1 2.05837,-1.54368 l 2.06424,2.75211 5.30172,-7.95248 a 1.2865037,1.2865037 0 0 1 2.14087,1.42725 l -6.31038,9.46558 a 1.28705,1.28705 0 0 1 -1.03474,0.57249 z"
     fill="#ffffff"
     id="path80" />
  <path
     d="m 522.5505,255.48011 a 7.259212,7.259212 0 0 0 -1.99958,-10.95006 l 4.68216,-25.36832 -12.34468,5.22618 -2.55369,23.28895 a 7.2985387,7.2985387 0 0 0 12.21579,7.80324 z"
     fill="#ffb6b6"
     id="path90"
     style="stroke-width:0.775368" />
  <path
     d="m 530.08457,180.39634 -3.92336,-13.18901 -27.66513,-43.16473 a 20.430884,20.430884 0 0 0 -5.43533,-4.48163 20.595324,20.595324 0 0 0 -26.88976,29.97573 19.167306,19.167306 0 0 0 1.88414,2.24856 l 35.82976,36.95404 2.03921,2.109 3.22553,8.15687 1.27161,37.19441 1.13979,0.27137 10.04101,2.36488 1.40342,0.33341 2.34937,-12.15002 1.47319,-5.80751 a 61.674319,61.674319 0 0 0 1.88415,-15.15069 c 0,-1.57399 -0.0543,-3.15574 -0.17834,-4.72974 z"
     fill="#3f3d56"
     id="path92"
     style="stroke-width:0.775368" />
  <polygon
     points="539.105,544.946 526.715,544.946 520.821,497.156 539.107,497.157 "
     fill="#ffb6b6"
     id="polygon94"
     transform="matrix(0.77536797,0,0,0.77536797,74.048186,14.34569)" />
  <path
     d="m 491.7969,433.74007 -10.25036,-4.16373 -0.3024,-0.12406 -5.66018,4.28779 a 12.051133,12.051133 0 0 0 -12.04147,11.52972 c -0.0155,0.17058 -0.0155,0.34891 -0.0155,0.52725 v 0.39544 h 30.97595 v -12.45241 z"
     fill="#2f2e41"
     id="path96"
     style="stroke-width:0.775368" />
  <polygon
     points="515.51,520.231 504.831,526.514 475.514,488.316 491.274,479.043 "
     fill="#ffb6b6"
     id="polygon98"
     transform="matrix(0.77536797,0,0,0.77536797,74.048186,14.34569)" />
  <path
     d="m 479.47629,422.59804 -1.12425,-1.91516 -4.07068,-6.91629 -2.11675,1.24835 -0.21711,0.12406 -10.94819,1.61276 -0.3257,0.0466 -2.69828,6.56737 a 12.056538,12.056538 0 0 0 -4.28003,16.50758 l 0.2016,0.33341 26.69592,-15.70896 z"
     fill="#2f2e41"
     id="path100"
     style="stroke-width:0.775368" />
  <path
     d="m 504.21998,210.34781 c 4.50411,13.5843 4.0279,28.32969 -1.08263,44.1555 l -1.33385,54.40349 -4.28436,34.3168 a 58.759633,58.759633 0 0 1 3.90995,21.06961 c -0.0182,18.88171 -1.28777,45.70622 -7.72458,58.30745 h -15.23253 l -3.43854,-56.11602 -4.10331,-28.21424 -0.50585,-30.23403 -0.44119,-26.36895 -16.5626,24.21932 -16.09431,23.53454 15.99695,26.98358 13.95663,43.4206 -14.73199,12.40589 -16.71219,-31.68419 -8.09959,-9.41031 -22.11038,-47.86403 1.98704,-6.66424 a 157.65514,157.65514 0 0 1 17.66504,-38.94659 v 0 l 21.99253,-51.04281 z"
     fill="#2f2e41"
     id="path102"
     style="stroke-width:0.775368" />
  <path
     d="m 506.17221,205.81288 -2.5122,-5.02438 0.22486,-12.04922 0.75211,-40.73783 a 39.081833,39.081833 0 0 0 -11.57625,-28.4405 38.272403,38.272403 0 0 0 -7.41251,-5.76099 l -5.39656,-3.22553 -2.7293,-6.93179 -25.16844,0.61254 -0.0543,6.72245 -0.0233,2.36487 -9.01753,14.37532 0.008,0.062 0.18609,26.16091 0.37218,52.07372 2.48893,8.07158 -3.76054,9.39746 2.00045,5.98584 1.59726,-0.25587 53.79503,-8.59883 a 10.562334,10.562334 0 0 0 5.83852,-4.6367 9.6090267,9.6090267 0 0 0 0.69008,-1.34914 10.581989,10.581989 0 0 0 -0.30239,-8.81594 z"
     fill="#3f3d56"
     id="path104"
     style="stroke-width:0.775368" />
  <circle
     cx="462.63046"
     cy="72.150177"
     fill="#ffb6b6"
     id="circle106"
     r="22.870106"
     style="stroke-width:0.775368" />
  <path
     d="m 476.8572,91.100722 c 2.41557,-1.699537 4.86156,-4.934938 6.49086,-7.35697 a 27.461983,27.461983 0 0 0 3.93673,-21.982721 8.3731987,8.3731987 0 0 0 -2.02426,-4.005652 3.6004754,3.6004754 0 0 0 -4.16206,-0.760062 7.505182,7.505182 0 0 0 -0.38715,-5.950251 13.226832,13.226832 0 0 0 -3.97461,-4.60305 22.027204,22.027204 0 0 0 -22.46607,-2.345193 c -1.41928,0.681649 0.85617,-4.462755 -0.63219,-3.949136 a 6.0958887,6.0958887 0 0 1 -4.60172,-0.01721 c -1.41603,-0.688387 -6.01892,3.581743 -5.50002,2.095223 a 6.9456145,6.9456145 0 0 0 -1.44761,11.653005 c 1.19401,0.979895 2.67547,1.533151 3.97943,2.361127 a 11.330685,11.330685 0 0 1 3.6677,14.572747 15.011388,15.011388 0 0 1 4.39117,-1.980879 5.0808545,5.0808545 0 0 1 4.53651,1.024943 5.7083133,5.7083133 0 0 1 1.44247,4.28839 c -0.0298,1.552558 -0.37782,3.08653 -0.39777,4.639243 -0.0586,4.556063 -2.37795,13.248612 1.18667,15.620564 2.81309,1.871815 12.66379,-0.983656 15.96192,-3.304115 z"
     fill="#2f2e41"
     id="path108"
     style="stroke-width:0.775368" />
  <path
     d="m 335.57895,127.77774 a 7.2591888,7.2591888 0 0 0 10.98522,1.79634 l 22.31975,12.93464 -0.77398,-13.38301 -21.07653,-10.23119 a 7.2985387,7.2985387 0 0 0 -11.45446,8.88322 z"
     fill="#ffb6b6"
     id="path110"
     style="stroke-width:0.775368" />
  <path
     d="m 479.71665,123.7712 a 20.602109,20.602109 0 0 0 -27.41701,-12.79357 c -0.24812,0.10079 -0.49624,0.20934 -0.74435,0.3179 l -49.515,22.53994 -19.27565,-2.28733 -24.95134,-8.71514 -0.6358,0.98472 -5.60591,8.66086 -0.78313,1.20957 26.76571,15.82526 2.83784,0.58928 a 19.177285,19.177285 0 0 1 12.15777,8.27318 l 10.37443,3.41162 40.52848,-7.84673 22.71828,-4.40409 1.28711,-0.24811 a 20.654167,20.654167 0 0 0 13.23553,-19.26014 20.447756,20.447756 0 0 0 -0.97696,-6.25722 z"
     fill="#3f3d56"
     id="path112"
     style="stroke-width:0.775368" />
  <path
     d="M 297.25099,279.93555 H 85.90334 a 4.63111,4.63111 0 0 0 0,9.26221 h 211.3477 a 4.63111,4.63111 0 1 0 0,-9.26221 z"
     fill="#e6e6e6"
     id="path116" />
  <circle
     cx="375.02066"
     cy="284.91306"
     fill="#039be5"
     id="circle118"
     r="11.5653" />
  <path
     d="m 373.44291,290.93228 a 1.2861,1.2861 0 0 1 -1.02908,-0.5147 l -3.1552,-4.207 a 1.286453,1.286453 0 1 1 2.05838,-1.54367 l 2.06423,2.7521 5.30172,-7.95247 a 1.2865037,1.2865037 0 1 1 2.14087,1.42725 l -6.31038,9.46557 a 1.287,1.287 0 0 1 -1.03474,0.57249 z"
     fill="#ffffff"
     id="path120" />
  <circle
     cx="336.64865"
     cy="284.91306"
     r="11.5653"
     fill="#f2f2f2"
     style="isolation:isolate"
     id="circle122" />
  <path
     d="M 296.25099,335.93555 H 84.90334 a 4.63111,4.63111 0 0 0 0,9.26221 h 211.3477 a 4.631105,4.631105 0 1 0 0,-9.26221 z"
     fill="#e6e6e6"
     id="path124" />
  <circle
     cx="374.02066"
     cy="340.91306"
     fill="#f2f2f2"
     style="isolation:isolate"
     id="circle126"
     r="11.5653" />
  <path
     d="m 372.44291,346.93228 a 1.2861,1.2861 0 0 1 -1.02908,-0.5147 l -3.1552,-4.207 a 1.286453,1.286453 0 1 1 2.05838,-1.54367 l 2.06423,2.7521 5.30172,-7.95247 a 1.2865037,1.2865037 0 1 1 2.14087,1.42725 l -6.31038,9.46557 a 1.287,1.287 0 0 1 -1.03474,0.57249 z"
     fill="#ffffff"
     id="path128" />
  <circle
     cx="335.64865"
     cy="340.91306"
     r="11.5653"
     fill="#f2f2f2"
     style="isolation:isolate"
     id="circle130" />
  <path
     d="m 641.23475,443.95716 c 7.97,-18.67 13.59,-38.99 10.93,-59.1 a 65.244,65.244 0 0 0 -5.88,-19.65 59.55844,59.55844 0 0 0 -9.22,-13.93 8.35,8.35 0 0 0 -10.57,-1.7 c -0.26,0.15 -0.52,0.31 -0.76,0.48 a 8.751,8.751 0 0 0 -2.97,3.63 6.28289,6.28289 0 0 0 -0.31,0.86005 8.93814,8.93814 0 0 0 -0.29,3.79 95.57036,95.57036 0 0 1 -0.9,31.11 q -0.765,3.915 -1.87,7.76 a 77.51261,77.51261 0 0 0 -5.27,-5.93 65.32224,65.32224 0 0 0 -16.45,-12.12 h -0.01 c -0.03,-0.02 -0.05,-0.03 -0.08,-0.05 -7.38,-3.76 -17.22,-2.2 -22.97,0.36 -0.38,0.16 -0.74,0.34 -1.09,0.51 -3,1.54 -4.49,3.31 -3.21,4.47 0.29,0.25 0.58,0.51 0.85,0.77 a 95.69757,95.69757 0 0 1 21.06,28.34 v 0.01 a 93.30453,93.30453 0 0 1 5.21,13.16 c 1.93,6.23 3.53,13.14 7.3,18.22 a 16.379,16.379 0 0 0 1.25,1.53 l 33.68,-0.27 c 0.08,-0.04 0.15,-0.07 0.23,-0.11 l 1.34,0.05 c -0.05,-0.24 -0.11005,-0.48 -0.17,-0.72 v -0.02 c -0.03,-0.13 -0.07,-0.27 -0.1,-0.39 -0.03,-0.1 -0.05,-0.19 -0.07,-0.27 0.06,-0.15 0.12,-0.29 0.19,-0.44 0.05,-0.12007 0.10001,-0.23005 0.15,-0.35005 z"
     fill="#f0f0f0"
     id="path2" />
  <path
     d="m 641.06471,445.40717 a 0.44053,0.44053 0 0 1 -0.69,0.3 18.26524,18.26524 0 0 0 -4.51,-2.39 c -0.01,-0.01 -0.01,0 -0.01,0 a 37.984,37.984 0 0 0 -6.24,-1.66 c -0.02,0 -0.03,-0.01 -0.05,-0.01 -0.86,-0.17 -1.72,-0.32 -2.58,-0.48 -4.18,-0.77 -8.43,-1.7 -12.05,-4.08 a 12.2766,12.2766 0 0 1 -5.63,-8.33 c -0.53,-3.35 0.13995,-6.72 0.42,-10.06 0.02,-0.24 0.04,-0.49 0.05,-0.73 0.02,-0.31 0.03,-0.61 0.03,-0.91 a 19.40059,19.40059 0 0 0 -1.78,-8.8 34.90484,34.90484 0 0 0 -6.36,-8.94 q -1.995,-2.145 -4.16,-4.13 h -0.01 c -0.06,-0.06 -0.11005,-0.11 -0.17,-0.16 0,-0.01 -0.01,-0.02 -0.02,-0.03 a 81.07415,81.07415 0 0 0 -20.75,-13.7 c -0.27,-0.12006 -0.55005,-0.25 -0.83,-0.37006 -0.73,-0.32995 -1.46,-0.63995 -2.2,-0.94995 0.35,-0.17 0.71,-0.35 1.09,-0.51 a 82.98906,82.98906 0 0 1 23.09,14.66 c 0.23,0.2 0.46,0.41 0.68,0.62 q 2.59506,2.40006 4.94,5.03 a 32.50591,32.50591 0 0 1 5.99,9.16 20.41207,20.41207 0 0 1 1.39,8.58 c -0.02,0.56 -0.06,1.12 -0.11,1.69 -0.31,3.37 -1,6.85 -0.23,10.22 0.88,3.84 3.86,6.52 7.32,8.16 a 31.63562,31.63562 0 0 0 7.16,2.22 c 5.1,1.07 10.37,1.59 14.83,4.33 h 0.01 c 0.07,0.05 0.14,0.09 0.19995,0.13 0.01,0 0.01,0 0.01,0.01 a 9.48583,9.48583 0 0 1 0.93,0.63 c 0.02,0.01 0.04,0.03 0.06,0.04 a 0.57133,0.57133 0 0 1 0.08,0.07 0.44417,0.44417 0 0 1 0.10005,0.39001 z"
     fill="#ffffff"
     id="path4" />
  <path
     d="m 598.1219,395.09011 a 12.20505,12.20505 0 0 0 -0.4048,-15.79909 c -0.39207,-0.43523 -1.08681,0.15359 -0.69422,0.58939 a 11.30162,11.30162 0 0 1 0.34651,14.69723 c -0.3699,0.45429 0.38472,0.96417 0.75251,0.51247 z"
     fill="#ffffff"
     id="path6" />
  <path
     d="m 610.09449,417.02642 a 23.52427,23.52427 0 0 1 -16.57968,-4.36164 c -0.47343,-0.34593 -0.98534,0.407 -0.51248,0.75251 a 24.46876,24.46876 0 0 0 17.26189,4.50361 c 0.58286,-0.0695 0.41,-0.96357 -0.16973,-0.89448 z"
     fill="#ffffff"
     id="path8" />
  <path
     d="m 641.23475,443.95716 a 0.42584,0.42584 0 0 1 -0.15,0.35 0.57519,0.57519 0 0 1 -0.27,0.11 0.39112,0.39112 0 0 1 -0.46,-0.29 c -1.38,-4.64 -4.76,-8.2 -7.96,-11.69 -2.88,-3.13 -5.71,-6.43 -7.16,-10.5 a 12.279,12.279 0 0 1 0.52,-10.05 17.72487,17.72487 0 0 1 1.73,-2.62 c 1.43,-1.82 3.13,-3.44 4.66,-5.16 0.16,-0.18005 0.32,-0.37 0.47,-0.55 0.21,-0.23 0.4,-0.47 0.58,-0.71 a 19.34546,19.34546 0 0 0 3.87,-8.1 34.7963,34.7963 0 0 0 0.31,-10.97 q -0.29993,-2.91 -0.83,-5.78 c -0.02,-0.09 -0.03,-0.17 -0.05,-0.25 a 80.77148,80.77148 0 0 0 -8.32,-23.47 c -0.15,-0.27 -0.29,-0.54 -0.44,-0.8 -0.64,-1.16 -1.3,-2.30005 -2,-3.42 0.24,-0.17 0.5,-0.33 0.76,-0.48 a 82.83115,82.83115 0 0 1 5.97,11.63 81.254,81.254 0 0 1 4.87,16.05 c 0.07,0.3 0.12,0.61 0.17,0.91 0.42,2.31 0.73,4.65 0.92,6.98 a 32.336,32.336 0 0 1 -0.74,10.92 20.376,20.376 0 0 1 -4.07,7.71 q -0.51,0.645 -1.08,1.26 c -1.52,1.66 -3.2,3.27 -4.57,5.08 a 15.11022,15.11022 0 0 0 -1.77,2.94 c -1.61,3.6 -0.85,7.54 0.93,10.92 3.22,6.15 9.36005,10.34 12.63,16.37 a 18.607,18.607 0 0 1 1.46,3.49 0.50132,0.50132 0 0 1 0.02,0.12 z"
     fill="#ffffff"
     id="path82" />
  <path
     d="m 637.09099,378.27268 a 12.20506,12.20506 0 0 0 9.18893,-12.85841 c -0.051,-0.58356 -0.96023,-0.53171 -0.90915,0.0526 a 11.30161,11.30161 0 0 1 -8.57207,11.94353 c -0.56886,0.14 -0.27332,1.00146 0.29229,0.86225 z"
     fill="#ffffff"
     id="path84" />
  <path
     d="m 633.44327,402.9959 a 23.52433,23.52433 0 0 1 -10.61193,-13.46465 c -0.16973,-0.56123 -1.03177,-0.26827 -0.86225,0.29229 a 24.4688,24.4688 0 0 0 11.07117,13.98874 c 0.5072,0.29546 0.90747,-0.52252 0.403,-0.81638 z"
     fill="#ffffff"
     id="path86" />
  <path
     d="m 628.28474,354.22718 c -0.04,0.02 -0.07,0.03 -0.11,0.05 a 7.70346,7.70346 0 0 1 -5.72,0.27 6.28289,6.28289 0 0 1 0.31,-0.86005 6.83258,6.83258 0 0 0 4.97,-0.21 c 0.09,-0.03 0.17,-0.07 0.26,-0.11005 a 0.4575,0.4575 0 0 1 0.58,0.28 0.48084,0.48084 0 0 1 -0.29,0.5801 z"
     fill="#ffffff"
     id="path88" />
  <path
     d="M 671.79217,448.14689 H 323.80412 a 1.19068,1.19068 0 1 1 0,-2.38136 h 347.98805 a 1.19068,1.19068 0 0 1 0,2.38136 z"
     fill="#cccccc"
     id="path114" />
</svg>
