<svg xmlns="http://www.w3.org/2000/svg" width="1200.001" height="693.154" data-name="Layer 1"><g transform="translate(9)"><path fill="#3f3d56" d="M411.171 216.374h2v107h-2zm0 138.851h2v94.149h-2zm-3 109.149h155v2h-155zm-66 27h2v85h-2zm18 100h235v2h-235zm429-443h2v101h-2zm-162.034 117h147.034v2H627.137zm-16.966 16h2v135h-2z"/><path fill="#3f3d56" d="M412.171 356.374a17 17 0 1 1 17-17 17.02 17.02 0 0 1-17 17m0-32a15 15 0 1 0 15 15 15.017 15.017 0 0 0-15-15m-68 285a17 17 0 1 1 17-17 17.02 17.02 0 0 1-17 17m0-32a15 15 0 1 0 15 15 15.017 15.017 0 0 0-15-15"/><circle cx="413.171" cy="465.375" r="16" fill="#039be5"/><path fill="#3f3d56" d="M826.171 338.374h166v2h-166zm-17 16.851h2v94.149h-2zm-149 109.149h133v2h-133zm234 9h138v2h-138zm-16 18h2v85h-2zm-251 100h235v2h-235zm-17-77h2v62h-2z"/><circle cx="810.171" cy="339.375" r="16" fill="#039be5"/><path fill="#3f3d56" d="M790.171 282.374a17 17 0 1 1 17-17 17.02 17.02 0 0 1-17 17m0-32a15 15 0 1 0 15 15 15.017 15.017 0 0 0-15-15m-179 32a17 17 0 1 1 17-17 17.02 17.02 0 0 1-17 17m0-32a15 15 0 1 0 15 15 15.017 15.017 0 0 0-15-15"/><path fill="#3f3d56" d="M659.268 303.318h-96.592a4.03 4.03 0 0 1-4.024-4.025V198.698a4.03 4.03 0 0 1 4.024-4.025h96.592a4.03 4.03 0 0 1 4.024 4.025v100.595a4.03 4.03 0 0 1-4.024 4.025m-96.592-107.035a2.417 2.417 0 0 0-2.414 2.415v100.595a2.417 2.417 0 0 0 2.414 2.415h96.592a2.417 2.417 0 0 0 2.415-2.415V198.698a2.417 2.417 0 0 0-2.415-2.415z" style="stroke-width:.912166"/><rect width="104.641" height="108.645" x="558.652" y="194.673" ry="4.014" style="fill:#fff;fill-opacity:1;stroke:none;stroke-width:7.64834"/><path fill="#e6e6e6" d="M583.258 215.418a2.732 2.732 0 0 0 0 5.464h55.428a2.732 2.732 0 0 0 0-5.464zm0 16.098a2.732 2.732 0 1 0 0 5.465h55.428a2.732 2.732 0 1 0 0-5.465z" style="stroke-width:.912166"/><path fill="#039be5" d="M610.972 282.573a17.199 17.199 0 1 1 17.2-17.199 17.22 17.22 0 0 1-17.2 17.2" style="stroke-width:.912166"/><path fill="#3f3d56" d="M878.171 492.374a17 17 0 1 1 17-17 17.02 17.02 0 0 1-17 17m0-32a15 15 0 1 0 15 15 15.017 15.017 0 0 0-15-15"/><circle cx="878.171" cy="592.375" r="16" fill="#039be5"/><path fill="#3f3d56" d="M611.171 609.374a17 17 0 1 1 17-17 17.02 17.02 0 0 1-17 17m0-32a15 15 0 1 0 15 15 15.017 15.017 0 0 0-15-15m198-95a17 17 0 1 1 17-17 17.02 17.02 0 0 1-17 17m0-32a15 15 0 1 0 15 15 15.017 15.017 0 0 0-15-15m-465.001-8.999a20 20 0 1 0 20 20 20.06 20.06 0 0 0-20-20m0 6a6 6 0 1 1-6 6 6.02 6.02 0 0 1 6-6m0 28.884a14.57 14.57 0 0 1-12-6.404c.097-4 8-6.202 12-6.202s11.905 2.202 12 6.202a14.6 14.6 0 0 1-12 6.404m714-22.884a20 20 0 1 0 20 20 20.06 20.06 0 0 0-20-20m0 6a6 6 0 1 1-6 6 6.02 6.02 0 0 1 6-6m0 28.884a14.57 14.57 0 0 1-12-6.404c.097-4 8-6.202 12-6.202s11.905 2.202 12 6.202a14.6 14.6 0 0 1-12 6.404"/><path fill="#039be5" d="M620.003 428.996a37.492 37.492 0 1 0-3.53 73.46 37.49 37.49 0 0 0 30.838-28.01c5.014-20.092-7.214-40.443-27.308-45.45"/><path fill="#e6e6e6" d="M255.83 604.18c-2.846 25.877-152.226 23.704-152-.002 2.845-25.874 152.226-23.702 152 .002"/><path fill="#ffb8b8" d="m220.704 521.885-13.12 17.157 6.056 13.12 11.1-1.009 7.066-23.213zm-51.232 47.375-.24 9.142 17.158 1.01V568.31z"/><path fill="#2f2e41" d="m175.288 402.794 4.037 80.74-10.092 87.803 30.277 4.037 19.176-111.016 6.055-75.694z"/><path fill="#2f2e41" d="M127.854 373.526s-12.111 79.73 13.12 105.97c25.231 26.241 59.545 72.666 59.545 72.666l24.222-30.277-61.564-65.6 12.111-44.408 49.453-23.212-8.074-55.509-72.665-1.009z"/><circle cx="187.399" cy="166.631" r="22.203" fill="#ffb8b8"/><path fill="#ffb8b8" d="M168.224 171.677s-1.01 31.287-6.056 35.324 18.166 21.194 18.166 21.194l15.14-24.222V181.77z"/><path fill="#d0cde1" d="m157.122 343.248 47.434 1.01 6.056-126.156-15.14-18.166-17.156 14.13-12.253-18.503-6.923 9.42-10.092 28.258z"/><path fill="#2f2e41" d="m229.787 221.13 8.074-1.01s2.019 1.01 3.028 8.075c1.01 7.065 13.12 69.638 13.12 69.638l-16.148 76.702-18.166-24.222 11.102-42.388-11.102-42.388zm-95.878 121.11-4.037-25.232 2.019-22.203 7.065-13.12-12.111-61.565h-6.056l-15.138 81.75 14.129 63.582zm82.758 205.885s-6.055-2.018-6.055 2.019 4.037 16.148 4.037 16.148-6.056 37.342 3.027 35.323 16.148-19.175 17.158-24.222c1.009-5.046 6.055-31.286 6.055-31.286s8.074-19.176 3.028-20.185-19.176-5.046-19.176-5.046 8.074 25.23-8.074 27.25M187.4 579.412s-16.149-10.093-19.176-2.019a84.8 84.8 0 0 0-4.038 18.167s-4.037 13.12 12.111 11.101 14.13-2.018 15.14-8.074c1.008-6.055-4.038-19.175-4.038-19.175m-13.12-412.782 4.037-1.008s3.028-17.157 10.092-15.139c7.065 2.019 25.232 4.037 25.232-4.037s-17.158-15.139-27.25-14.13c-10.093 1.01-27.25 4.038-26.24 19.176 1.009 15.139 7.521 29.866 7.521 29.866l.526-8.976z"/><path fill="#d0cde1" d="m195.473 226.176-17.157-12.11 17.157-14.13 5.957 7.147zm-32.296-1.009 15.139-11.102-12.111-18.166-7.065 9.083z"/><path fill="#2f2e41" d="M236.852 220.12 204.556 207l-7.569-5.55-22.708 100.42-15.139-45.416 4.542-58.032-41.884 21.699 14.13 68.628 2.018 26.24-6.055 21.195s-21.194 15.139-14.13 31.287c7.065 16.147 15.139 17.157 15.139 17.157s34.314-32.296 36.333-40.37 5.046-22.203 5.046-22.203 17.157 64.591 37.342 63.582c20.185-1.01 20.185-22.203 20.185-22.203l-5.046-22.204-8.074-23.212 4.037-38.352z"/><g transform="translate(372.432 130.731)scale(.334)"><path fill="#f1f1f1" d="M232 116a115.85 115.85 0 0 1-49.69 95.19 114.5 114.5 0 0 1-13.55 8.15c-1.56.8-3.13 1.56-4.73 2.28-1.44.66-2.89 1.28-4.36 1.87a116.4 116.4 0 0 1-57.57 7.68q-5.07-.6-10.01-1.65l-.43-.09a113.3 113.3 0 0 1-20.15-6.27A116.012 116.012 0 1 1 232 116"/><path fill="#2f2e41" d="M137.36 94.35c-.1-.12-.21-.23-.32-.34A33.444 33.444 0 0 0 90 93.53c-.07.06-.13.12-.19.18-.08.07-.15.14-.22.21a33.43 33.43 0 0 0-9.82 23.68v21a4.507 4.507 0 0 0 4.5 4.5h58a4.507 4.507 0 0 0 4.5-4.5v-21a33.35 33.35 0 0 0-9.41-23.25"/><circle cx="114.614" cy="118.331" r="24.561" fill="#ffb7b7"/><path fill="#2f2e41" d="m140.43 116.24-2.9-20.26a2.54 2.54 0 0 0-.89-1.59 2.6 2.6 0 0 0-.53-.33c-14.85-6.95-29.91-6.95-44.76-.02a2.5 2.5 0 0 0-.55.35c-.06.05-.12.11-.18.17a2.53 2.53 0 0 0-.7 1.51l-1.94 20.29a2.5 2.5 0 0 0 .64 1.92 2.48 2.48 0 0 0 1.44.78 2 2 0 0 0 .41.04h4.92a2.52 2.52 0 0 0 2.27-1.44l2.13-4.56a1.494 1.494 0 0 1 2.84.45l.42 3.36a2.51 2.51 0 0 0 2.48 2.19h32.43a2.4 2.4 0 0 0 1.21-.32 2.5 2.5 0 0 0 .68-.54 2.5 2.5 0 0 0 .58-2"/><path fill="#ffb7b7" d="m175.35 187.89 6.96 23.3a114.5 114.5 0 0 1-13.55 8.15c-1.56.8-3.13 1.56-4.73 2.28l-7.21-30.91-2.8-11.99 18-2zm-82.83-3.87-.6 31.48-.26 13.93a113.3 113.3 0 0 1-20.15-6.27l2.39-29.82.6-7.52z"/><path fill="#2f2e41" d="m175.35 187.89-18.08 2.71.22 2.97 2.18 29.92a116.4 116.4 0 0 1-57.57 7.68q-5.07-.6-10.01-1.65c1.48-6.22 2.76-11.82 1.18-12.92a12 12 0 0 1-1.35-1.1c-7.37-7.03-4.65-22.9-4.65-22.9l-13.37.74-4.63.26s2-32 11-32h11l53-5s15-5 19 2c2.1 3.67 5.84 11.45 8.93 18.03 2.8 5.98 5.07 10.97 5.07 10.97z"/><circle cx="116" cy="229.984" r="26.436" fill="#6c63ff" style="fill:#039be5;fill-opacity:1"/><path fill="#fff" d="m113.481 241.144-7.913-10.174 4.602-3.579 3.746 4.817 12.657-13.36 4.232 4.009z"/></g><g transform="translate(836.114 296.282)scale(.3467)"><path fill="#f1f1f1" d="M641.993 117.278a115.85 115.85 0 0 1-48.883 93.352c-.26.18-.53.37-.8.56-.28.2-.57.4-.86.59q-2.52 1.74-5.14 3.33-3.69 2.25-7.55 4.23c-.08.04-.17.08-.25.12q-2.22 1.14-4.48 2.16c-.05.02-.09.04-.14.06-.35.16-.72.33-1.08.48-2.79 1.24-5.64 2.37-8.54 3.37q-3.705 1.305-7.52 2.34a114 114 0 0 1-15.85 3.18 116 116 0 0 1-13.76.94c-.38.01-.76.01-1.14.01-2.51 0-5.01-.08-7.48-.24-2.16-.14-4.3-.33-6.42-.59-3.27-.39-6.5-.91-9.68-1.59-.14-.02-.28-.05-.42-.08-.11-.02-.23-.05-.34-.07-3.2-.67-6.35-1.49-9.44-2.43q-4.365-1.32-8.57-2.98a107 107 0 0 1-7.38-3.2c-.5-.23-.99-.47-1.48-.71-1.66-.81-3.3-1.66-4.9-2.56q-2.895-1.605-5.69-3.37c-2.35-1.48-4.65-3.04-6.88-4.69A116.005 116.005 0 0 1 527.65.012c63.608.883 115.03 53.655 114.343 117.266"/><path fill="#cbcbcb" d="M501.66 229.43c-3.2-.67-6.35-1.49-9.44-2.43l10.61-65.79 10.99-.34 19.93-.63 10.22-.32s7.25 31.86 12.78 67.95a114 114 0 0 1-15.85 3.18 116 116 0 0 1-13.76.94c-.38.01-.76.01-1.14.01-2.51 0-5.01-.08-7.48-.24-2.16-.14-4.3-.33-6.42-.59-3.27-.39-6.5-.91-9.68-1.59-.14-.02-.28-.05-.42-.08-.11-.02-.23-.05-.34-.07"/><path fill="#2f2e41" d="M502.42 229.58c-.14-.02-.28-.05-.42-.08-.11-.02-.23-.05-.34-.07-3.2-.67-6.35-1.49-9.44-2.43q-4.365-1.32-8.57-2.98a107 107 0 0 1-7.38-3.2c-.5-.23-.99-.47-1.48-.71l-.88-49.26 27-11.57s.09.72 12.91 1.59c2.44 7.96-11.4 68.71-11.4 68.71m80.7-61.06-5.09 26.75.48 24.19q-2.22 1.14-4.48 2.16c-.05.02-.09.04-.14.06-.35.16-.72.33-1.08.48-2.79 1.24-5.64 2.37-8.54 3.37q-3.705 1.305-7.52 2.34a114 114 0 0 1-15.85 3.18 116 116 0 0 1-13.76.94l-.53-42.87c-1.12-13.82 2.59-22.96 7.14-28.88 24.25-3.24 23.71-3.53 23.71-3.53l25.71 11.57z"/><path fill="#2f2e41" d="m485.48 174.71-1.83 49.31a107 107 0 0 1-7.38-3.2c-.5-.23-.99-.47-1.48-.71-1.66-.81-3.3-1.66-4.9-2.56q-2.895-1.605-5.69-3.37l9.71-43.33zm107.63 35.92c-.26.18-.53.37-.8.56-.28.2-.57.4-.86.59q-2.52 1.74-5.14 3.33-3.69 2.25-7.55 4.23c-.08.04-.17.08-.25.12q-2.287 1.174-4.617 2.222l-.003-.002-1.83-49.48 11.06-3.68.51-.17z"/><ellipse cx="805.224" cy="260.493" fill="#9f616a" rx="28.603" ry="28.529" transform="rotate(-73.66 568.39 373.869)"/><path fill="#2f2e41" d="M497.492 121.875v-11.131s-8.977-10.573.898-13.236c0 0 2.693-26.632 26.032-14.204 0 0 32.316-5.326 28.725 13.316 0 0 8.08-4.867 5.386 7.562l-5.208 20.02s2.515-13.225-5.564-15l-4.488-2.664s-12.567 12.428-31.418-2.663c0 0-8.08-1.928-7.182 6.061.898 7.99-7.181 11.939-7.181 11.939"/><circle cx="526" cy="227.921" r="26.436" fill="#6c63ff" style="fill:#039be5;fill-opacity:1"/><path fill="#fff" d="m540.805 220.794-17.324 18.287-7.913-10.174 4.602-3.579 3.746 4.817 12.657-13.36z"/></g><path fill="#f1f1f1" d="M827.188 108.386a37.97 37.97 0 0 1-16.284 31.194 9 9 0 0 1-.282.193q-.826.57-1.684 1.092-1.21.737-2.474 1.386a34 34 0 0 1-1.55.747c-.131.059-.266.121-.4.177-.914.406-1.848.777-2.799 1.104a37.4 37.4 0 0 1-7.658 1.81 38 38 0 0 1-4.883.31 38 38 0 0 1-4.555-.271 37 37 0 0 1-3.31-.548l-.111-.023a37 37 0 0 1-6.604-2.054 35 35 0 0 1-1.717-.767q-1.066-.501-2.09-1.072a38.017 38.017 0 1 1 56.4-33.278" style="stroke-width:.327704"/><circle cx="788.13" cy="109.266" r="8.489" fill="#ffb8b8" style="stroke-width:.327704"/><path fill="#cbcbcb" d="M784.619 146.128a37 37 0 0 1-3.31-.548l1.032-23.227.148-.154 2.114-2.232h6.72l2.481 2.402.21.206 5.306 5.083 2.395 16.621a37.4 37.4 0 0 1-7.658 1.81 38 38 0 0 1-4.883.31 38 38 0 0 1-4.555-.271" style="stroke-width:.327704"/><path fill="#2f2e41" d="M772.877 142.736q-1.066-.502-2.09-1.072l-.115-10.47.8-.488.029-.013 9.074-5.512 1.904-3.094.01.112.56 6.521a113.6 113.6 0 0 1 3.674 17.601 37 37 0 0 1-2.104-.193 37 37 0 0 1-3.31-.548l-.111-.023a37 37 0 0 1-6.604-2.054 35 35 0 0 1-1.717-.767m28.838 1.544a37.4 37.4 0 0 1-7.658 1.808 30 30 0 0 1-.397-6.406c.708-11.316-.924-17.595-.216-17.595l.36.282 4.454 3.52 5.863 2.15h.003l4.034 1.477.71.262v.338c.004 1.167.01 5.25.07 10.749q-1.21.737-2.475 1.386-.764.393-1.55.747c-.13.059-.265.121-.4.177-.914.406-1.848.777-2.798 1.104zM780.1 111.922s.72-1.267.553-5.498c-.168-4.231 6.275-1.838 11.659-2.242s4.244 7.064 4.244 7.064.389-.444 1.22-4.048c.832-3.604-1.056-7.195-1.056-7.195-.556-3.788-3.553-2.574-3.553-2.574 1.443.562 1.166 1.763 1.166 1.763-1.222-2.142-4.219-.928-4.219-.928-3.997-2.508-8.048.795-8.048.795-4.829 1.096-1.997 4.936-1.997 4.936-4.856 2.454.03 7.927.03 7.927" style="stroke-width:.327704"/><path fill="#2f2e41" d="M766.667 139.023c.125-2.88.18-4.739.115-4.998-.337-1.35 4.27-3.159 4.69-3.32l.029-.012.937.501.44 11.542q-1.067-.502-2.091-1.072a38 38 0 0 1-4.12-2.641m42.271 1.842q-1.21.737-2.474 1.386a34 34 0 0 1-1.55.747c-.131.059-.266.121-.4.177l-1.475-14.56.862-.63.22.053h.003c.691.17 2.815.734 4.034 1.478a2.5 2.5 0 0 1 .71.6.73.73 0 0 1 .168.518c-.04.38.616 3.985 1.586 9.14q-.826.57-1.684 1.09z" style="stroke-width:.327704"/><circle cx="789.174" cy="146.394" r="8.663" fill="#6c63ff" style="fill:#039be5;fill-opacity:1;stroke-width:.327704"/><path fill="#fff" d="m788.349 150.052-2.594-3.335 1.509-1.172 1.227 1.578 4.148-4.378 1.387 1.314z"/><path fill="#3f3d56" d="M659.268 303.318h-96.592a4.03 4.03 0 0 1-4.024-4.025V198.698a4.03 4.03 0 0 1 4.024-4.025h96.592a4.03 4.03 0 0 1 4.024 4.025v100.595a4.03 4.03 0 0 1-4.024 4.025m-96.592-107.035a2.417 2.417 0 0 0-2.414 2.415v100.595a2.417 2.417 0 0 0 2.414 2.415h96.592a2.417 2.417 0 0 0 2.415-2.415V198.698a2.417 2.417 0 0 0-2.415-2.415z" style="fill:#3f3d56;fill-opacity:1;stroke-width:.912166"/></g></svg>