<?xml version="1.0" encoding="UTF-8" standalone="no"?>
<svg
   data-name="Layer 1"
   width="1019.4842"
   height="436.68124"
   viewBox="0 0 1500 642.50321"
   version="1.1"
   id="svg68"
   xmlns="http://www.w3.org/2000/svg"
   xmlns:svg="http://www.w3.org/2000/svg">
  <defs
     id="defs72" />
  <g
     id="g334"
     transform="translate(240.2579,102.911)">
    <path
       d="m 314.02808,475.27364 a 9.75072,9.75072 0 1 0 -19.40734,1.28194 l -28.01439,36.68607 a 13.58254,13.58254 0 0 0 1.83575,14.91417 l 2.19759,2.56354 10.083,-2.01667 11.42794,-10.08331 -1.34463,-11.42774 14.1167,-22.18324 -0.0183,-0.0159 a 9.74283,9.74283 0 0 0 9.12363,-9.71884 z"
       transform="translate(-90.2579,-231.65939)"
       fill="#ffb9b9"
       id="path2" />
    <polygon
       points="95.549,405.331 30.041,422.968 25.468,405.984 88.8,380.265 "
       fill="#ffb8b8"
       id="polygon4" />
    <path
       d="m 105.002,663.39128 -14.7441,-54.76212 0.69264,-0.18651 a 22.07516,22.07516 0 0 1 27.054,15.57522 l 3.7e-4,10e-4 9.00509,33.44687 z"
       transform="translate(-90.2579,-231.65939)"
       fill="#2f2e41"
       id="path6" />
    <polygon
       points="157.179,365.388 117.278,420.254 103.054,409.91 136.185,350.121 "
       fill="#ffb8b8"
       id="polygon8" />
    <path
       d="m 201.1368,668.34061 -45.86612,-33.35531 0.42187,-0.58015 a 22.07517,22.07517 0 0 1 30.8348,-4.87041 l 10e-4,8.2e-4 28.01339,20.37244 z"
       transform="translate(-90.2579,-231.65939)"
       fill="#2f2e41"
       id="path10" />
    <path
       d="m 328.45025,568.36357 -35.795,-34.77263 a 18.07626,18.07626 0 0 0 -23.66833,-1.3221 l -67.58632,75.08366 6.05018,9.41084 64.53278,-43.69434 43.69437,57.13867 41.67764,-20.83841 z"
       transform="translate(-90.2579,-231.65939)"
       fill="#2f2e41"
       id="path12" />
    <path
       d="m 312.98939,575.75807 -26.21673,-2.01667 -18.986,-4.60272 a 9.75256,9.75256 0 1 0 -1.85,12.65572 l -0.003,0.0136 11.42793,4.70553 49.07181,16.80551 6.05,-4.70553 z"
       transform="translate(-90.2579,-231.65939)"
       fill="#ffb9b9"
       id="path14" />
    <polygon
       points="254.326,375.693 285.92,416.699 271.131,426.11 253.653,426.11 172.315,395.86 53.332,417.371 49.971,391.826 158.871,344.099 "
       fill="#2f2e41"
       id="polygon16" />
    <circle
       cx="254.32578"
       cy="227.13245"
       r="26.216579"
       fill="#ffb9b9"
       id="circle18" />
    <path
       d="m 412.41738,563.46316 a 150.631,150.631 0 0 1 -7.3877,46.59159 l -1.96286,6.03657 -9.4111,43.0221 -10.08328,2.68886 -7.39442,-9.41107 -14.78884,-10.7555 -10.75552,-17.47771 -9.22284,-15.367 -2.87712,-4.79967 -10.08331,-50.41649 -38.31653,-21.511 -12.77217,-2.01667 2.68889,-7.39442 11.42774,-15.46106 11.42768,-1.34449 3.36111,-2.68888 2.68888,1.34443 14.82257,5.71013 48.05688,-20.304 7.03142,1.14951 24.19988,20.16661 a 150.49912,150.49912 0 0 1 9.35064,52.23816 z"
       transform="translate(-90.2579,-231.65939)"
       fill="#cccccc"
       id="path20" />
    <polygon
       points="314.825,325.949 289.281,342.754 251.153,377.131 248.276,372.332 240.209,331.999 242.226,331.999 263.065,293.683 "
       opacity="0.1"
       style="isolation:isolate"
       id="polygon22" />
    <polygon
       points="263.065,289.649 242.226,327.965 230.126,341.41 219.371,344.099 248.276,375.693 289.281,338.721 314.825,321.915 "
       fill="#cccccc"
       id="polygon24" />
    <path
       d="m 324.19252,439.29866 -2.8405,1.09286 a 3.96532,3.96532 0 0 1 -1.06033,-5.50666 q 0.0229,-0.0339 0.0466,-0.0673 l -5.24917,-0.24564 a 39.63744,39.63744 0 0 1 59.17341,-4.76951 c 0.239,-0.8231 2.84419,0.7783 3.90783,2.40209 0.35739,-1.33937 2.8001,5.13521 3.66407,9.71188 0.4,-1.52384 1.93791,0.9362 0.59056,3.2967 0.8537,-0.12472 1.23931,2.05947 0.57843,3.27633 0.934,-0.43878 0.77654,2.16855 -0.23609,3.911 1.3327,-0.11841 -0.1137,27.33122 -20.1137,25.33122 -1.39236,-6.39749 -1,-6 -2.63957,-14.22639 -0.76312,-0.81 -1.59882,-1.54779 -2.43315,-2.28425 l -4.51259,-3.9833 c -5.2473,-4.63182 -10.02063,-10.34844 -17.01093,-12.07955 -4.80393,-1.18968 -7.84143,-1.45827 -5.22344,-6.87151 -2.36532,0.98706 -4.57411,2.45493 -6.96063,3.37169 0.0321,-0.7564 0.36561,-1.60282 0.31919,-2.35961 z"
       transform="translate(-90.2579,-231.65939)"
       fill="#2f2e41"
       id="path26" />
    <circle
       cx="267.43405"
       cy="230.15744"
       r="4.7055402"
       fill="#ffb9b9"
       id="circle28" />
    <rect
       x="137.51364"
       y="351.37595"
       width="21.61009"
       height="21.61009"
       transform="rotate(-86.18992,-20.610382,294.58566)"
       fill="#e6e6e6"
       style="isolation:isolate"
       id="rect30" />
    <path
       d="m 124.34354,362.13134 26.18282,1.74368 -1.74369,26.18282 -26.18282,-1.74368 z m 24.96862,2.80626 -23.90605,-1.59206 -1.59206,23.906 23.90605,1.59206 z"
       transform="translate(-90.2579,-231.65939)"
       fill="#cccccc"
       id="path32" />
    <rect
       x="241.00867"
       y="288.77185"
       width="21.61009"
       height="21.61009"
       transform="rotate(-12.12675,-883.75732,608.59951)"
       fill="#e6e6e6"
       style="isolation:isolate"
       id="rect34" />
    <path
       d="m 245.27842,276.50957 5.51255,25.65526 -25.65526,5.51254 -5.51254,-25.65526 z m 4.15743,24.7795 -5.0332,-23.42436 -23.42437,5.03319 5.03319,23.42438 z"
       transform="translate(-90.2579,-231.65939)"
       fill="#cccccc"
       id="path36" />
    <rect
       x="226.603"
       y="392.67407"
       width="21.610081"
       height="21.61009"
       transform="rotate(-43.12712,-100.81783,401.84427)"
       fill="#e6e6e6"
       style="isolation:isolate"
       id="rect38" />
    <path
       d="M 253.81456,385.99664 234.663,403.93538 216.72427,384.78382 235.87583,366.8451 Z m -19.09885,16.3261 17.48621,-16.37883 -16.37884,-17.48618 -17.48621,16.37884 z"
       transform="translate(-90.2579,-231.65939)"
       fill="#cccccc"
       id="path40" />
    <path
       d="M 1053.535,231.65939 H 414.15223 a 17.59849,17.59849 0 0 0 -17.59851,17.59849 v 356.2522 a 17.59854,17.59854 0 0 0 17.59851,17.59857 H 1053.535 a 17.59856,17.59856 0 0 0 17.5985,-17.59857 v -356.2522 a 17.59852,17.59852 0 0 0 -17.5985,-17.59849 z"
       transform="translate(-90.2579,-231.65939)"
       fill="#3f3d56"
       id="path42" />
    <rect
       x="329.89005"
       y="31.10145"
       width="627.3913"
       height="353.91302"
       fill="#ffffff"
       id="rect44" />
    <circle
       cx="643.04944"
       cy="15.01449"
       r="6.4347701"
       fill="#ffffff"
       id="circle46" />
    <polygon
       points="329.89,385.015 329.89,31.102 777.858,385.015 "
       fill="#f2f2f2"
       style="isolation:isolate"
       id="polygon48" />
    <circle
       cx="428.05798"
       cy="298.22424"
       r="60.306801"
       fill="#039be5"
       id="circle50" />
    <path
       d="M 531.74082,575.21 A 75.01577,75.01577 0 1 1 606.75663,500.19425 75.01578,75.01578 0 0 1 531.74082,575.21 Z m 0,-149.051 a 74.03519,74.03519 0 1 0 74.03518,74.03528 74.03518,74.03518 0 0 0 -74.03522,-74.03521 z"
       transform="translate(-90.2579,-231.65939)"
       fill="#3f3d56"
       id="path52" />
    <rect
       x="753.43695"
       y="214.96957"
       width="58.605221"
       height="12.24586"
       fill="#3f3d56"
       id="rect54" />
    <rect
       x="697.99084"
       y="148.62679"
       width="169.49744"
       height="5.24823"
       fill="#3f3d56"
       id="rect56" />
    <rect
       x="697.99084"
       y="169.24617"
       width="169.49744"
       height="5.24823"
       fill="#3f3d56"
       id="rect58" />
    <rect
       x="697.99084"
       y="189.86555"
       width="169.49744"
       height="5.24823"
       fill="#3f3d56"
       id="rect60" />
    <rect
       x="888.40149"
       y="52.281631"
       width="24.49176"
       height="24.49173"
       fill="#039be5"
       id="rect62" />
    <path
       d="m 1014.5222,319.8039 h -29.73995 v -29.74 h 29.73995 z m -28.44685,-1.293 h 27.15385 V 291.357 h -27.15391 z"
       transform="translate(-90.2579,-231.65939)"
       fill="#cccccc"
       id="path64" />
    <path
       d="m 1088.7492,610.23908 h -61.2294 v -4.41156 a 0.87466,0.87466 0 0 0 -0.8746,-0.87469 h -20.993 a 0.87468,0.87468 0 0 0 -0.8748,0.87463 v 4.41162 H 991.657 v -4.41156 a 0.87468,0.87468 0 0 0 -0.8747,-0.87469 h -20.9929 a 0.87467,0.87467 0 0 0 -0.87469,0.87469 v 0 4.41156 h -13.12055 v -4.41156 a 0.87467,0.87467 0 0 0 -0.87469,-0.87469 h -20.993 a 0.87468,0.87468 0 0 0 -0.8747,0.87469 v 0 4.41156 h -13.12052 v -4.41156 a 0.87468,0.87468 0 0 0 -0.8747,-0.87469 h -20.99292 a 0.87466,0.87466 0 0 0 -0.87469,0.87463 v 4.41162 H 884.0684 v -4.41156 a 0.87468,0.87468 0 0 0 -0.8747,-0.87469 h -20.99292 a 0.87467,0.87467 0 0 0 -0.87469,0.87469 v 0 4.41156 h -13.12061 v -4.41156 a 0.87467,0.87467 0 0 0 -0.87469,-0.87469 h -20.99292 a 0.87468,0.87468 0 0 0 -0.8747,0.87469 v 0 4.41156 h -13.12054 v -4.41156 a 0.87468,0.87468 0 0 0 -0.8747,-0.87469 H 647.02347 a 0.87467,0.87467 0 0 0 -0.87469,0.87469 v 0 4.41156 h -13.12061 v -4.41156 a 0.87467,0.87467 0 0 0 -0.87469,-0.87469 h -20.99286 a 0.87468,0.87468 0 0 0 -0.8747,0.87469 v 0 4.41156 h -13.1206 v -4.41156 a 0.87466,0.87466 0 0 0 -0.87463,-0.87469 h -20.993 a 0.87467,0.87467 0 0 0 -0.87469,0.87469 v 0 4.41156 h -13.1206 v -4.41156 a 0.87467,0.87467 0 0 0 -0.87469,-0.87469 h -20.99292 a 0.87468,0.87468 0 0 0 -0.8747,0.87469 v 0 4.41156 h -13.12054 v -4.41156 a 0.87467,0.87467 0 0 0 -0.87469,-0.87469 h -20.99292 a 0.87468,0.87468 0 0 0 -0.8747,0.87469 v 0 4.41156 h -13.1206 v -4.41156 a 0.87468,0.87468 0 0 0 -0.8747,-0.87469 H 467.709 a 0.87468,0.87468 0 0 0 -0.87469,0.87463 v 4.41162 h -13.12056 v -4.41156 a 0.87467,0.87467 0 0 0 -0.87466,-0.87469 h -20.99292 a 0.8747,0.8747 0 0 0 -0.8747,0.87469 v 0 4.41156 H 390.735 A 20.99292,20.99292 0 0 0 369.74213,631.232 v 9.4925 a 20.99291,20.99291 0 0 0 20.99287,20.99286 h 698.0142 a 20.99293,20.99293 0 0 0 20.9929,-20.99286 v -9.4925 a 20.9929,20.9929 0 0 0 -20.9929,-20.99292 z"
       transform="translate(-90.2579,-231.65939)"
       fill="#3f3d56"
       id="path66" />
  </g>
</svg>
