<?xml version="1.0" encoding="UTF-8" standalone="no"?>
<svg
   data-name="Layer 1"
   width="1200.0007"
   height="693.15399"
   viewBox="0 0 1200.0006 693.15403"
   version="1.1"
   id="svg655"
   xmlns="http://www.w3.org/2000/svg"
   xmlns:svg="http://www.w3.org/2000/svg"
   xmlns:rdf="http://www.w3.org/1999/02/22-rdf-syntax-ns#"
   xmlns:cc="http://creativecommons.org/ns#"
   xmlns:dc="http://purl.org/dc/elements/1.1/">
  <defs
     id="defs659" />
  <title
     id="title551">nakamoto</title>
  <g
     id="g2975"
     transform="translate(9.0000147)">
    <rect
       x="411.17123"
       y="216.37444"
       width="2"
       height="107"
       fill="#3f3d56"
       id="rect553" />
    <rect
       x="411.17123"
       y="355.22504"
       width="2"
       height="94.149406"
       fill="#3f3d56"
       id="rect555" />
    <rect
       x="408.17123"
       y="464.37442"
       width="155"
       height="2"
       fill="#3f3d56"
       id="rect557" />
    <rect
       x="342.17123"
       y="491.37442"
       width="2"
       height="85"
       fill="#3f3d56"
       id="rect559" />
    <rect
       x="360.17123"
       y="591.37445"
       width="235"
       height="2"
       fill="#3f3d56"
       id="rect561" />
    <path
       d="M 611.17095,576.37456"
       fill="none"
       stroke="#3f3d56"
       stroke-miterlimit="10"
       stroke-width="2"
       id="path563" />
    <path
       d="M 611.17095,494.37456"
       fill="none"
       stroke="#3f3d56"
       stroke-miterlimit="10"
       stroke-width="2"
       id="path565" />
    <rect
       x="789.17126"
       y="148.37442"
       width="2"
       height="101"
       fill="#3f3d56"
       id="rect567" />
    <rect
       x="627.13708"
       y="265.37445"
       width="147.03418"
       height="2"
       fill="#3f3d56"
       id="rect569" />
    <rect
       x="610.17114"
       y="281.37448"
       width="2"
       height="135"
       fill="#3f3d56"
       id="rect571" />
    <path
       d="m 412.17124,356.37442 a 17,17 0 1 1 17,-17 17.019,17.019 0 0 1 -17,17 z m 0,-32 a 15,15 0 1 0 15,15 15.01672,15.01672 0 0 0 -15,-15 z"
       fill="#3f3d56"
       id="path573" />
    <path
       d="m 344.17124,609.37442 a 17,17 0 1 1 17,-17 17.019,17.019 0 0 1 -17,17 z m 0,-32 a 15,15 0 1 0 15,15 15.01672,15.01672 0 0 0 -15,-15 z"
       fill="#3f3d56"
       id="path575" />
    <circle
       cx="413.17093"
       cy="465.37457"
       r="16"
       fill="#039be5"
       id="circle577" />
    <rect
       x="826.17126"
       y="338.37445"
       width="166"
       height="2"
       fill="#3f3d56"
       id="rect579" />
    <rect
       x="809.17126"
       y="355.22504"
       width="2"
       height="94.149406"
       fill="#3f3d56"
       id="rect581" />
    <rect
       x="660.17126"
       y="464.37442"
       width="133"
       height="2"
       fill="#3f3d56"
       id="rect583" />
    <rect
       x="894.17126"
       y="473.37442"
       width="138"
       height="2"
       fill="#3f3d56"
       id="rect585" />
    <rect
       x="878.17126"
       y="491.37442"
       width="2"
       height="85"
       fill="#3f3d56"
       id="rect587" />
    <rect
       x="627.17126"
       y="591.37445"
       width="235"
       height="2"
       fill="#3f3d56"
       id="rect589" />
    <rect
       x="610.17126"
       y="514.37445"
       width="2"
       height="62"
       fill="#3f3d56"
       id="rect591" />
    <circle
       cx="810.17096"
       cy="339.37457"
       r="16"
       fill="#039be5"
       id="circle593" />
    <path
       d="m 790.17124,282.37442 a 17,17 0 1 1 17,-17 17.019,17.019 0 0 1 -17,17 z m 0,-32 a 15,15 0 1 0 15,15 15.01672,15.01672 0 0 0 -15,-15 z"
       fill="#3f3d56"
       id="path595" />
    <path
       d="m 611.17124,282.37442 a 17,17 0 1 1 17,-17 17.019,17.019 0 0 1 -17,17 z m 0,-32 a 15,15 0 1 0 15,15 15.01672,15.01672 0 0 0 -15,-15 z"
       fill="#3f3d56"
       id="path597" />
    <path
       d="M 659.26774,303.31806 H 562.6764 a 4.0293562,4.0293562 0 0 1 -4.02462,-4.02462 V 198.69753 a 4.0293562,4.0293562 0 0 1 4.02462,-4.02463 h 96.59134 a 4.0293562,4.0293562 0 0 1 4.02462,4.02463 v 100.59591 a 4.0293562,4.0293562 0 0 1 -4.02462,4.02462 z M 562.6764,196.28276 a 2.4174131,2.4174131 0 0 0 -2.41477,2.41477 v 100.59591 a 2.4174131,2.4174131 0 0 0 2.41477,2.41478 h 96.59134 a 2.4174131,2.4174131 0 0 0 2.41477,-2.41478 V 198.69753 a 2.4174131,2.4174131 0 0 0 -2.41477,-2.41477 z"
       fill="#3f3d56"
       id="path2207"
       style="stroke-width:0.912166" />
    <rect
       style="fill:#ffffff;fill-opacity:1;stroke:none;stroke-width:7.64834"
       id="rect2586"
       width="104.64059"
       height="108.64516"
       x="558.65179"
       y="194.67291"
       ry="4.0141377" />
    <path
       d="m 583.25809,215.41761 a 2.7323657,2.7323657 0 0 0 0,5.46473 h 55.42795 a 2.7323657,2.7323657 0 0 0 0,-5.46473 z"
       fill="#e6e6e6"
       id="path2209"
       style="stroke-width:0.912166" />
    <path
       d="m 583.25809,231.51611 a 2.7323657,2.7323657 0 1 0 0,5.46472 h 55.42795 a 2.7323611,2.7323611 0 1 0 0,-5.46472 z"
       fill="#e6e6e6"
       id="path2211"
       style="stroke-width:0.912166" />
    <path
       d="m 610.97226,282.57335 a 17.198971,17.198971 0 1 1 17.19898,-17.19893 17.218455,17.218455 0 0 1 -17.19898,17.19893 z"
       fill="#039be5"
       id="path2213"
       style="stroke-width:0.912166" />
    <path
       d="m 878.17124,492.37442 a 17,17 0 1 1 17,-17 17.019,17.019 0 0 1 -17,17 z m 0,-32 a 15,15 0 1 0 15,15 15.01672,15.01672 0 0 0 -15,-15 z"
       fill="#3f3d56"
       id="path599" />
    <circle
       cx="878.17096"
       cy="592.37457"
       r="16"
       fill="#039be5"
       id="circle601" />
    <path
       d="m 611.17124,609.37442 a 17,17 0 1 1 17,-17 17.019,17.019 0 0 1 -17,17 z m 0,-32 a 15,15 0 1 0 15,15 15.01672,15.01672 0 0 0 -15,-15 z"
       fill="#3f3d56"
       id="path603" />
    <path
       d="m 809.17124,482.37442 a 17,17 0 1 1 17,-17 17.019,17.019 0 0 1 -17,17 z m 0,-32 a 15,15 0 1 0 15,15 15.01672,15.01672 0 0 0 -15,-15 z"
       fill="#3f3d56"
       id="path605" />
    <path
       d="m 344.17094,441.37456 a 20,20 0 1 0 20,20 20.0588,20.0588 0 0 0 -20,-20 z m 0,6 a 6,6 0 1 1 -6,6 6.02013,6.02013 0 0 1 6,-6 z m 0,28.88462 a 14.56987,14.56987 0 0 1 -12,-6.40385 c 0.0962,-4 8,-6.20192 12,-6.20192 4,0 11.90385,2.20192 12,6.20192 a 14.59411,14.59411 0 0 1 -12,6.40385 z"
       fill="#3f3d56"
       id="path607" />
    <path
       d="m 1058.1709,453.37456 a 20,20 0 1 0 20,20 20.0588,20.0588 0 0 0 -20,-20 z m 0,6 a 6,6 0 1 1 -6,6 6.02013,6.02013 0 0 1 6,-6 z m 0,28.88462 a 14.56987,14.56987 0 0 1 -12,-6.40385 c 0.096,-4 8,-6.20192 12,-6.20192 4,0 11.9039,2.20192 12,6.20192 a 14.59411,14.59411 0 0 1 -12,6.40385 z"
       fill="#3f3d56"
       id="path615" />
    <path
       d="m 620.00288,428.99587 c -14.71378,-3.66869 -30.18883,1.88719 -39.20871,14.07674 -9.01986,12.18954 -9.80813,28.61209 -1.99836,41.61055 7.80977,12.99846 22.6797,20.0132 37.67712,17.7726 14.99744,-2.2406 27.16869,-13.29526 30.83795,-28.00889 5.01388,-20.09241 -7.21386,-40.44406 -27.308,-45.451 z"
       fill="#039be5"
       id="path621" />
    <path
       d="m 255.82954,604.18043 c -2.84542,25.87621 -152.22584,23.704 -151.99948,-0.002 2.84538,-25.87467 152.2258,-23.70244 151.99948,0.002 z"
       fill="#e6e6e6"
       id="path623" />
    <polygon
       points="116.874,650.999 103.754,668.156 109.81,681.276 120.911,680.267 127.976,657.054 "
       fill="#ffb8b8"
       id="polygon625"
       transform="translate(103.82981,-129.11358)" />
    <polygon
       points="65.642,698.373 65.403,707.516 82.56,708.525 82.56,697.424 "
       fill="#ffb8b8"
       id="polygon627"
       transform="translate(103.82981,-129.11358)" />
    <polygon
       points="71.458,531.908 75.495,612.647 65.403,700.451 95.68,704.488 114.856,593.472 120.911,517.778 "
       fill="#2f2e41"
       id="polygon629"
       transform="translate(103.82981,-129.11358)" />
    <path
       d="m 127.85373,373.52601 c 0,0 -12.11093,79.7303 13.12018,105.97066 25.23111,26.24036 59.54542,72.66559 59.54542,72.66559 l 24.22185,-30.27733 -61.5639,-65.60085 12.11093,-44.40676 49.45299,-23.21262 -8.07395,-55.50844 -72.66558,-1.00924 z"
       fill="#2f2e41"
       id="path631" />
    <circle
       cx="187.39914"
       cy="166.63091"
       r="22.203381"
       fill="#ffb8b8"
       id="circle633" />
    <path
       d="m 168.2235,171.67714 c 0,0 -1.00925,31.28657 -6.05547,35.32355 -5.04622,4.03698 18.16641,21.19413 18.16641,21.19413 l 15.13866,-24.22186 v -22.20338 z"
       fill="#ffb8b8"
       id="path635" />
    <polygon
       points="53.292,472.362 100.726,473.371 106.782,347.216 91.643,329.05 74.486,343.179 62.233,324.677 55.31,334.096 45.218,362.355 "
       fill="#d0cde1"
       id="polygon637"
       transform="translate(103.82981,-129.11358)" />
    <path
       d="m 229.78739,221.13008 8.07401,-1.00924 c 0,0 2.01849,1.00924 3.02773,8.074 1.00923,7.06476 13.12018,69.63786 13.12018,69.63786 l -16.14791,76.70257 -18.16641,-24.22186 11.10169,-42.38826 -11.10169,-42.38827 z"
       fill="#2f2e41"
       id="path639" />
    <polygon
       points="30.079,471.353 26.042,446.122 28.061,423.919 35.126,410.798 23.015,349.234 16.959,349.234 1.821,430.983 15.95,494.566 "
       fill="#2f2e41"
       id="polygon641"
       transform="translate(103.82981,-129.11358)" />
    <path
       d="m 216.66722,548.12528 c 0,0 -6.05547,-2.01849 -6.05547,2.01849 0,4.03698 4.037,16.14791 4.037,16.14791 0,0 -6.05547,37.342 3.02773,35.32355 9.0832,-2.01845 16.14791,-19.17564 17.15716,-24.22186 1.00925,-5.04622 6.05546,-31.28658 6.05546,-31.28658 0,0 8.07401,-19.17564 3.02773,-20.18488 -5.04627,-1.00924 -19.17564,-5.04622 -19.17564,-5.04622 0,0 8.07394,25.2311 -8.07397,27.24959 z"
       fill="#2f2e41"
       id="path643" />
    <path
       d="m 187.39914,579.41186 c 0,0 -16.14791,-10.09245 -19.17563,-2.01849 a 84.80084,84.80084 0 0 0 -4.03701,18.1664 c 0,0 -4.037,13.12017 12.11093,11.10169 16.14793,-2.01848 14.12943,-2.01849 15.13866,-8.074 1.00926,-6.05551 -4.03695,-19.1756 -4.03695,-19.1756 z"
       fill="#2f2e41"
       id="path645" />
    <path
       d="m 174.27896,166.63092 4.037,-1.00925 c 0,0 3.02773,-17.15715 10.09245,-15.13866 7.0647,2.01849 25.2311,4.037 25.2311,-4.037 0,-8.074 -17.15714,-15.13867 -27.24959,-14.12942 -10.09244,1.00925 -27.2496,4.037 -26.24036,19.17564 1.00924,15.13864 7.52165,29.86536 7.52165,29.86536 l 0.526,-8.97562 z"
       fill="#2f2e41"
       id="path647" />
    <polygon
       points="91.643,355.29 74.486,343.179 91.643,329.05 97.6,336.197 "
       fill="#d0cde1"
       id="polygon649"
       transform="translate(103.82981,-129.11358)" />
    <polygon
       points="59.347,354.281 74.486,343.179 62.375,325.013 55.31,334.096 "
       fill="#d0cde1"
       id="polygon651"
       transform="translate(103.82981,-129.11358)" />
    <path
       d="m 236.8521,220.12087 -32.29582,-13.12018 -7.56932,-5.55084 -22.708,100.41981 -15.13866,-45.416 4.5416,-58.03155 -41.88363,21.69876 14.12947,68.62861 2.01848,26.24036 -6.05549,21.19413 c 0,0 -21.19413,15.13866 -14.12942,31.28657 7.06472,16.14791 15.13866,17.15716 15.13866,17.15716 0,0 34.31431,-32.29582 36.3328,-40.36978 2.0185,-8.07396 5.04622,-22.20337 5.04622,-22.20337 0,0 17.15715,64.59164 37.342,63.58239 20.18484,-1.00925 20.18489,-22.20337 20.18489,-22.20337 l -5.04623,-22.20338 -8.07392,-23.21262 4.037,-38.35129 z"
       fill="#2f2e41"
       id="path653" />
    <g
       id="g841"
       transform="matrix(0.33399371,0,0,0.33399371,372.43211,130.73142)">
      <path
         d="m 511.00005,261.78971 a 115.853,115.853 0 0 1 -49.68994,95.19 114.44983,114.44983 0 0 1 -13.55029,8.15 c -1.55957,0.8 -3.12989,1.56 -4.7295,2.28 -1.44043,0.66 -2.89013,1.28 -4.36035,1.87 a 116.42052,116.42052 0 0 1 -57.56982,7.68 q -5.06984,-0.6 -10.01026,-1.65 c -0.13964,-0.03 -0.29,-0.06 -0.42968,-0.09 a 113.3187,113.3187 0 0 1 -20.15039,-6.27 116.01241,116.01241 0 1 1 160.49023,-107.16 z"
         transform="translate(-279.00005,-145.78971)"
         fill="#f1f1f1"
         id="path116" />
      <path
         d="m 416.35991,240.13969 c -0.10009,-0.12 -0.21,-0.23 -0.31982,-0.34 a 33.4444,33.4444 0 0 0 -47.04,-0.48 c -0.0698,0.06 -0.12988,0.12 -0.18994,0.18 -0.0801,0.07 -0.1499,0.13995 -0.22022,0.21 a 33.42692,33.42692 0 0 0 -9.81982,23.68 v 21 a 4.50677,4.50677 0 0 0 4.5,4.5 h 58 a 4.50677,4.50677 0 0 0 4.5,-4.5 v -21 a 33.34842,33.34842 0 0 0 -9.4102,-23.25 z"
         transform="translate(-279.00005,-145.78971)"
         fill="#2f2e41"
         id="path118" />
      <circle
         cx="114.61417"
         cy="118.33089"
         r="24.561029"
         fill="#ffb7b7"
         id="circle120" />
      <path
         d="m 419.43023,262.0297 -2.89991,-20.26 a 2.537,2.537 0 0 0 -0.89013,-1.59 2.62681,2.62681 0 0 0 -0.53028,-0.33 c -14.85009,-6.95 -29.90966,-6.95 -44.75976,-0.02 a 2.4484,2.4484 0 0 0 -0.5503,0.35 c -0.0596,0.05 -0.11962,0.11 -0.17968,0.17 a 2.53154,2.53154 0 0 0 -0.7002,1.51 l -1.93994,20.29 a 2.50543,2.50543 0 0 0 0.64014,1.92 2.47719,2.47719 0 0 0 1.43994,0.78 1.83844,1.83844 0 0 0 0.41015,0.04 h 4.91993 a 2.52263,2.52263 0 0 0 2.27,-1.44 l 2.12988,-4.56 a 1.49369,1.49369 0 0 1 2.83984,0.45 l 0.41992,3.36 a 2.51167,2.51167 0 0 0 2.48047,2.19 H 416.96 a 2.40424,2.40424 0 0 0 1.21,-0.31995 2.53246,2.53246 0 0 0 0.68018,-0.54 2.50641,2.50641 0 0 0 0.58005,-2.00005 z"
         transform="translate(-279.00005,-145.78971)"
         fill="#2f2e41"
         id="path122" />
      <path
         d="m 454.35015,333.67973 6.96,23.3 a 114.44983,114.44983 0 0 1 -13.55029,8.15 c -1.55957,0.8 -3.12989,1.56 -4.7295,2.28 l -7.21045,-30.91 -2.7998,-11.99006 18,-2 z"
         transform="translate(-279.00005,-145.78971)"
         fill="#ffb7b7"
         id="path124" />
      <path
         d="m 371.52007,329.80973 -0.6001,31.48 -0.25976,13.93 a 113.3187,113.3187 0 0 1 -20.15039,-6.27 l 2.39018,-29.81999 0.6001,-7.52 z"
         transform="translate(-279.00005,-145.78971)"
         fill="#ffb7b7"
         id="path126" />
      <path
         d="m 454.35015,333.67973 -18.08008,2.71 0.22021,2.97 2.17969,29.92 a 116.42052,116.42052 0 0 1 -57.56982,7.68 q -5.06984,-0.6 -10.01026,-1.65 c 1.48,-6.22 2.76026,-11.82 1.18018,-12.92 a 11.97931,11.97931 0 0 1 -1.3501,-1.1 c -7.37012,-7.03 -4.6499,-22.9 -4.6499,-22.9 l -13.37007,0.74001 -4.62988,0.25995 c 0,0 2,-32 11,-32 h 11 l 53,-5 c 0,0 15,-5 19,2 2.1001,3.67 5.83984,11.45 8.93018,18.03 2.7998,5.98 5.06982,10.97 5.06982,10.97 z"
         transform="translate(-279.00005,-145.78971)"
         fill="#2f2e41"
         id="path128" />
      <circle
         cx="116"
         cy="229.98425"
         r="26.436319"
         fill="#6c63ff"
         id="circle170"
         style="fill:#039be5;fill-opacity:1" />
      <polygon
         points="113.481,241.144 105.568,230.97 110.17,227.391 113.916,232.208 126.573,218.848 130.805,222.857 "
         fill="#ffffff"
         id="polygon172" />
    </g>
    <g
       id="g948"
       transform="matrix(0.3466972,0,0,0.3466972,836.11378,296.28191)">
      <path
         d="m 920.99316,263.06744 a 115.8475,115.8475 0 0 1 -48.88325,93.35228 c -0.25976,0.18 -0.52978,0.37 -0.7998,0.56 -0.27979,0.2 -0.56983,0.4 -0.85986,0.59 q -2.52027,1.74 -5.14014,3.33 -3.68994,2.25 -7.55029,4.23 c -0.0796,0.04 -0.16993,0.08 -0.25,0.12 q -2.21925,1.13991 -4.4795,2.16 c -0.0503,0.02 -0.0903,0.04 -0.14013,0.06 -0.3501,0.16 -0.72022,0.33 -1.08008,0.48 -2.79,1.24 -5.64014,2.37005 -8.54,3.37005 q -3.70533,1.305 -7.52,2.34 a 113.72947,113.72947 0 0 1 -15.8501,3.18 115.58789,115.58789 0 0 1 -13.75976,0.94 c -0.38037,0.01 -0.76026,0.01 -1.14014,0.01 -2.50977,0 -5.00977,-0.08 -7.48,-0.24 -2.16016,-0.14 -4.29981,-0.33 -6.41992,-0.59 -3.27,-0.39 -6.5,-0.91 -9.68018,-1.59 -0.13965,-0.02 -0.27978,-0.05 -0.41992,-0.08 -0.10986,-0.02 -0.23,-0.05 -0.33984,-0.07 -3.2002,-0.67 -6.3501,-1.49 -9.43995,-2.43 q -4.36523,-1.32 -8.57031,-2.98 c -0.71972,-0.28 -1.42969,-0.56 -2.14013,-0.86 -1.76954,-0.74 -3.51954,-1.51 -5.23975,-2.34 -0.5,-0.23 -0.98975,-0.47 -1.48,-0.71 -1.66016,-0.81 -3.29981,-1.66 -4.8999,-2.56 q -2.89527,-1.605 -5.68994,-3.37 c -2.3501,-1.48 -4.6504,-3.04 -6.88038,-4.69 a 116.0049,116.0049 0 0 1 70.32986,-209.47852 c 63.60789,0.88355 115.02971,53.65584 114.34341,117.26619 z"
         transform="translate(-279.00005,-145.78971)"
         fill="#f1f1f1"
         id="path130" />
      <path
         d="m 780.66021,375.21971 c -3.2002,-0.67 -6.3501,-1.49 -9.43995,-2.43 l 10.60987,-65.79 10.98974,-0.34 19.93018,-0.63 10.22021,-0.32 c 0,0 7.25,31.86 12.77979,67.95 a 113.72947,113.72947 0 0 1 -15.8501,3.18 115.58789,115.58789 0 0 1 -13.75976,0.94 c -0.38037,0.01 -0.76026,0.01 -1.14014,0.01 -2.50977,0 -5.00977,-0.08 -7.48,-0.24 -2.16016,-0.14 -4.29981,-0.33 -6.41992,-0.59 -3.27,-0.39 -6.5,-0.91 -9.68018,-1.59 -0.13965,-0.02 -0.27978,-0.05 -0.41992,-0.08 -0.10984,-0.02 -0.22996,-0.05 -0.33982,-0.07 z"
         transform="translate(-279.00005,-145.78971)"
         fill="#cbcbcb"
         id="path132" />
      <path
         d="m 781.42,375.36973 c -0.13965,-0.02 -0.27978,-0.05 -0.41992,-0.08 -0.10986,-0.02 -0.23,-0.05 -0.33984,-0.07 -3.2002,-0.67 -6.3501,-1.49 -9.43995,-2.43 q -4.36523,-1.32 -8.57031,-2.98 c -0.71972,-0.28 -1.42969,-0.56 -2.14013,-0.86 -1.76954,-0.74 -3.51954,-1.51 -5.23975,-2.34 -0.5,-0.23 -0.98975,-0.47 -1.48,-0.71 l -0.87988,-49.26 27,-11.56995 c 0,0 0.0898,0.72 12.90966,1.59 2.43994,7.95995 -11.39988,68.70995 -11.39988,68.70995 z"
         transform="translate(-279.00005,-145.78971)"
         fill="#2f2e41"
         id="path134" />
      <path
         d="m 862.12017,314.30973 -5.08985,26.75 0.4795,24.19 q -2.21925,1.13991 -4.4795,2.16 c -0.0503,0.02 -0.0903,0.04 -0.14013,0.06 -0.3501,0.16 -0.72022,0.33 -1.08008,0.48 -2.79,1.24 -5.64014,2.37005 -8.54,3.37005 q -3.70533,1.305 -7.52,2.34 a 113.72947,113.72947 0 0 1 -15.8501,3.18 115.58789,115.58789 0 0 1 -13.75976,0.94 l -0.53028,-42.87 c -1.11963,-13.82 2.59034,-22.96 7.14014,-28.88 24.25,-3.24 23.71,-3.53 23.71,-3.53 l 25.71,11.57 z"
         transform="translate(-279.00005,-145.78971)"
         fill="#2f2e41"
         id="path136" />
      <path
         d="m 764.48,320.49974 -1.83008,49.31 c -0.71972,-0.28 -1.42969,-0.56 -2.14013,-0.86 -1.76954,-0.74 -3.51954,-1.51 -5.23975,-2.34 -0.5,-0.23 -0.98975,-0.47 -1.48,-0.71 -1.66016,-0.81 -3.29981,-1.66 -4.8999,-2.56 q -2.89527,-1.605 -5.68994,-3.37 l 9.71,-43.33 z"
         transform="translate(-279.00005,-145.78971)"
         fill="#2f2e41"
         id="path138" />
      <path
         d="m 872.10991,356.41972 c -0.25976,0.18 -0.52978,0.37 -0.7998,0.56 -0.27979,0.2 -0.56983,0.4 -0.85986,0.59 q -2.52027,1.74 -5.14014,3.33 -3.68994,2.25 -7.55029,4.23 c -0.0796,0.04 -0.16993,0.08 -0.25,0.12 q -2.28651,1.17447 -4.61685,2.22169 l -0.003,-0.002 -1.83008,-49.48 11.06006,-3.68 0.50976,-0.17 z"
         transform="translate(-279.00005,-145.78971)"
         fill="#2f2e41"
         id="path140" />
      <ellipse
         cx="805.22375"
         cy="260.4931"
         rx="28.60264"
         ry="28.52916"
         transform="rotate(-73.65991,568.38926,373.86868)"
         fill="#9f616a"
         id="ellipse142" />
      <path
         d="m 776.492,267.66459 v -11.13124 c 0,0 -8.97669,-10.57234 0.89767,-13.23552 0,0 2.693,-26.63179 26.03241,-14.20362 0,0 32.3161,-5.32636 28.72543,13.3159 0,0 8.079,-4.8669 5.386,7.56128 l -5.20833,20.01961 c 0,0 2.51535,-13.22444 -5.56367,-14.99989 l -4.48835,-2.66318 c 0,0 -12.56737,12.42817 -31.41843,-2.66318 0,0 -8.079,-1.92825 -7.18135,6.06129 0.89765,7.98954 -7.18138,11.93855 -7.18138,11.93855 z"
         transform="translate(-279.00005,-145.78971)"
         fill="#2f2e41"
         id="path144" />
      <circle
         cx="526"
         cy="227.92126"
         r="26.436319"
         fill="#6c63ff"
         id="circle166"
         style="fill:#039be5;fill-opacity:1" />
      <polygon
         points="540.805,220.794 523.481,239.081 515.568,228.907 520.17,225.328 523.916,230.145 536.573,216.785 "
         fill="#ffffff"
         id="polygon168" />
    </g>
    <path
       d="m 827.18777,108.38591 a 37.965522,37.965522 0 0 1 -16.28361,31.19416 c -0.0917,0.0655 -0.18673,0.13108 -0.28178,0.19335 q -0.82591,0.5702 -1.68444,1.09125 -1.20921,0.73734 -2.47428,1.38619 c -0.51107,0.26217 -1.02567,0.51122 -1.54987,0.74717 -0.13121,0.059 -0.26546,0.12125 -0.39987,0.17696 -0.9143,0.40635 -1.8483,0.77666 -2.7986,1.10436 a 37.425118,37.425118 0 0 1 -7.65848,1.80893 38.11078,38.11078 0 0 1 -4.88276,0.31132 c -0.82246,0 -1.64173,-0.0262 -2.45123,-0.0786 -0.7079,-0.0459 -1.40907,-0.10814 -2.10384,-0.19335 -1.11752,-0.13435 -2.22191,-0.31459 -3.30984,-0.54726 -0.036,-0.007 -0.0754,-0.0164 -0.11136,-0.0229 a 37.135021,37.135021 0 0 1 -6.60338,-2.05471 c -0.57988,-0.2425 -1.15337,-0.49483 -1.71709,-0.76683 q -1.06664,-0.50138 -2.0907,-1.07159 a 38.016519,38.016519 0 1 1 56.40113,-33.27845 z"
       fill="#f1f1f1"
       id="path146"
       style="stroke-width:0.327704" />
    <circle
       cx="788.12982"
       cy="109.26601"
       r="8.4885073"
       fill="#ffb8b8"
       id="circle148"
       style="stroke-width:0.327704" />
    <path
       d="m 784.61901,146.1276 c -1.11753,-0.13436 -2.22193,-0.3146 -3.30985,-0.54727 l 1.03224,-23.22767 0.14753,-0.15402 2.1136,-2.23167 h 6.7213 l 2.48065,2.40207 0.20979,0.20646 5.30551,5.08269 2.39554,16.62116 a 37.425118,37.425118 0 0 1 -7.6585,1.80893 38.11078,38.11078 0 0 1 -4.88275,0.31132 c -0.82246,0 -1.64172,-0.0262 -2.45123,-0.0786 -0.70789,-0.0459 -1.40905,-0.10814 -2.10383,-0.19335 z"
       fill="#cbcbcb"
       id="path150"
       style="stroke-width:0.327704" />
    <path
       d="m 772.87734,142.73587 q -1.06664,-0.50139 -2.09072,-1.07159 c -0.0688,-6.29193 -0.11473,-10.47016 -0.11473,-10.47016 l 0.79958,-0.48828 a 0.26359875,0.26359875 0 0 1 0.0294,-0.0131 l 9.07411,-5.51199 1.90399,-3.09353 0.01,0.11142 0.56039,6.52132 a 113.62945,113.62945 0 0 1 3.67355,17.60099 c -0.70789,-0.0459 -1.40907,-0.10814 -2.10383,-0.19334 -1.11753,-0.13436 -2.22193,-0.3146 -3.30985,-0.54727 -0.036,-0.007 -0.0754,-0.0164 -0.11137,-0.0229 a 37.135021,37.135021 0 0 1 -6.60337,-2.0547 c -0.57991,-0.24251 -1.15338,-0.49483 -1.71711,-0.76683 z"
       fill="#2f2e41"
       id="path152"
       style="stroke-width:0.327704" />
    <path
       d="m 801.71532,144.27936 a 37.425118,37.425118 0 0 1 -7.6585,1.80893 29.908637,29.908637 0 0 1 -0.39652,-6.40662 c 0.7079,-11.31563 -0.92407,-17.59444 -0.21618,-17.59444 l 0.36036,0.28182 4.45361,3.51955 5.86251,2.14974 h 0.003 l 4.03406,1.47794 0.71109,0.26218 v 0.33754 c 0.003,1.16663 0.01,5.24982 0.0688,10.7487 q -1.20921,0.73733 -2.47426,1.38619 c -0.51108,0.26216 -1.02568,0.51122 -1.54988,0.74716 -0.13121,0.059 -0.26546,0.12125 -0.39987,0.17696 -0.91431,0.40634 -1.84829,0.77665 -2.79861,1.10435 z"
       fill="#2f2e41"
       id="path154"
       style="stroke-width:0.327704" />
    <path
       d="m 780.0992,111.92177 c 0,0 0.72122,-1.26657 0.55355,-5.49772 -0.16767,-4.23115 6.27537,-1.83807 11.65922,-2.2417 5.38384,-0.40363 4.24418,7.06403 4.24418,7.06403 0,0 0.38841,-0.44391 1.22,-4.04802 0.83158,-3.60411 -1.05656,-7.19576 -1.05656,-7.19576 -0.55608,-3.787245 -3.553,-2.573431 -3.553,-2.573431 1.44328,0.561855 1.16608,1.763226 1.16608,1.763226 -1.22168,-2.141944 -4.21861,-0.928128 -4.21861,-0.928128 -3.99701,-2.508228 -8.04796,0.794795 -8.04796,0.794795 -4.82861,1.095868 -1.99681,4.935858 -1.99681,4.935858 -4.85599,2.454 0.0299,7.92685 0.0299,7.92685 z"
       fill="#2f2e41"
       id="path156"
       style="stroke-width:0.327704" />
    <path
       d="m 766.66728,139.02297 c 0.12465,-2.88052 0.18034,-4.7386 0.11473,-4.99749 -0.33746,-1.35014 4.27008,-3.15907 4.68947,-3.31964 a 0.26359875,0.26359875 0 0 1 0.0294,-0.0131 l 0.93735,0.50139 0.43907,11.54174 q -1.06664,-0.50139 -2.09071,-1.07159 a 37.74516,37.74516 0 0 1 -4.11935,-2.6413 z"
       fill="#2f2e41"
       id="path158"
       style="stroke-width:0.327704" />
    <path
       d="m 808.93794,140.86467 q -1.20921,0.73733 -2.47428,1.38619 c -0.51107,0.26216 -1.02567,0.51122 -1.54987,0.74716 -0.13121,0.059 -0.26546,0.12126 -0.39987,0.17697 l -1.47466,-14.55991 0.86181,-0.62919 c 0,0 0.0787,0.0197 0.21955,0.0524 h 0.003 c 0.69141,0.1704 2.81493,0.73407 4.03406,1.47794 a 2.5278713,2.5278713 0 0 1 0.71109,0.5997 0.72840137,0.72840137 0 0 1 0.16705,0.51777 c -0.0392,0.38014 0.61621,3.98489 1.5862,9.13967 q -0.82589,0.57021 -1.68444,1.09126 z"
       fill="#2f2e41"
       id="path160"
       style="stroke-width:0.327704" />
    <circle
       cx="789.17407"
       cy="146.39444"
       r="8.6632948"
       fill="#6c63ff"
       id="circle174"
       style="fill:#039be5;fill-opacity:1;stroke-width:0.327704" />
    <polygon
       points="318.481,593.144 310.568,582.97 315.17,579.391 318.916,584.208 331.573,570.848 335.805,574.857 "
       fill="#ffffff"
       id="polygon176"
       transform="matrix(0.32770426,0,0,0.32770426,683.98099,-44.324278)" />
    <path
       d="M 659.26774,303.31806 H 562.6764 a 4.0293562,4.0293562 0 0 1 -4.02462,-4.02462 V 198.69753 a 4.0293562,4.0293562 0 0 1 4.02462,-4.02463 h 96.59134 a 4.0293562,4.0293562 0 0 1 4.02462,4.02463 v 100.59591 a 4.0293562,4.0293562 0 0 1 -4.02462,4.02462 z M 562.6764,196.28276 a 2.4174131,2.4174131 0 0 0 -2.41477,2.41477 v 100.59591 a 2.4174131,2.4174131 0 0 0 2.41477,2.41478 h 96.59134 a 2.4174131,2.4174131 0 0 0 2.41477,-2.41478 V 198.69753 a 2.4174131,2.4174131 0 0 0 -2.41477,-2.41477 z"
       fill="#3f3d56"
       id="path2495"
       style="fill:#3f3d56;fill-opacity:1;stroke-width:0.912166" />
  </g>
  <metadata
     id="metadata2602">
    <rdf:RDF>
      <cc:Work
         rdf:about="">
        <dc:title>nakamoto</dc:title>
      </cc:Work>
    </rdf:RDF>
  </metadata>
</svg>
