<svg xmlns="http://www.w3.org/2000/svg" width="847.693" height="656" data-name="Layer 1"><path fill="#f2f2f2" d="M37.594 637.288c26.422 19.035 60.664 19.99 93.762 17.652 4.622-.326 9.21-.709 13.757-1.122.028-.007.064-.004.092-.011.218-.021.437-.042.646-.054l2.807-.264-.22.419-.689 1.3c.248-.435.496-.861.743-1.296.073-.131.155-.261.227-.392 8.574-14.92 17.079-30.39 19.248-47.427 2.242-17.685-4.06-37.71-19.624-46.402a31.4 31.4 0 0 0-6.445-2.699 34 34 0 0 0-2.828-.715 33.664 33.664 0 0 0-39.15 43.762c-13.195-13.531-10.734-35.482-6.182-53.828 4.56-18.345 10.082-38.758.806-55.236-5.156-9.171-14.224-14.862-24.4-17.154-.313-.067-.625-.135-.937-.193a49.13 49.13 0 0 0-35.298 6.185c-19.458 12.262-29.452 35.51-32.695 58.284-5.226 36.648 6.339 77.547 36.38 99.19"/><path fill="#fff" d="M46.125 578.54a83.5 83.5 0 0 0 5.764 23.536 72.5 72.5 0 0 0 11.26 18.392c9.496 11.423 22.053 20.012 35.69 25.735a133.7 133.7 0 0 0 32.517 8.737c4.622-.326 9.21-.709 13.757-1.122.028-.007.064-.004.092-.011.218-.021.437-.042.646-.054l2.807-.264-.22.419-.689 1.3c.248-.435.496-.861.743-1.297.073-.13.155-.26.227-.39a73.92 73.92 0 0 1-20.717-64.666 74.56 74.56 0 0 1 13.896-31.863 34 34 0 0 0-2.828-.715 77.3 77.3 0 0 0-7.051 11.679 75.74 75.74 0 0 0-6.535 47.119 77.44 77.44 0 0 0 19.62 38.625c-.883-.062-1.774-.134-2.647-.214-16.521-1.4-33.01-4.951-47.995-12.227a86.44 86.44 0 0 1-32.382-26.57c-9.075-12.516-13.075-27.572-13.762-42.874-.728-16.382 1.398-33.052 5.136-48.983a205.6 205.6 0 0 1 17.276-47.06 1.48 1.48 0 0 0-.587-1.951 1.26 1.26 0 0 0-.936-.193 1.1 1.1 0 0 0-.723.62 225 225 0 0 0-2.763 5.553 208 208 0 0 0-16.278 48.823c-3.284 16.289-5.037 33.329-3.318 49.917"/><path fill="#3f3d56" d="M830.693 564h-437a17.02 17.02 0 0 1-17-17V17a17.02 17.02 0 0 1 17-17h437a17.02 17.02 0 0 1 17 17v530a17.02 17.02 0 0 1-17 17m-437-562a15.017 15.017 0 0 0-15 15v530a15.017 15.017 0 0 0 15 15h437a15.017 15.017 0 0 0 15-15V17a15.017 15.017 0 0 0-15-15Z"/><path fill="#3f3d56" d="M377.693 41.59h469v2h-469z"/><circle cx="400.693" cy="22" r="8" fill="#3f3d56"/><circle cx="425.693" cy="22" r="8" fill="#3f3d56"/><circle cx="450.693" cy="22" r="8" fill="#3f3d56"/><path fill="#3f3d56" d="M762.953 121h-312a13 13 0 0 1 0-26h312a13 13 0 0 1 0 26m-312-24a11 11 0 0 0 0 22h312a11 11 0 0 0 0-22Zm116.74 207h-123a17.02 17.02 0 0 1-17-17V186a17.02 17.02 0 0 1 17-17h123a17.02 17.02 0 0 1 17 17v101a17.02 17.02 0 0 1-17 17m-123-133a15.017 15.017 0 0 0-15 15v101a15.017 15.017 0 0 0 15 15h123a15.017 15.017 0 0 0 15-15V186a15.017 15.017 0 0 0-15-15Z"/><rect width="155" height="133" x="640.693" y="174" fill="#f2f2f2" rx="16"/><path fill="#3f3d56" d="M567.693 492h-123a17.02 17.02 0 0 1-17-17V374a17.02 17.02 0 0 1 17-17h123a17.02 17.02 0 0 1 17 17v101a17.02 17.02 0 0 1-17 17m-123-133a15.017 15.017 0 0 0-15 15v101a15.017 15.017 0 0 0 15 15h123a15.017 15.017 0 0 0 15-15V374a15.017 15.017 0 0 0-15-15Z"/><rect width="155" height="133" x="640.693" y="362" fill="#f2f2f2" rx="16"/><path fill="#039be5" d="M475.585 279.573q-.034 0-.067-.002l-13.99-.518a1.81 1.81 0 0 1-1.743-1.613c-.963-8.59-4.925-52.37 11.675-70.567a23.75 23.75 0 0 1 18.788-7.892.79.79 0 0 0 .721-.376l3.387-5.322a1.84 1.84 0 0 1 1.753-.831c2.715.328 16.556 1.877 22.376.192a1.82 1.82 0 0 1 1.923.591l4.448 5.436a.78.78 0 0 0 .65.3c2.261-.045 10.193.393 17.134 8.157 7.517 8.408 15.274 27.376 9.544 69.996a1.83 1.83 0 0 1-1.81 1.585h-11.018a1.83 1.83 0 0 1-1.803-1.56l-3.6-24.837a.822.822 0 0 0-1.635.101l-.248 11.66a1.83 1.83 0 0 1-1.083 1.628c-3.928 1.727-24.683 9.827-47.622-.318a1.84 1.84 0 0 1-1.083-1.594l-.451-10.595a.822.822 0 0 0-1.639-.057l-2.796 24.818a1.83 1.83 0 0 1-1.811 1.618m57.874 182.966h-.01l-54.822-.347a1.64 1.64 0 0 1-1.614-1.444l-5.514-46.873a1.26 1.26 0 0 0-1.218-1.122c-4.352-.142-14.706-1.134-16.852-7.263-1.911-5.459 3.316-13.51 15.535-23.931a1.637 1.637 0 0 1 2.636.785l6.343 21.885a1.28 1.28 0 0 0 1.213.918l51.979.349a1.265 1.265 0 0 0 1.222-.89l7.058-22.459a1.634 1.634 0 0 1 2.551-.81c4.816 3.679 20.332 16.307 17.778 24.384-1.337 4.23-7.37 6.588-17.93 7.009a1.266 1.266 0 0 0-1.214 1.122l-5.517 47.241a1.633 1.633 0 0 1-1.624 1.446"/><path fill="#fff" d="M773.693 265.153a115.6 115.6 0 0 0-47.505 21.04 8.8 8.8 0 0 0-3.788-4.5 13.3 13.3 0 0 0-3.844-1.615c-1.236-.315-2.423.437-3.514 1.519a20 20 0 0 0-3.125 4.628c-18.826-12.923-47.384-21.169-47.384-21.169v-2.584a14 14 0 0 1 .186-1.817 32 32 0 0 1 .371-2.06c2.423-12.324 12.002-40.486 12.002-40.486h10.83l20.998 4.36 23.624-1.445 23.793-4.95 3.085-.647c5.145 4.038 10.984 32.306 13.278 44.34.29 1.526.516 2.786.686 3.715a83 83 0 0 1 .307 1.671M709.07 389.219s-5.031 1.257-12.833 22.389-10.566 48.433-10.566 48.433-4.387 7.43 14.339 7.926c0 0-1.507 4.907 9.06 4.154s9.044-.746 9.044-.746 6.793-4.278 9.812-3.525 4.907 1.01 8.175 3.773 13.717 1.638 13.841-.497a20 20 0 0 0 0-3.151s15.977 1.009 12.957-10.566-5.535-30.57-5.535-30.57-8.175-37.108-17.49-37.613-30.805-.007-30.805-.007"/><circle cx="192.64" cy="323.596" r="30" fill="#2f2e41"/><circle cx="195.16" cy="329.092" r="24.561" fill="#ffb8b8"/><path fill="#ffb8b8" d="M288.699 403.797a10.5 10.5 0 0 0-1.073 1.264l-49.562-1.751-5.669-10.631-17.162 6.458 8.206 19.796a8 8 0 0 0 8.264 4.888l56.084-6.158a10.497 10.497 0 1 0 .912-13.866"/><path fill="#ccc" d="M208.631 408.696a4.81 4.81 0 0 1-2.642-3.018l-6.904-23.169a13.377 13.377 0 0 1 24.209-11.391l13.372 20.234a4.817 4.817 0 0 1-1.98 7.02l-22.043 10.294a4.81 4.81 0 0 1-4.012.03"/><path fill="#ffb8b8" d="m257.446 643.927 10.768-5.862-17.485-44.322-15.892 8.651z"/><path fill="#2f2e41" d="m252.786 641.906 21.206-11.543a15.386 15.386 0 0 1 20.87 6.157l.24.44-34.72 18.9Z"/><path fill="#ffb8b8" d="M138.959 643.975h12.259l5.833-47.288-18.095.001z"/><path fill="#2f2e41" d="m135.831 639.973 24.144-.001h.001a15.386 15.386 0 0 1 15.387 15.386v.5l-39.53.001Zm79.309-205.877 4 48 44.619 133.856a4 4 0 0 1-2.868 5.156l-13.675 3.256a4 4 0 0 1-4.499-2.09L185.673 509.12a2 2 0 0 0-3.74.472L156.83 623.954a4 4 0 0 1-3.907 3.142h-12.722a3.993 3.993 0 0 1-3.996-4.054c1.165-79.297-2.68-169.654 27.935-183.946l5-13Z"/><path fill="#ccc" d="m167.7 429.5-5.155-31.177a30.88 30.88 0 0 1 9.768-28.006 30.36 30.36 0 0 1 28.332-6.925q.438.118.877.241a30.78 30.78 0 0 1 22.228 27.346c.984 13.54.103 33.183-9.678 49.87l-.19.324Z"/><path fill="#2f2e41" d="M219.593 316.038a33.4 33.4 0 0 1-19.09 5.9 20.5 20.5 0 0 0 8.113 3.338 67.4 67.4 0 0 1-27.514.155 17.8 17.8 0 0 1-5.76-1.979 7.3 7.3 0 0 1-3.555-4.754c-.603-3.449 2.084-6.582 4.876-8.693a35.97 35.97 0 0 1 30.225-6.04c3.376.873 6.758 2.347 8.951 5.059s2.843 6.891.753 9.683Zm-27.348-22.59c2.847-11.496-7.357-24.268-19.197-24.029-12.014.243-20.854 11.099-26.931 21.465S134 313 122.844 317.463a24.03 24.03 0 0 1-32.946-22.894c-1.498 12.593.577 26.219 8.698 35.96s23.234 14.13 34.096 7.584c6.203-3.74 10.169-10.238 13.438-16.701s6.177-13.28 11.13-18.564 12.613-8.792 19.506-6.568c2.737.882 5.192 2.603 8.019 3.126s6.386-.82 6.772-3.67Z"/><path fill="#ffb8b8" d="M133.049 501.89a10.743 10.743 0 0 1 2.742-16.242l21.306-95.497 21.612 8.87-27.738 91.082a10.8 10.8 0 0 1-17.922 11.788"/><path fill="#ccc" d="M148.655 403.85a4.81 4.81 0 0 1-.336-3.996l8.193-22.745a13.377 13.377 0 0 1 26.245 5.196l-1.245 24.222a4.817 4.817 0 0 1-5.76 4.475l-23.85-4.795a4.81 4.81 0 0 1-3.247-2.357"/><path fill="#3f3d56" d="m323.215 393.14-.355-.048 1.337-9.723a5.68 5.68 0 0 0-4.854-6.401l-20.6-2.832a5.68 5.68 0 0 0-6.4 4.854l-7.333 53.34a5.68 5.68 0 0 0 4.853 6.402l20.6 2.831a5.68 5.68 0 0 0 6.401-4.854l5.045-36.697.355.05Z" data-name="Path 22"/><path fill="#fff" d="m318.695 379.82-2.564-.352a1.922 1.922 0 0 1-2.125 2.381l-11.256-1.547a1.922 1.922 0 0 1-1.403-2.866l-2.395-.33a4.046 4.046 0 0 0-4.56 3.458l-6.984 50.804a4.046 4.046 0 0 0 3.458 4.56l19.743 2.714a4.046 4.046 0 0 0 4.56-3.458l6.984-50.804a4.046 4.046 0 0 0-3.458-4.56" data-name="Path 23"/><circle cx="304.693" cy="411" r="11" fill="#039be5"/><path fill="#fff" d="M303.603 415.196a1.14 1.14 0 0 1-.687-.228l-.012-.009-2.585-1.98a1.148 1.148 0 1 1 1.397-1.823l1.674 1.284 3.957-5.16a1.15 1.15 0 0 1 1.61-.213l-.024.034.025-.033a1.15 1.15 0 0 1 .213 1.61l-4.655 6.07a1.15 1.15 0 0 1-.913.448"/><path fill="#3f3d56" d="M406.075 656h-381a1 1 0 0 1 0-2h381a1 1 0 1 1 0 2"/></svg>