<?xml version="1.0" encoding="UTF-8" standalone="no"?>
<svg
   width="751.11896"
   height="669.03003"
   viewBox="0 0 1199.9996 1068.853"
   version="1.1"
   id="svg74"
   xmlns="http://www.w3.org/2000/svg"
   xmlns:svg="http://www.w3.org/2000/svg">
  <defs
     id="defs78" />
  <g
     id="g293"
     transform="translate(224.44032,199.91149)">
    <path
       d="m 86.15177,669.03003 -0.65359,-0.24268 C 63.35533,660.43536 46.00721,642.76617 38.06263,620.47387 35.9101,614.27844 34.54621,607.83666 34.00318,601.30047 l -0.05334,-0.6239 0.616,0.11023 c 7.35355,1.31976 15.07318,2.04901 18.5127,2.33435 l -19.29642,-12.76855 0.03485,-0.66339 c 0.30045,-6.23358 4.36337,-11.65723 10.26117,-13.69775 5.95404,-2.19873 12.64682,-0.55408 16.90366,4.15381 1.91843,2.08209 3.94659,4.1781 5.90768,6.20538 6.73965,6.96545 13.7088,14.16803 18.11551,22.6709 6.62744,13.1012 6.98718,28.49396 0.979,41.8905 l 0.16779,18.11798 z"
       fill="#f2f2f2"
       id="path2" />
    <path
       d="m 476.58878,656.65717 -0.008,-0.0691 c -0.85303,-18.93866 -4.328,-37.6676 -10.32568,-55.65173 l -0.006,-0.0298 c -0.34991,-1.84698 -0.24835,-3.75122 0.29614,-5.55048 1.67511,-5.15698 6.86951,-8.3139 12.21851,-7.42584 5.52545,1.03821 11.23999,0.0625 16.10791,-2.75031 3.09161,-1.7934 6.84296,-2.04169 10.14392,-0.67139 3.11261,1.26874 5.4411,3.93585 6.27808,7.19122 0.0654,0.25598 0.1228,0.51453 0.17157,0.77765 0.17554,19.02777 3.67065,37.87897 10.32806,55.70496 l 0.004,0.023 c 0.69641,3.68109 -0.41486,7.47278 -2.98798,10.19568 -2.27423,2.30829 -5.46118,3.47919 -8.6889,3.19238 -5.79425,-0.3949 -11.7536,0.78033 -18.21826,3.59479 -2.25793,1.00482 -4.79736,1.18311 -7.17352,0.5036 -4.20258,-1.23163 -7.35205,-4.72693 -8.14075,-9.03467 z"
       fill="#039be5"
       id="path4" />
    <path
       d="M 291.36612,396.49957 V 645.19995 H 465.59695 V 396.49957 c 0.006,-3.67194 -2.38434,-6.91809 -5.89258,-8.00223 -0.80548,-0.26602 -1.64941,-0.39709 -2.49762,-0.38791 H 299.78054 c -4.63818,-0.009 -8.40546,3.74374 -8.41443,8.3819 v 0.008 z m 67.99487,85.45435 c 0.0945,-10.27203 8.49835,-18.52258 18.77045,-18.42798 10.13855,0.0933 18.33466,8.28937 18.42798,18.42798 v 28.85669 c -0.0486,10.27203 -8.4151,18.55981 -18.68713,18.51129 -10.20349,-0.0483 -18.46307,-8.30786 -18.51129,-18.51129 v -28.85669 z"
       fill="#f2f2f2"
       id="path6" />
    <path
       d="m 290.83273,637.24628 v 23.98254 c 0.008,2.58527 2.09485,4.6828 4.68005,4.70435 h 165.93768 c 2.58881,-0.0129 4.68054,-2.11548 4.68011,-4.70435 V 637.24628 H 290.83272 Z"
       fill="#e6e6e6"
       id="path8" />
    <path
       d="m 17.27673,21.8002 v 454.0914 c 0.0095,12.04932 9.77504,21.81482 21.82434,21.82434 h 672.91685 c 12.04932,-0.009 21.81488,-9.77502 21.82434,-21.82434 V 21.8002 C 733.81363,9.76272 724.05539,0.01527 712.01792,0 H 39.10108 C 27.0636,0.01533 17.3054,9.76275 17.27674,21.8002 Z"
       fill="#e6e6e6"
       id="path10" />
    <path
       d="M 706.40421,15.76201 H 44.71475 C 38.26932,15.77603 33.05151,21.00473 33.05093,27.45018 V 470.2901 c 0.01108,6.43719 5.22665,11.65277 11.66382,11.66388 h 661.68946 c 6.43719,-0.0111 11.65277,-5.22668 11.66382,-11.66388 V 27.45016 C 718.06742,21.00471 712.84965,15.77603 706.40421,15.762 Z m -166.91357,314.618 c -1.9776,3.90741 -5.98883,6.36639 -10.36816,6.35599 l -0.0693,-0.005 c -6.34326,-0.88373 -12.70996,-1.46646 -19.10022,-1.74823 0.99213,0.71051 1.86517,1.57404 2.58655,2.55829 1.85468,2.65717 2.42456,6.00427 1.55371,9.12549 -1.44531,5.625 -1.37695,11.69873 0.21094,18.56836 0.57605,2.40332 0.28809,4.93268 -0.81348,7.14499 -1.9776,3.90741 -5.98883,6.36639 -10.36816,6.35599 l -0.0693,-0.005 c -15.14862,-2.10992 -30.48572,-2.51855 -45.72522,-1.2182 -0.0603,0.38434 -0.13586,0.76935 -0.23474,1.15375 -1.44531,5.625 -1.37695,11.69873 0.21094,18.56833 0.57605,2.40332 0.28809,4.93268 -0.81348,7.14502 -1.9776,3.90741 -5.98883,6.36639 -10.36816,6.35602 l -0.0693,-0.005 c -15.55774,-2.16577 -31.31287,-2.5368 -46.95532,-1.10583 -0.11859,3.90643 0.28711,7.81116 1.2063,11.60974 0.57605,2.40332 0.28809,4.93268 -0.81348,7.14502 -1.9776,3.90741 -5.98883,6.36639 -10.36816,6.35602 l -0.0693,-0.005 c -18.77649,-2.61621 -37.82507,-2.61621 -56.60156,0 h -0.0303 c -1.87982,0.007 -3.73358,-0.44012 -5.40332,-1.30371 -4.76489,-2.58777 -6.9212,-8.27087 -5.07227,-13.36816 0.56732,-1.60468 0.98889,-3.2572 1.25964,-4.9375 -17.20776,-1.98346 -34.59747,-1.77869 -51.75378,0.60938 h -0.0303 c -1.87985,0.007 -3.73358,-0.44012 -5.40332,-1.30371 -4.76486,-2.58777 -6.9212,-8.27087 -5.07227,-13.36816 2.02881,-5.24332 2.11194,-11.04001 0.23438,-16.33936 -0.8848,-2.48486 -0.88495,-5.19897 -6.1e-4,-7.68399 -12.93387,-0.65909 -25.90109,-0.0915 -38.72791,1.69519 h -0.0303 c -1.87985,0.007 -3.73358,-0.44012 -5.40332,-1.30371 -4.76486,-2.5878 -6.9212,-8.2709 -5.07227,-13.36816 2.02881,-5.24332 2.11194,-11.04001 0.23438,-16.33936 -1.19934,-3.36688 -0.75909,-7.10059 1.19043,-10.09619 1.81525,-2.82895 4.86237,-4.63177 8.21582,-4.86084 0.26367,-0.0176 0.52832,-0.0269 0.7959,-0.0269 6.57172,1.1488 13.207,1.89835 19.86938,2.24451 -4.25015,-2.79349 -6.0307,-8.13666 -4.30591,-12.92126 2.02881,-5.24332 2.11194,-11.04001 0.23438,-16.33936 -1.19934,-3.36688 -0.75909,-7.10059 1.19043,-10.09619 0.0844,-0.129 0.18262,-0.24359 0.27148,-0.3681 -4.74121,0.32703 -9.47134,0.81885 -14.19043,1.47552 h -0.0303 c -1.87985,0.007 -3.73358,-0.44012 -5.40332,-1.30371 -4.76486,-2.5878 -6.9212,-8.2709 -5.07227,-13.36816 2.02881,-5.24332 2.11194,-11.04001 0.23438,-16.33936 -1.19934,-3.36688 -0.75909,-7.10059 1.19043,-10.09619 1.81525,-2.82895 4.86237,-4.63177 8.21582,-4.86084 0.26367,-0.0176 0.52832,-0.0269 0.7959,-0.0269 7.90204,1.38345 15.89456,2.18805 23.91382,2.40741 -2.04593,-2.94852 -2.54843,-6.70126 -1.35034,-10.08417 2.02881,-5.24332 2.11194,-11.04001 0.23438,-16.33936 -1.19934,-3.36688 -0.75909,-7.10059 1.19043,-10.09619 1.81525,-2.82895 4.86237,-4.63177 8.21582,-4.86084 0.26367,-0.0176 0.52832,-0.0269 0.7959,-0.0269 6.68707,1.16946 13.43988,1.92548 20.22,2.26367 -1.4566,-2.75803 -1.69461,-5.99921 -0.65649,-8.94043 2.02881,-5.24332 2.11194,-11.04001 0.23438,-16.33936 -1.19934,-3.36688 -0.75909,-7.10059 1.19043,-10.09619 1.81525,-2.82895 4.86237,-4.63174 8.21579,-4.86084 0.26367,-0.0176 0.52832,-0.0269 0.7959,-0.0269 7.86853,1.37735 15.82672,2.18082 23.81177,2.40405 -1.0871,-2.56848 -1.17566,-5.45041 -0.24829,-8.08081 2.02881,-5.24332 2.11194,-11.04001 0.23438,-16.33936 -1.19934,-3.36688 -0.75909,-7.10059 1.19043,-10.09619 1.81525,-2.82895 4.86237,-4.63176 8.21582,-4.86084 0.26367,-0.0176 0.52832,-0.0269 0.7959,-0.0269 18.74054,3.29855 37.9129,3.30104 56.6543,0.007 h 0.0234 c 1.44641,0.29802 2.93835,0.29802 4.38477,0 h 0.0234 c 18.74139,3.29372 37.91376,3.29123 56.6543,-0.007 0.26758,0 0.53223,0.009 0.7959,0.0269 3.35345,0.22908 6.40057,2.03189 8.21582,4.86084 1.94952,2.99561 2.38977,6.72931 1.19043,10.09619 -1.87756,5.29935 -1.79443,11.09604 0.23438,16.33936 0.92737,2.6304 0.83881,5.51233 -0.24829,8.08081 7.98505,-0.22324 15.94324,-1.0267 23.81177,-2.40405 0.26758,0 0.53223,0.009 0.7959,0.0269 3.35345,0.22906 6.40057,2.03189 8.21582,4.86084 1.94952,2.99561 2.38977,6.72931 1.19043,10.09619 -1.87756,5.29935 -1.79443,11.09604 0.23438,16.33936 1.03809,2.94122 0.80011,6.1824 -0.65649,8.94043 6.78009,-0.3382 13.5329,-1.09418 20.21997,-2.26367 0.26758,0 0.53223,0.009 0.7959,0.0269 3.35345,0.22906 6.40057,2.03189 8.21582,4.86084 1.94952,2.99561 2.38977,6.72931 1.19043,10.09619 -1.87756,5.29935 -1.79443,11.09604 0.23438,16.33936 1.20142,3.39148 0.69336,7.15421 -1.3645,10.10559 0.89288,0.67404 1.68286,1.47458 2.34497,2.37634 1.85468,2.65717 2.42456,6.00427 1.55371,9.12549 -1.44531,5.625 -1.37695,11.69873 0.21094,18.56836 0.57605,2.40332 0.28809,4.93268 -0.81348,7.14499 -0.40302,0.78754 -0.89362,1.52704 -1.46252,2.20447 4.68103,-0.41141 9.35052,-1.02509 14.00842,-1.84119 h 0.0234 c 3.74634,-0.0131 7.27173,1.77115 9.47949,4.79785 1.85468,2.65717 2.42456,6.00427 1.55371,9.12549 -1.44531,5.625 -1.37695,11.69873 0.21094,18.56836 0.57605,2.40329 0.28802,4.93265 -0.81348,7.14496 z"
       fill="#ffffff"
       id="path12" />
    <path
       d="M 684.94241,76.76521 H 65.80228 c -1.3598,-0.02995 -2.43787,-1.15657 -2.40793,-2.51637 0.02902,-1.31764 1.09027,-2.37889 2.40793,-2.40791 h 619.14013 c 1.3598,0.02995 2.43787,1.15657 2.4079,2.51637 -0.029,1.31764 -1.09027,2.37889 -2.4079,2.40791 z"
       fill="#e6e6e6"
       id="path14" />
    <path
       d="m 382.85239,422.93994 -0.0693,-0.005 c -18.77649,-2.61621 -37.82507,-2.61621 -56.60156,0 h -0.0303 c -1.87982,0.007 -3.73358,-0.44012 -5.40332,-1.30371 -4.76489,-2.58777 -6.9212,-8.27087 -5.07227,-13.36816 2.02881,-5.24335 2.11194,-11.03998 0.23438,-16.33936 -1.19934,-3.36688 -0.75909,-7.10059 1.19043,-10.09619 1.81525,-2.82895 4.86237,-4.63177 8.21582,-4.86084 0.26367,-0.0176 0.52832,-0.0269 0.7959,-0.0269 18.74054,3.29855 37.9129,3.30106 56.6543,0.007 h 0.0234 c 3.74634,-0.0132 7.27173,1.77115 9.47949,4.79785 1.85468,2.6572 2.42456,6.00427 1.55371,9.12549 -1.44531,5.625 -1.37695,11.69873 0.21094,18.56836 0.57605,2.40332 0.28809,4.93268 -0.81348,7.14502 -1.9776,3.90741 -5.98883,6.36639 -10.36816,6.35596 z"
       fill="#039be5"
       id="path16" />
    <path
       d="m 440.59525,324.89316 -15.10559,-12.50043 c -11.3277,5.93741 -28.56433,29.64163 -28.56433,29.64163 l -39.76385,28.59866 c -4.77539,0.22745 -8.46222,4.28305 -8.2348,9.05844 0.22742,4.77539 4.28302,8.46222 9.05841,8.2348 3.099,-0.14761 5.88208,-1.94238 7.29492,-4.70453 l 54.02759,-28.54996 21.28766,-29.77863 z"
       fill="#ffb8b8"
       id="path18" />
    <path
       d="m 466.08029,277.31686 v 0 c 8.71851,7.38367 9.8006,20.43704 2.41693,29.15555 -0.82739,0.97696 -1.74371,1.875 -2.73712,2.68259 l -9.6059,7.80899 c 0,0 -23.96075,34.49338 -36.43274,38.49512 l -32.0191,16.72754 -14.43756,-14.47549 29.0188,-23.6492 c 0,0 13.34698,-12.62436 14.68341,-21.86572 0.81842,-5.65958 10.39703,-21.07626 19.99786,-32.51083 7.3689,-8.69266 20.3894,-9.76578 29.08209,-2.39685 l 0.0333,0.0283 z"
       fill="#3f3d56"
       id="path20" />
    <polygon
       points="435.03681,651.67199 421.3898,651.67101 414.8978,599.031 435.0398,599.03197 "
       fill="#ffb6b6"
       id="polygon22" />
    <path
       d="m 435.51743,665.90845 -41.96674,-0.002 v -0.53076 c 6.7e-4,-9.02106 7.31354,-16.33386 16.33459,-16.33435 h 9.8e-4 l 7.66577,-5.81561 14.30261,5.81653 3.66339,1.2e-4 -6.1e-4,16.86566 z"
       fill="#2f2e41"
       id="path24" />
    <polygon
       points="539.02078,579.84197 532.55783,591.86102 483.11981,572.65301 492.65881,554.91302 "
       fill="#ffb6b6"
       id="polygon26" />
    <path
       d="m 551.78775,586.15973 -19.87402,36.96259 -0.46747,-0.25134 c -7.94525,-4.27234 -10.92328,-14.17621 -6.65198,-22.12201 l 4.9e-4,-9.2e-4 -1.49231,-9.50574 11.89581,-9.84308 1.73486,-3.22662 14.85461,7.98712 z"
       fill="#2f2e41"
       id="path28" />
    <path
       d="m 409.23508,410.61041 -12.04492,96.35956 6.02246,32.3056 108.40454,47.49219 6.02246,-19.573 c -27.70959,-16.95575 -57.33087,-42.61707 -75.995,-44.50348 0,0 -1.54816,-17.10034 11.823,-27.65363 2.69757,-2.12909 2.10748,-5.00983 3.19849,-7.62085 0.75043,-1.79584 3.73456,-3.66571 4.49908,-5.50824 0.99054,-2.38715 -0.23529,-4.75934 0.76068,-7.18524 0.56,-1.36401 2.68274,-1.44965 3.23932,-2.81476 0.9494,-2.32855 0.32776,-5.9339 1.25287,-8.23468 1.97656,-4.91571 3.87689,-9.72302 5.612,-14.22961 5.40106,-14.02771 9.20203,-25.14154 8.72198,-27.54163 -1.50568,-7.5282 -71.51697,-11.29224 -71.51697,-11.29224 z"
       fill="#2f2e41"
       id="path30" />
    <path
       d="m 407.16049,506.69135 -6.30133,40.69318 15.90411,83.04614 h 21.07867 c 7.57275,-27.90393 7.96332,-64.57837 0.75281,-95.60675 l -31.43427,-28.13257 z"
       fill="#2f2e41"
       id="path32" />
    <path
       d="m 420.70291,292.87839 9.71704,-16.93222 10.43311,-8.36954 19.573,-3.01123 5.43787,4.1813 v 0 c 19.56995,29.91022 26.86786,66.20883 20.37823,101.35834 l -1.52759,8.27393 -0.96967,5.25189 0.42004,6.27756 -3.26642,9.13919 0.44934,6.69214 0.23999,3.5744 0.24084,3.5871 0.33618,5.00714 c 0.60181,2.85773 -2.42859,2.4809 -2,5 0.75269,4.42377 4.12842,10.97888 -1,11 l -53,-11 c -13.46436,0.0555 -26,-16 -13,-29 l 7.53802,-101.03 z"
       fill="#3f3d56"
       id="path34" />
    <circle
       cx="445.51114"
       cy="234.11192"
       r="25.73653"
       fill="#ffb8b8"
       id="circle36" />
    <path
       d="m 445.94705,259.11737 c 3.76575,0.0588 7.52966,-0.20432 11.25061,-0.78625 3.68823,-0.75 11.93921,-6.79636 14.23932,-10.43481 v 0 c 1.70886,-2.70331 2.80164,-6.92474 3.41754,-9.98981 1.67749,-8.20267 -0.2016,-16.73196 -5.17072,-23.47034 -0.9444,-1.39371 -2.24786,-2.50623 -3.77264,-3.21994 -0.13513,-0.0529 -0.27423,-0.0997 -0.41473,-0.13971 -2.2218,-0.58459 -4.21814,-1.81989 -5.73279,-3.54733 -0.2937,-0.3494 -0.61218,-0.67719 -0.953,-0.9808 -1.71191,-1.44467 -3.74139,-2.46375 -5.92255,-2.97385 -3.52063,-0.94226 -8.61578,-0.007 -15.14362,2.78265 -3.2796,1.40155 -6.86627,0.89432 -9.62549,0.29581 -0.31494,-0.0608 -0.63849,0.05 -0.84998,0.29123 -1.17389,1.10208 -2.72144,1.71896 -4.3316,1.72668 -0.98627,0.0433 -2.02094,1.40884 -3.27161,3.18954 -0.28375,0.40421 -0.61493,0.87601 -0.85376,1.16293 l -0.032,-0.55127 -0.5578,0.61499 c -2.87,3.16342 -2.63208,8.05444 0.53137,10.92441 0.85016,0.77133 1.86139,1.34372 2.96027,1.67563 0.99207,0.26395 2.00848,0.42593 3.03345,0.4834 0.62085,0.0558 1.263,0.11362 1.87842,0.2204 4.01801,0.82278 7.30823,3.69604 8.66473,7.56659 0.56842,1.58527 2.31427,2.40964 3.8996,1.84125 0.24896,-0.0893 0.48523,-0.21057 0.70294,-0.36081 1.30121,-1.01328 3.01599,-1.32553 4.59088,-0.836 0.67053,0.37286 1.19244,0.9649 1.47833,1.67688 0.34735,0.79321 0.92316,1.46494 1.65387,1.92957 2.49939,1.2886 2.67163,6.99725 1.77399,11.7561 -0.86523,4.5871 -2.57568,7.90546 -4.15936,8.06949 -1.21918,0.12613 -1.35858,0.21274 -1.4469,0.42834 l -0.0789,0.19299 0.13696,0.18057 c 0.67334,0.24411 1.39136,0.34012 2.10516,0.28146 z"
       fill="#2f2e41"
       id="path38" />
    <path
       d="m 393.85239,243.93994 -0.0693,-0.005 c -18.77649,-2.61621 -37.82507,-2.61621 -56.60156,0 h -0.0303 c -1.87982,0.007 -3.73358,-0.44012 -5.40332,-1.30371 -4.76489,-2.5878 -6.9212,-8.2709 -5.07227,-13.36816 2.02881,-5.24332 2.11194,-11.04001 0.23438,-16.33936 -1.19934,-3.36688 -0.75909,-7.10059 1.19043,-10.09619 1.81525,-2.82895 4.86237,-4.63177 8.21582,-4.86084 0.26367,-0.0176 0.52832,-0.0269 0.7959,-0.0269 18.74054,3.29855 37.9129,3.30106 56.6543,0.007 h 0.0234 c 3.74634,-0.0131 7.27173,1.77115 9.47949,4.79785 1.85468,2.6572 2.42456,6.00427 1.55371,9.12549 -1.44531,5.625 -1.37695,11.69873 0.21094,18.56836 0.57605,2.40332 0.28809,4.93268 -0.81348,7.14499 -1.9776,3.90741 -5.98883,6.36639 -10.36816,6.35599 z"
       fill="#039be5"
       id="path40" />
    <path
       d="m 417.91947,304.55588 10.64954,-16.46286 c -7.22046,-10.55627 -32.77655,-24.90469 -32.77655,-24.90469 L 362.7429,227.03895 c -0.78394,-4.71609 -5.24255,-7.90378 -9.95868,-7.11984 -4.71606,0.78391 -7.90375,5.24255 -7.11981,9.95865 0.50873,3.06055 2.61646,5.61478 5.52478,6.69519 l 34.66803,50.32104 32.06226,17.6619 z"
       fill="#ffb8b8"
       id="path42" />
    <path
       d="m 468.14798,324.30655 v 0 c -6.31427,9.52161 -19.15173,12.1217 -28.67334,5.80746 -1.06696,-0.70755 -2.06592,-1.51263 -2.98407,-2.40485 l -8.87799,-8.62753 c 0,0 -37.2149,-19.43216 -42.64673,-31.35101 l -24.3844,-34.58673 16.34985,-14.74942 28.41852,25.83398 c 0,0 13.08417,15.1301 22.41833,15.37735 5.71643,0.15143 22.14685,7.86285 34.625,16.06161 9.49426,6.30258 12.08167,19.10843 5.77905,28.60269 l -0.0242,0.0364 z"
       fill="#3f3d56"
       id="path44" />
    <path
       d="m 220.23819,665.75885 -0.0693,-0.005 c -18.77649,-2.61621 -37.82507,-2.61621 -56.60156,0 h -0.0303 c -1.87985,0.007 -3.73355,-0.44012 -5.40332,-1.30371 -4.76486,-2.58777 -6.9212,-8.27087 -5.07227,-13.36816 2.02881,-5.24335 2.11194,-11.03998 0.23438,-16.33936 -1.19934,-3.36688 -0.75909,-7.10059 1.19043,-10.09619 1.81525,-2.82898 4.86237,-4.63177 8.21582,-4.86084 0.26367,-0.0176 0.52832,-0.0269 0.7959,-0.0269 18.74051,3.29858 37.91293,3.30103 56.6543,0.007 h 0.0234 c 3.74634,-0.0132 7.27173,1.77112 9.47949,4.79785 1.85468,2.65717 2.42453,6.00427 1.55371,9.12549 -1.44531,5.625 -1.37701,11.69873 0.21094,18.56836 0.57605,2.40332 0.28809,4.93268 -0.81348,7.14502 -1.97763,3.90741 -5.98883,6.36639 -10.36816,6.35596 z"
       fill="#039be5"
       id="path46" />
    <path
       d="m 236.23819,623.75885 -0.0693,-0.005 c -18.77649,-2.61621 -37.82507,-2.61621 -56.60156,0 h -0.0303 c -1.87985,0.007 -3.73355,-0.44012 -5.40332,-1.30371 -4.76486,-2.58777 -6.9212,-8.27087 -5.07227,-13.36816 2.02881,-5.24335 2.11194,-11.03998 0.23438,-16.33936 -1.19934,-3.36688 -0.75909,-7.10059 1.19043,-10.09619 1.81525,-2.82898 4.86237,-4.63177 8.21582,-4.86084 0.26367,-0.0176 0.52832,-0.0269 0.7959,-0.0269 18.74051,3.29858 37.91293,3.30103 56.6543,0.007 h 0.0234 c 3.74634,-0.0132 7.27173,1.77112 9.47949,4.79785 1.85468,2.65717 2.42453,6.00427 1.55371,9.12549 -1.44531,5.625 -1.37701,11.69873 0.21094,18.56836 0.57605,2.40332 0.28809,4.93268 -0.81348,7.14502 -1.97763,3.90741 -5.98883,6.36639 -10.36816,6.35596 z"
       fill="#039be5"
       id="path48" />
    <path
       d="m 96.22534,635.20837 0.04288,-0.0547 c 12.68781,-14.08618 23.36115,-29.86365 31.71509,-46.88165 l 0.017,-0.0251 c 1.04739,-1.56104 2.45654,-2.84583 4.10742,-3.74493 4.81326,-2.49664 10.72867,-1.09827 13.91461,3.28925 3.20615,4.61835 7.96078,7.93518 13.40213,9.34937 3.46072,0.89319 6.30658,3.34985 7.6954,6.64313 1.32602,3.08868 1.11188,6.62268 -0.57739,9.52863 -0.13318,0.22821 -0.2738,0.45264 -0.42371,0.67426 -13.23282,13.67407 -23.9776,29.55273 -31.75067,46.92126 l -0.0131,0.0194 c -2.08826,3.11035 -5.5415,5.03058 -9.28549,5.16327 -3.24008,0.0473 -6.3317,-1.35614 -8.42899,-3.82629 -3.84921,-4.34894 -8.91824,-7.69556 -15.49789,-10.22955 -2.31339,-0.86951 -4.24704,-2.52533 -5.46222,-4.67731 -2.1283,-3.82739 -1.91748,-8.52759 0.54495,-12.14905 z"
       fill="#039be5"
       id="path50" />
    <path
       d="m 749.93448,667.284 -748.75,0.30731 c -0.65759,-0.003 -1.1879,-0.53931 -1.18446,-1.1969 0.0034,-0.65271 0.53172,-1.18103 1.18446,-1.18445 l 748.75,-0.30731 c 0.65759,0.003 1.18787,0.53931 1.18445,1.1969 -0.003,0.65271 -0.53168,1.18103 -1.18445,1.18445 z"
       fill="#cacaca"
       id="path52" />
    <g
       id="g72">
      <ellipse
         cx="160.25148"
         cy="45.26305"
         rx="8.4566097"
         ry="8.6450701"
         fill="#3f3d56"
         id="ellipse54" />
      <ellipse
         cx="189.46523"
         cy="45.26305"
         rx="8.4566097"
         ry="8.6450701"
         fill="#3f3d56"
         id="ellipse56" />
      <ellipse
         cx="218.67899"
         cy="45.26305"
         rx="8.4566097"
         ry="8.6450701"
         fill="#3f3d56"
         id="ellipse58" />
      <path
         d="m 251.99041,52.09584 c -0.25977,0 -0.51904,-0.10059 -0.71484,-0.30078 l -5.70605,-5.83301 c -0.38037,-0.38867 -0.38037,-1.00977 0,-1.39844 l 5.70605,-5.83252 c 0.38721,-0.39453 1.021,-0.40088 1.41406,-0.01562 0.39502,0.38623 0.40186,1.01953 0.0156,1.41406 l -5.02197,5.1333 5.02197,5.13379 c 0.38623,0.39453 0.37939,1.02783 -0.0156,1.41406 -0.19434,0.19043 -0.44678,0.28516 -0.69922,0.28516 z"
         fill="#3f3d56"
         id="path60" />
      <path
         d="m 261.57879,52.09584 c -0.25244,0 -0.50488,-0.09473 -0.69922,-0.28516 -0.39502,-0.38623 -0.40186,-1.01904 -0.0156,-1.41406 l 5.02148,-5.13379 -5.02148,-5.1333 c -0.38623,-0.39453 -0.37939,-1.02783 0.0156,-1.41406 0.39404,-0.38672 1.02783,-0.37939 1.41406,0.01562 l 5.70557,5.83252 c 0.38037,0.38867 0.38037,1.00977 0,1.39844 l -5.70557,5.83301 c -0.1958,0.2002 -0.45508,0.30078 -0.71484,0.30078 z"
         fill="#3f3d56"
         id="path62" />
      <path
         d="m 560.08861,37.61887 h -10.60999 c -1.21002,0 -2.19,0.97998 -2.19,2.19 v 10.62 c 0,1.21002 0.97998,2.19 2.19,2.19 h 10.60999 c 1.21002,0 2.20001,-0.97998 2.20001,-2.19 v -10.62 c 0,-1.21002 -0.98999,-2.19 -2.20001,-2.19 z"
         fill="#3f3d56"
         id="path64" />
      <path
         d="m 534.08861,37.61887 h -10.60999 c -1.21002,0 -2.19,0.97998 -2.19,2.19 v 10.62 c 0,1.21002 0.97998,2.19 2.19,2.19 h 10.60999 c 1.21002,0 2.20001,-0.97998 2.20001,-2.19 v -10.62 c 0,-1.21002 -0.98999,-2.19 -2.20001,-2.19 z"
         fill="#3f3d56"
         id="path66" />
      <path
         d="m 584.58861,38.11887 h -10.60999 c -1.21002,0 -2.19,0.97998 -2.19,2.19 v 10.62 c 0,1.21002 0.97998,2.19 2.19,2.19 h 10.60999 c 1.21002,0 2.20001,-0.97998 2.20001,-2.19 v -10.62 c 0,-1.21002 -0.98999,-2.19 -2.20001,-2.19 z"
         fill="#3f3d56"
         id="path68" />
      <path
         d="m 424.66692,42.15885 h -84.81 c -1.48004,0 -2.67004,1.20001 -2.67004,2.67004 0,1.47003 1.19,2.66998 2.67004,2.66998 h 84.81 c 1.46997,0 2.66998,-1.20001 2.66998,-2.66998 0,-1.46997 -1.20001,-2.67004 -2.66998,-2.67004 z"
         fill="#3f3d56"
         id="path70" />
    </g>
  </g>
</svg>
