<svg xmlns="http://www.w3.org/2000/svg" width="751.155" height="448.147" data-name="Layer 1" viewBox="-20 -10 791.154 472.011"><path fill="#fff" d="m521.137 395.197-.047.085a6.02 6.02 0 0 1-4.179 3.04 16 16 0 0 0-.659-.598.3.3 0 0 1 .116-.039 5.36 5.36 0 0 0 4.079-2.69c.039-.062.077-.132.108-.194a.35.35 0 0 1 .489-.093.364.364 0 0 1 .093.488" style="stroke-width:.775368"/><path fill="#fff" d="M73.261 5.443A67.894 67.894 0 0 0 5.443 73.261v259.9a67.895 67.895 0 0 0 67.818 67.818h604.633a67.895 67.895 0 0 0 67.818-67.818V73.26a67.894 67.894 0 0 0-67.818-67.818Z" style="isolation:isolate"/><path fill="#e6e6e6" d="M677.894 406.422H73.26A73.344 73.344 0 0 1 0 333.16V73.26A73.344 73.344 0 0 1 73.261 0h604.633a73.344 73.344 0 0 1 73.26 73.261v259.9a73.344 73.344 0 0 1-73.26 73.26M73.26 10.886a62.445 62.445 0 0 0-62.375 62.375v259.9a62.445 62.445 0 0 0 62.375 62.375h604.633a62.445 62.445 0 0 0 62.374-62.375V73.26a62.445 62.445 0 0 0-62.374-62.375Z" style="isolation:isolate"/><path fill="#039be5" d="M377.2 59.253H89.658a23.19 23.19 0 0 0-23.151 23.151v129.692a22 22 0 0 0 .38 4.1c.092.618.237 1.216.382 1.815a23.226 23.226 0 0 0 22.39 17.237H377.2c.472 0 .943-.018 1.397-.055h.326v-.018a1.4 1.4 0 0 0 .273-.018c.09 0 .2-.018.29-.018a.16.16 0 0 0 .09-.018l.581-.055c.327-.054.653-.09.962-.145a.3.3 0 0 1 .127-.018.36.36 0 0 1 .181-.036.07.07 0 0 1 .055-.018c.2-.037.399-.073.599-.127a2 2 0 0 0 .326-.073c.4-.09.798-.181 1.18-.308.18-.055.344-.091.526-.146.236-.072.49-.163.725-.254a3 3 0 0 0 .363-.127.1.1 0 0 0 .073-.036 16 16 0 0 0 1.542-.635c.436-.2.853-.417 1.27-.635.163-.072.309-.163.472-.254a.4.4 0 0 0 .109-.072c.417-.254.834-.508 1.234-.744.018-.018.018-.037.036-.037a.02.02 0 0 0 .018-.018 14 14 0 0 0 1.234-.87h.018c.109-.091.2-.164.29-.237.127-.09.254-.2.363-.29.218-.181.436-.363.635-.544a3 3 0 0 0 .345-.309c.308-.272.599-.562.889-.852a5 5 0 0 0 .435-.472 8 8 0 0 0 .635-.69c.182-.235.381-.471.563-.707a8 8 0 0 0 .599-.78c.326-.436.616-.871.907-1.343.236-.381.472-.78.69-1.18.108-.199.217-.417.326-.634.018 0 .018-.019.018-.037.2-.38.381-.762.544-1.16.073-.164.146-.31.2-.473.145-.308.254-.635.381-.961.2-.599.4-1.216.562-1.833.146-.599.29-1.197.381-1.814a22 22 0 0 0 .381-4.1V82.403A23.19 23.19 0 0 0 377.2 59.252Z"/><path fill="#fff" d="M66.506 96.448h333.847v1.814H66.506zm0 19.958h333.847v1.814H66.506zm0 19.958h333.847v1.814H66.506zm0 19.958h333.847v1.814H66.506zm0 19.958h333.847v1.814H66.506zm0 19.959h333.847v1.814H66.506zm333.465 19.958c-.09.617-.236 1.215-.38 1.814H66.76a15 15 0 0 1-.218-1.814z" opacity=".3"/><path d="M400.352 184.01v28.086a22 22 0 0 1-.38 4.1c-.091.618-.237 1.216-.382 1.815a31 31 0 0 1-.562 1.833c-.127.326-.236.653-.381.961-.055.164-.127.309-.2.472-.163.4-.344.78-.544 1.161 0 .019 0 .037-.018.037-.11.217-.218.435-.327.635-.218.399-.453.798-.69 1.179-.29.472-.58.907-.906 1.343a8 8 0 0 1-.6.78c-.18.236-.38.472-.562.707a8 8 0 0 1-.635.69 5 5 0 0 1-.435.472c-.29.29-.58.58-.89.852a3 3 0 0 1-.344.309 20 20 0 0 1-.635.544c-.109.09-.236.2-.363.29-.09.073-.181.146-.29.236h-.018a14 14 0 0 1-1.234.871.02.02 0 0 1-.018.018c-.019 0-.019.019-.037.037-.254.181-.526.344-.798.508-.145.09-.29.163-.435.236a.4.4 0 0 1-.11.072c-.163.09-.308.182-.471.254-.417.218-.835.436-1.27.635a16 16 0 0 1-1.542.635.1.1 0 0 1-.073.036 3 3 0 0 1-.363.127c-.236.091-.49.182-.725.254-.182.055-.345.091-.527.146-.38.127-.78.217-1.179.308a2 2 0 0 1-.327.072c-.2.055-.399.091-.598.127a.07.07 0 0 0-.055.019.36.36 0 0 0-.181.036.3.3 0 0 0-.127.018c-.309.055-.635.09-.962.145l-.58.055a.16.16 0 0 1-.091.018c-.2.018-.381.036-.563.054h-.036c-.2.019-.399.019-.599.037-.362.018-.725.018-1.088.018H89.657a23.226 23.226 0 0 1-22.39-17.237h-.507a15 15 0 0 1-.218-1.814 20 20 0 0 1-.036-1.053v-31.642a43.2 43.2 0 0 1 11.23 1.832c9.871 3.012 19.47 8.11 29.775 8.11.816 0 1.67-.036 2.504-.108 10.85-.908 19.287-7.639 26.308-15.241a52 52 0 0 0 1.651-1.814 143 143 0 0 0 3.829-4.464 97.7 97.7 0 0 1 13.19-13.68c.78-.636 1.56-1.234 2.359-1.815a33.5 33.5 0 0 1 16.003-6.405 31 31 0 0 1 2.232-.145c7.765-.236 15.059 2.559 21.7 6.55.961.58 1.923 1.18 2.848 1.815a108 108 0 0 1 9.163 6.949 175 175 0 0 0 14.152 11.194c.363.254.726.508 1.089.726a34 34 0 0 0 1.723 1.089 41.9 41.9 0 0 0 16.402 6.187c.2.036.418.072.635.09 9.453 1.107 18.253-1.687 26.29-6.277.999-.58 2.015-1.18 2.995-1.815a124 124 0 0 0 17.58-14.152c1.416-1.324 2.85-2.667 4.337-3.991.672-.6 1.343-1.216 2.032-1.815 10.778-9.47 23.206-18.144 37.885-18.144.617 0 1.252.019 1.887.055 10.56.508 19.83 5.624 27.614 12.12a85 85 0 0 1 6.478 5.97l.254.253a40 40 0 0 1 1.488 1.56c5.806 6.079 11.158 12.574 17.472 18.144.69.635 1.397 1.234 2.123 1.815a59 59 0 0 0 6.895 4.935c.562.345 1.143.671 1.723.98" opacity=".1"/><path d="M400.352 156.594v55.502a22 22 0 0 1-.38 4.1c-.091.618-.237 1.216-.382 1.815a31 31 0 0 1-.562 1.833c-.127.326-.236.653-.381.961-.055.164-.127.309-.2.472-.163.4-.344.78-.544 1.161 0 .018 0 .036-.018.036-.11.218-.218.436-.327.636-.218.399-.453.798-.69 1.179-.29.472-.58.907-.906 1.343a8 8 0 0 1-.6.78c-.18.236-.38.472-.562.707a8 8 0 0 1-.635.69 5 5 0 0 1-.435.472c-.29.29-.58.58-.89.852a3 3 0 0 1-.344.309 20 20 0 0 1-.635.544c-.109.09-.236.2-.363.29-.09.073-.181.146-.29.236h-.018a14 14 0 0 1-1.234.871.02.02 0 0 1-.018.018c-.019 0-.019.019-.037.037-.254.181-.526.344-.798.508-.145.09-.29.163-.435.236a.4.4 0 0 1-.11.072c-.163.09-.308.182-.471.254-.417.218-.835.435-1.27.635a16 16 0 0 1-1.542.635.1.1 0 0 1-.073.036 3 3 0 0 1-.363.127c-.236.091-.49.182-.725.254-.182.055-.345.091-.527.146-.38.127-.78.217-1.179.308a2 2 0 0 1-.327.072c-.2.055-.399.091-.598.127a.07.07 0 0 0-.055.019.36.36 0 0 0-.181.036.3.3 0 0 0-.127.018c-.309.055-.635.09-.962.145l-.58.055a.16.16 0 0 1-.091.018c-.09 0-.2.018-.29.018a1.4 1.4 0 0 1-.273.018 1 1 0 0 1-.235.018h-.091c-.09.019-.2.019-.309.037-.363.018-.725.018-1.088.018H89.657a23.226 23.226 0 0 1-22.39-17.237c-.144-.599-.29-1.197-.38-1.814a22 22 0 0 1-.381-4.1v-32.315a54 54 0 0 0 1.869-1.687 89 89 0 0 0 1.868-1.814 139 139 0 0 0 14.715-18.144c.145-.2.29-.381.417-.58.29-.418.58-.817.89-1.235a142.6 142.6 0 0 1 14.714-18.143 88 88 0 0 1 1.869-1.815c6.75-6.35 14.442-11.086 23.514-12.21 12.501-1.561 24.132 4.227 34.42 12.21.761.599 1.505 1.198 2.249 1.815 3.52 2.866 6.858 5.987 10.015 9.09.835.834 1.688 1.669 2.54 2.503a383 383 0 0 0 6.714 6.55 178 178 0 0 0 1.941 1.815c9.072 8.4 18.888 15.785 30.554 18.144a36 36 0 0 0 2.432.417 40.6 40.6 0 0 0 13.245-.417 30 30 0 0 0 2.159-.472c10.922-2.704 21.047-9.508 30.21-17.672.652-.599 1.324-1.198 1.977-1.815 4.681-4.336 9.126-8.98 13.281-13.553a483 483 0 0 1 4.21-4.59 81 81 0 0 0 1.705-1.815 153.3 153.3 0 0 1 19.85-18.144 74 74 0 0 1 2.558-1.814c9.598-6.55 20.085-10.76 31.606-10.088 9.508.544 18.199 4.463 26.019 10.088a69 69 0 0 1 2.395 1.814 108.7 108.7 0 0 1 16.202 16.094c.562.671 1.125 1.36 1.687 2.05.29.345.563.708.853 1.052l.599.763c4.808 6.005 9.435 12.247 14.352 18.143z" opacity=".1"/><path d="M400.352 133.679v78.417a22 22 0 0 1-.38 4.1c-.091.618-.237 1.216-.382 1.815a31 31 0 0 1-.562 1.833c-.127.326-.236.653-.381.961-.055.164-.127.309-.2.472-.163.4-.344.78-.544 1.161 0 .019 0 .037-.018.037-.11.217-.218.435-.327.635-.218.399-.453.798-.69 1.179-.29.472-.58.907-.906 1.343a8 8 0 0 1-.6.78c-.18.236-.38.472-.562.707a8 8 0 0 1-.635.69 5 5 0 0 1-.435.472c-.29.29-.58.58-.89.852a3 3 0 0 1-.344.309 20 20 0 0 1-.635.544c-.109.09-.236.2-.363.29-.09.073-.181.146-.29.236h-.018a14 14 0 0 1-1.234.871.02.02 0 0 1-.018.018c-.019 0-.019.019-.037.037-.254.181-.526.344-.798.508-.145.09-.29.163-.435.236a.4.4 0 0 1-.11.072c-.163.09-.308.182-.471.254-.417.218-.835.436-1.27.635a16 16 0 0 1-1.542.635.1.1 0 0 1-.073.036 3 3 0 0 1-.363.127c-.236.091-.49.182-.725.254-.182.055-.345.091-.527.146-.38.127-.78.217-1.179.308a2 2 0 0 1-.327.072c-.2.055-.399.091-.598.127a.07.07 0 0 0-.055.019.36.36 0 0 0-.181.036.3.3 0 0 0-.127.018c-.309.055-.635.09-.962.145l-.58.055a.16.16 0 0 1-.091.018c-.09 0-.2.018-.29.018a1.4 1.4 0 0 1-.273.018.06.06 0 0 1-.036.018h-.29c-.454.037-.926.055-1.397.055H89.657a23.226 23.226 0 0 1-22.39-17.237c-.144-.599-.29-1.197-.38-1.814a22 22 0 0 1-.381-4.1v-46.848q2.749-3.565 5.515-7.112c.472-.617.944-1.216 1.416-1.815 2.485-3.193 4.99-6.35 7.566-9.434a174 174 0 0 1 7.765-8.71c.58-.598 1.161-1.215 1.76-1.814a100.9 100.9 0 0 1 23.46-18.144 56 56 0 0 1 3.593-1.814 56.1 56.1 0 0 1 20.52-5.353 57 57 0 0 1 27.107 5.353 51 51 0 0 1 3.756 1.814c8.872 4.572 17.2 10.977 25.002 18.144.672.58 1.307 1.198 1.96 1.815 6.187 5.806 12.047 12.029 17.636 18.143.417.454.834.926 1.252 1.38.127.144.272.29.399.435 5.443 5.987 11.249 12.047 17.418 17.672.163.163.344.308.526.472a97 97 0 0 0 2.032 1.814 141 141 0 0 0 7.475 6.187 97.3 97.3 0 0 0 19.541 11.957c1.47.671 2.958 1.27 4.464 1.814a53.66 53.66 0 0 0 26.054 3.085 52 52 0 0 0 11.812-3.085 59 59 0 0 0 4.264-1.814c9.198-4.355 17.508-10.941 25.383-18.144.653-.599 1.306-1.198 1.96-1.814 4.48-4.21 8.835-8.583 13.135-12.81a261 261 0 0 1 5.57-5.334c.654-.599 1.325-1.198 1.996-1.815 2.287-2.05 4.645-4.064 7.076-5.969a91 91 0 0 1 19.45-12.174 39 39 0 0 1 1.815-.763 59 59 0 0 1 2.776-1.052 48.7 48.7 0 0 1 12.392-2.685" opacity=".1"/><circle cx="138.174" cy="116.406" r="5.443" fill="#fff"/><circle cx="221.636" cy="176.28" r="5.443" fill="#fff"/><circle cx="334.127" cy="136.364" r="5.443" fill="#fff"/><path fill="#e6e6e6" d="M581.718 182.806H453.37a4.631 4.631 0 1 0 0 9.262h128.348a4.631 4.631 0 1 0 0-9.262m0 70.128H453.37a4.631 4.631 0 1 0 0 9.262h128.348a4.631 4.631 0 1 0 0-9.262m0 70.128H453.37a4.631 4.631 0 1 0 0 9.262h128.348a4.631 4.631 0 1 0 0-9.262"/><circle cx="659.488" cy="187.783" r="11.565" fill="#f2f2f2" style="isolation:isolate"/><path fill="#fff" d="M657.91 193.802a1.29 1.29 0 0 1-1.03-.514l-3.154-4.207a1.286 1.286 0 1 1 2.058-1.544l2.064 2.752 5.302-7.952a1.287 1.287 0 0 1 2.141 1.427l-6.31 9.466a1.29 1.29 0 0 1-1.035.572z"/><circle cx="659.488" cy="257.911" r="11.565" fill="#f2f2f2" style="isolation:isolate"/><path fill="#fff" d="M657.91 263.93a1.29 1.29 0 0 1-1.03-.514l-3.154-4.207a1.286 1.286 0 1 1 2.058-1.544l2.064 2.752 5.302-7.952a1.287 1.287 0 1 1 2.141 1.427l-6.31 9.466a1.29 1.29 0 0 1-1.035.572z"/><circle cx="659.488" cy="328.04" r="11.565" fill="#f2f2f2" style="isolation:isolate"/><path fill="#e6e6e6" d="M581.718 112.678H453.37a4.631 4.631 0 1 0 0 9.262h128.348a4.631 4.631 0 1 0 0-9.262"/><circle cx="659.488" cy="117.655" r="11.565" fill="#039be5"/><path fill="#fff" d="M657.91 123.674a1.29 1.29 0 0 1-1.03-.514l-3.154-4.207a1.286 1.286 0 1 1 2.058-1.544l2.064 2.752 5.302-7.952a1.287 1.287 0 1 1 2.141 1.427l-6.31 9.465a1.29 1.29 0 0 1-1.035.573z"/><circle cx="621.116" cy="117.655" r="11.565" fill="#f2f2f2" style="isolation:isolate"/><circle cx="621.116" cy="187.783" r="11.565" fill="#f2f2f2" style="isolation:isolate"/><circle cx="621.116" cy="257.911" r="11.565" fill="#f2f2f2" style="isolation:isolate"/><circle cx="621.116" cy="328.04" r="11.565" fill="#f2f2f2" style="isolation:isolate"/><path fill="#fff" d="M657.91 334.059a1.29 1.29 0 0 1-1.03-.515l-3.154-4.207a1.286 1.286 0 1 1 2.058-1.544l2.064 2.752 5.302-7.952a1.287 1.287 0 0 1 2.141 1.427l-6.31 9.466a1.29 1.29 0 0 1-1.035.572z"/><path fill="#ffb6b6" d="M522.55 255.48a7.26 7.26 0 0 0-2-10.95l4.683-25.368-12.345 5.226-2.553 23.289a7.299 7.299 0 0 0 12.215 7.803" style="stroke-width:.775368"/><path fill="#3f3d56" d="m530.085 180.396-3.924-13.189-27.665-43.164a20.4 20.4 0 0 0-5.435-4.482 20.595 20.595 0 0 0-26.89 29.976 19 19 0 0 0 1.884 2.248l35.83 36.954 2.04 2.11 3.225 8.156 1.271 37.195 1.14.271 10.041 2.365 1.403.333 2.35-12.15 1.473-5.807a61.7 61.7 0 0 0 1.884-15.151c0-1.574-.054-3.156-.178-4.73z" style="stroke-width:.775368"/><path fill="#ffb6b6" d="M492.053 436.88h-9.607l-4.57-37.055h14.178z"/><path fill="#2f2e41" d="m491.797 433.74-10.25-4.164-.303-.124-5.66 4.288a12.05 12.05 0 0 0-12.042 11.53c-.015.17-.015.349-.015.527v.395h30.976V433.74z" style="stroke-width:.775368"/><path fill="#ffb6b6" d="m473.758 417.716-8.28 4.872-22.731-29.618 12.22-7.19z"/><path fill="#2f2e41" d="m479.476 422.598-1.124-1.915-4.07-6.916-2.117 1.248-.218.124L461 416.752l-.325.046-2.699 6.568a12.057 12.057 0 0 0-4.28 16.507l.202.334 26.696-15.71z" style="stroke-width:.775368"/><path fill="#2f2e41" d="M504.22 210.348c4.504 13.584 4.028 28.33-1.083 44.155l-1.333 54.404-4.285 34.317a58.8 58.8 0 0 1 3.91 21.07c-.018 18.88-1.288 45.705-7.724 58.307h-15.233l-3.439-56.116-4.103-28.215-.506-30.234-.44-26.369-16.564 24.22-16.094 23.534 15.997 26.984 13.957 43.42-14.732 12.406-16.712-31.684-8.1-9.41-22.11-47.864 1.987-6.664a157.7 157.7 0 0 1 17.665-38.947l21.992-51.043z" style="stroke-width:.775368"/><path fill="#3f3d56" d="m506.172 205.813-2.512-5.024.225-12.05.752-40.738a39.08 39.08 0 0 0-11.576-28.44 38.3 38.3 0 0 0-7.413-5.761l-5.396-3.226-2.73-6.931-25.168.612-.054 6.723-.024 2.364-9.017 14.376.008.062.186 26.16.372 52.074 2.489 8.072-3.76 9.397 2 5.986 1.597-.256 53.795-8.598a10.56 10.56 0 0 0 5.839-4.637 9.6 9.6 0 0 0 .69-1.35 10.58 10.58 0 0 0-.303-8.815" style="stroke-width:.775368"/><circle cx="462.63" cy="72.15" r="22.87" fill="#ffb6b6" style="stroke-width:.775368"/><path fill="#2f2e41" d="M476.857 91.1c2.416-1.699 4.862-4.934 6.491-7.356a27.46 27.46 0 0 0 3.937-21.983 8.37 8.37 0 0 0-2.024-4.006 3.6 3.6 0 0 0-4.163-.76 7.5 7.5 0 0 0-.387-5.95 13.2 13.2 0 0 0-3.974-4.603 22.03 22.03 0 0 0-22.466-2.345c-1.42.681.856-4.463-.633-3.95a6.1 6.1 0 0 1-4.601-.017c-1.416-.688-6.02 3.582-5.5 2.096a6.946 6.946 0 0 0-1.448 11.653c1.194.98 2.676 1.533 3.98 2.36a11.33 11.33 0 0 1 3.667 14.574 15 15 0 0 1 4.391-1.981 5.08 5.08 0 0 1 4.537 1.025 5.7 5.7 0 0 1 1.442 4.288c-.03 1.553-.377 3.087-.397 4.64-.059 4.555-2.378 13.248 1.186 15.62 2.813 1.872 12.664-.984 15.962-3.304" style="stroke-width:.775368"/><path fill="#ffb6b6" d="M335.579 127.778a7.26 7.26 0 0 0 10.985 1.796l22.32 12.935-.774-13.383-21.077-10.231a7.299 7.299 0 0 0-11.454 8.883" style="stroke-width:.775368"/><path fill="#3f3d56" d="M479.717 123.771a20.6 20.6 0 0 0-27.417-12.793c-.248.1-.497.209-.745.318l-49.515 22.54-19.275-2.288-24.952-8.715-.635.985-5.606 8.66-.784 1.21 26.766 15.825 2.838.59a19.18 19.18 0 0 1 12.158 8.273l10.374 3.411 40.529-7.846 22.718-4.404 1.287-.248a20.65 20.65 0 0 0 13.236-19.26 20.5 20.5 0 0 0-.977-6.258" style="stroke-width:.775368"/><path fill="#e6e6e6" d="M297.251 279.936H85.903a4.631 4.631 0 0 0 0 9.262h211.348a4.631 4.631 0 1 0 0-9.262"/><circle cx="375.021" cy="284.913" r="11.565" fill="#039be5"/><path fill="#fff" d="M373.443 290.932a1.29 1.29 0 0 1-1.03-.514l-3.154-4.207a1.286 1.286 0 1 1 2.058-1.544l2.064 2.752 5.302-7.952a1.287 1.287 0 1 1 2.14 1.427l-6.31 9.465a1.29 1.29 0 0 1-1.034.573z"/><circle cx="336.649" cy="284.913" r="11.565" fill="#f2f2f2" style="isolation:isolate"/><path fill="#e6e6e6" d="M296.251 335.936H84.903a4.631 4.631 0 0 0 0 9.262h211.348a4.631 4.631 0 1 0 0-9.262"/><circle cx="374.021" cy="340.913" r="11.565" fill="#f2f2f2" style="isolation:isolate"/><path fill="#fff" d="M372.443 346.932a1.29 1.29 0 0 1-1.03-.514l-3.154-4.207a1.286 1.286 0 1 1 2.058-1.544l2.064 2.752 5.302-7.952a1.287 1.287 0 1 1 2.14 1.427l-6.31 9.465a1.29 1.29 0 0 1-1.034.573z"/><circle cx="335.649" cy="340.913" r="11.565" fill="#f2f2f2" style="isolation:isolate"/><path fill="#f0f0f0" d="M641.235 443.957c7.97-18.67 13.59-38.99 10.93-59.1a65.2 65.2 0 0 0-5.88-19.65 59.6 59.6 0 0 0-9.22-13.93 8.35 8.35 0 0 0-10.57-1.7c-.26.15-.52.31-.76.48a8.75 8.75 0 0 0-2.97 3.63 6 6 0 0 0-.31.86 8.9 8.9 0 0 0-.29 3.79 95.6 95.6 0 0 1-.9 31.11q-.765 3.915-1.87 7.76a78 78 0 0 0-5.27-5.93 65.3 65.3 0 0 0-16.45-12.12h-.01c-.03-.02-.05-.03-.08-.05-7.38-3.76-17.22-2.2-22.97.36-.38.16-.74.34-1.09.51-3 1.54-4.49 3.31-3.21 4.47.29.25.58.51.85.77a95.7 95.7 0 0 1 21.06 28.34v.01a93 93 0 0 1 5.21 13.16c1.93 6.23 3.53 13.14 7.3 18.22a16 16 0 0 0 1.25 1.53l33.68-.27c.08-.04.15-.07.23-.11l1.34.05c-.05-.24-.11-.48-.17-.72v-.02c-.03-.13-.07-.27-.1-.39-.03-.1-.05-.19-.07-.27.06-.15.12-.29.19-.44.05-.12.1-.23.15-.35"/><path fill="#fff" d="M641.065 445.407a.44.44 0 0 1-.69.3 18.3 18.3 0 0 0-4.51-2.39c-.01-.01-.01 0-.01 0a38 38 0 0 0-6.24-1.66c-.02 0-.03-.01-.05-.01-.86-.17-1.72-.32-2.58-.48-4.18-.77-8.43-1.7-12.05-4.08a12.28 12.28 0 0 1-5.63-8.33c-.53-3.35.14-6.72.42-10.06.02-.24.04-.49.05-.73.02-.31.03-.61.03-.91a19.4 19.4 0 0 0-1.78-8.8 34.9 34.9 0 0 0-6.36-8.94q-1.995-2.145-4.16-4.13h-.01c-.06-.06-.11-.11-.17-.16 0-.01-.01-.02-.02-.03a81 81 0 0 0-20.75-13.7c-.27-.12-.55-.25-.83-.37-.73-.33-1.46-.64-2.2-.95.35-.17.71-.35 1.09-.51a83 83 0 0 1 23.09 14.66c.23.2.46.41.68.62q2.595 2.4 4.94 5.03a32.5 32.5 0 0 1 5.99 9.16 20.4 20.4 0 0 1 1.39 8.58c-.02.56-.06 1.12-.11 1.69-.31 3.37-1 6.85-.23 10.22.88 3.84 3.86 6.52 7.32 8.16a31.6 31.6 0 0 0 7.16 2.22c5.1 1.07 10.37 1.59 14.83 4.33h.01c.07.05.14.09.2.13.01 0 .01 0 .01.01a10 10 0 0 1 .93.63c.02.01.04.03.06.04a1 1 0 0 1 .08.07.44.44 0 0 1 .1.39"/><path fill="#fff" d="M598.122 395.09a12.205 12.205 0 0 0-.405-15.799c-.392-.435-1.087.154-.694.59a11.3 11.3 0 0 1 .346 14.697c-.37.454.385.964.753.512m11.972 21.936a23.52 23.52 0 0 1-16.58-4.361c-.473-.346-.985.407-.512.752a24.47 24.47 0 0 0 17.262 4.504c.583-.07.41-.964-.17-.895m31.141 26.931a.43.43 0 0 1-.15.35.6.6 0 0 1-.27.11.39.39 0 0 1-.46-.29c-1.38-4.64-4.76-8.2-7.96-11.69-2.88-3.13-5.71-6.43-7.16-10.5a12.28 12.28 0 0 1 .52-10.05 17.7 17.7 0 0 1 1.73-2.62c1.43-1.82 3.13-3.44 4.66-5.16.16-.18.32-.37.47-.55.21-.23.4-.47.58-.71a19.35 19.35 0 0 0 3.87-8.1 34.8 34.8 0 0 0 .31-10.97q-.3-2.91-.83-5.78c-.02-.09-.03-.17-.05-.25a80.8 80.8 0 0 0-8.32-23.47c-.15-.27-.29-.54-.44-.8-.64-1.16-1.3-2.3-2-3.42.24-.17.5-.33.76-.48a83 83 0 0 1 5.97 11.63 81.3 81.3 0 0 1 4.87 16.05c.07.3.12.61.17.91.42 2.31.73 4.65.92 6.98a32.3 32.3 0 0 1-.74 10.92 20.4 20.4 0 0 1-4.07 7.71q-.51.645-1.08 1.26c-1.52 1.66-3.2 3.27-4.57 5.08a15 15 0 0 0-1.77 2.94c-1.61 3.6-.85 7.54.93 10.92 3.22 6.15 9.36 10.34 12.63 16.37a18.6 18.6 0 0 1 1.46 3.49.5.5 0 0 1 .02.12"/><path fill="#fff" d="M637.091 378.273a12.205 12.205 0 0 0 9.189-12.859c-.051-.583-.96-.531-.91.053a11.3 11.3 0 0 1-8.571 11.943c-.57.14-.274 1.002.292.863m-3.648 24.723a23.52 23.52 0 0 1-10.612-13.465c-.17-.561-1.031-.268-.862.293a24.47 24.47 0 0 0 11.071 13.988c.507.296.908-.522.403-.816m-5.158-48.769c-.04.02-.07.03-.11.05a7.7 7.7 0 0 1-5.72.27 6 6 0 0 1 .31-.86 6.83 6.83 0 0 0 4.97-.21c.09-.03.17-.07.26-.11a.46.46 0 0 1 .58.28.48.48 0 0 1-.29.58"/><path fill="#ccc" d="M671.792 448.147H323.804a1.19 1.19 0 1 1 0-2.381h347.988a1.19 1.19 0 0 1 0 2.38"/></svg>