<?xml version="1.0" encoding="UTF-8" standalone="no"?>
<svg
   data-name="Layer 1"
   width="741.46234"
   height="729.63916"
   viewBox="0 0 741.46231 729.63919"
   version="1.1"
   id="svg500"
   xmlns="http://www.w3.org/2000/svg"
   xmlns:svg="http://www.w3.org/2000/svg">
  <defs
     id="defs504" />
  <path
     d="m 362.88933,172.94724 h -3.99878 V 63.40191 A 63.40187,63.40187 0 0 0 295.48876,0 H 63.402 A 63.40184,63.40184 0 0 0 0,63.4017 V 664.37613 A 63.40181,63.40181 0 0 0 63.40184,727.778 h 232.08661 a 63.40185,63.40185 0 0 0 63.402,-63.40167 V 250.9235 h 3.99884 z"
     fill="#e6e6e6"
     id="path447" />
  <path
     d="m 298.0468,16.495 h -30.295 A 22.49485,22.49485 0 0 1 246.92465,47.48553 H 113.9652 A 22.49484,22.49484 0 0 1 93.13805,16.49492 H 64.84246 A 47.34781,47.34781 0 0 0 17.49462,63.84266 v 600.09262 a 47.34781,47.34781 0 0 0 47.34777,47.34784 H 298.0468 a 47.34781,47.34781 0 0 0 47.34784,-47.34778 v 0 V 63.84271 A 47.34777,47.34777 0 0 0 298.0468,16.495 Z"
     fill="#ffffff"
     id="path449" />
  <path
     id="f3818c68-126c-4685-b4e0-2450731ccc2a-35"
     data-name="a2804879-ded6-4045-b20f-1f1dde9b938b"
     d="m 326.15148,487.81882 h -279.619 a 5.184,5.184 0 0 1 -5.178,-5.178 v -69.361 a 5.184,5.184 0 0 1 5.178,-5.178 h 279.619 a 5.184,5.184 0 0 1 5.178,5.178 v 69.362 a 5.184,5.184 0 0 1 -5.178,5.177 z m -279.619,-77.646 a 3.11,3.11 0 0 0 -3.107,3.107 v 69.362 a 3.11,3.11 0 0 0 3.107,3.107 h 279.619 a 3.11,3.11 0 0 0 3.107,-3.107 v -69.362 a 3.11,3.11 0 0 0 -3.107,-3.107 z"
     fill="#e6e6e6" />
  <circle
     id="abdb74b7-e321-430b-89c2-b563f66442fc"
     data-name="b9ad11c9-d8a0-4df6-8741-900b9ec46a35"
     cx="82.778465"
     cy="447.95984"
     r="21.74799"
     fill="#e6e6e6" />
  <path
     id="addd02b1-b85b-481a-baea-1b0ba5ed9f4a-36"
     data-name="bd261eec-7ae0-49b0-bf26-57ff03972605"
     d="m 133.00646,433.46186 a 3.625,3.625 0 0 0 0,7.249 h 170.878 a 3.6250049,3.6250049 0 0 0 0.13989,-7.24866 l -0.0209,-3.3e-4 q -0.0594,-10e-4 -0.119,0 z"
     fill="#e6e6e6" />
  <path
     id="a42dc2a4-5fb2-4ea8-b2b3-ce81bc256782-37"
     data-name="e80b4447-8c34-435b-ba6c-5300a190ab24"
     d="m 133.00646,455.20987 a 3.625,3.625 0 0 0 0,7.249 h 170.878 a 3.625,3.625 0 0 0 0.119,-7.249 q -0.0594,-9.2e-4 -0.119,0 z"
     fill="#e6e6e6" />
  <path
     id="b84687c4-e3b4-4975-8361-bf73c33c9ee5-38"
     data-name="e55fcb7d-3a3b-45d8-b167-72fb2263dd92"
     d="m 326.15148,603.80881 h -279.619 a 5.184,5.184 0 0 1 -5.178,-5.178 v -69.361 a 5.184,5.184 0 0 1 5.178,-5.178 h 279.619 a 5.184,5.184 0 0 1 5.178,5.178 v 69.362 a 5.184,5.184 0 0 1 -5.178,5.177 z m -279.619,-77.646 a 3.11,3.11 0 0 0 -3.107,3.107 v 69.362 a 3.11,3.11 0 0 0 3.107,3.107 h 279.619 a 3.11,3.11 0 0 0 3.107,-3.107 v -69.362 a 3.11,3.11 0 0 0 -3.107,-3.107 z"
     fill="#e6e6e6" />
  <circle
     id="fe3713e7-4e14-41f8-af1d-48b338e5371c"
     data-name="a50d232f-7710-43e4-8fa9-6ef0443fc454"
     cx="82.778465"
     cy="563.94989"
     r="21.74799"
     fill="#e6e6e6" />
  <path
     id="e34cf46a-1d6c-4c41-b5e1-331fa5bf8d4c-39"
     data-name="e49b4965-a9e9-4371-9134-194e44e65c31"
     d="m 133.00646,549.45188 a 3.625,3.625 0 0 0 0,7.249 h 170.878 a 3.625,3.625 0 0 0 0.119,-7.249 q -0.0594,-10e-4 -0.119,0 z"
     fill="#e6e6e6" />
  <path
     id="e105039f-b7a6-49c8-8f81-87505f1b0ae5-40"
     data-name="abc4586a-ac92-4255-aae6-84f53baad571"
     d="m 133.00646,571.19986 a 3.625,3.625 0 0 0 0,7.249 h 170.878 a 3.625,3.625 0 0 0 0.119,-7.249 q -0.0594,-9.2e-4 -0.119,0 z"
     fill="#e6e6e6" />
  <path
     id="ad9187ec-89e0-4b9d-a4fb-dc654c09bafe-41"
     data-name="a9e593af-a319-4e97-9065-f0c2c04624d5"
     d="m 180.45745,343.88385 a 98.343,98.343 0 0 1 -98.384,-98.30194 v -0.0821 c 0,-0.206 0,-0.423 0.012,-0.629 0.3,-53.879 44.432,-97.756 98.372,-97.756 a 98.384001,98.384001 0 0 1 0.0224,196.768 h -0.0224 z m 0,-194.7 a 96.519,96.519 0 0 0 -96.3,95.749 c -0.011,0.22 -0.011,0.4 -0.011,0.564 a 96.325,96.325 0 1 0 96.337,-96.313 z"
     fill="#e6e6e6" />
  <circle
     cx="315.11398"
     cy="422.84174"
     r="40"
     fill="#ffffff"
     id="circle460" />
  <path
     d="m 301.22165,440.83784 c -0.0686,0 -0.13721,-4.9e-4 -0.20606,-0.002 h -21.5 a 10.39761,10.39761 0 0 1 -0.008,-20.79248 h 21.51807 c 0.10547,-0.002 0.22021,-0.002 0.334,0 a 10.39771,10.39771 0 0 1 -0.13769,20.79443 z"
     fill="#039be5"
     id="path462" />
  <rect
     x="325.34537"
     y="727.34375"
     width="324.03262"
     height="2.24072"
     fill="#3f3d56"
     id="rect464" />
  <path
     d="m 448.6873,406.6079 c -0.16287,3.30968 -2.97788,5.86069 -6.28751,5.69799 l -80.27562,9.31367 c -3.30936,-0.16324 -5.85996,-2.97807 -5.69717,-6.28747 0.16277,-3.30939 2.97725,-5.86037 6.28669,-5.69804 l 80.27561,-9.31366 c 3.30967,0.16286 5.86074,2.97779 5.698,6.28751 z"
     fill="#3f3d56"
     id="path494" />
  <path
     d="m 332.114,460.79438 a 4,4 0 0 1 -4,-4 v -50.95263 h -50 a 4,4 0 0 1 0,-8 h 54 a 4,4 0 0 1 4,4 v 54.95263 a 4,4 0 0 1 -4,4 z"
     fill="#039be5"
     id="path496" />
  <path
     d="M 333.06,466.44888 A 48,48 0 1 1 356.40031,402.7054 48.05437,48.05437 0 0 1 333.06,466.44888 Z m -35.35277,-76.19831 a 36,36 0 1 0 47.80761,17.50523 36.04072,36.04072 0 0 0 -47.80757,-17.50523 z"
     fill="#3f3d56"
     id="path498" />
  <path
     d="m 682.24564,693.81697 a 110.58287,110.58287 0 0 1 -4.789,34.601 c -0.1199,0.407 -0.2635,0.8141 -0.4072,1.2212 h -70.4949 a 63.26721,63.26721 0 0 1 4.7652,-14.3671 c 5.8665,-12.4516 15.4446,-23.1073 24.903,-33.691 13.0262,-14.5828 25.7412,-29.0457 27.7526,-48.0103 a 108.91144,108.91144 0 0 1 12.26,25.3102 29.74832,29.74832 0 0 0 -9.8414,6.0341 c -0.7903,0.7423 -1.6284,1.8199 -1.2213,2.8495 0.3831,0.862 1.4367,1.1495 2.3706,1.3409 2.2509,0.431 4.5017,0.862 6.7526,1.2692 1.7719,0.3591 3.5678,0.6943 5.3637,1.0296 a 117.57937,117.57937 0 0 1 2.5861,22.4127 z"
     fill="#f2f2f2"
     id="path1562" />
  <path
     d="m 741.46234,686.05877 c -11.3023,6.8722 -18.4858,17.504 -24.3523,29.4047 a 30.07765,30.07765 0 0 0 -13.6728,7.1836 c -0.8142,0.7424 -1.6523,1.8199 -1.2213,2.8495 0.3593,0.8621 1.4368,1.1494 2.3706,1.3409 2.2269,0.4311 4.5017,0.8622 6.7286,1.2692 -0.2154,0.5029 -0.431,1.0296 -0.6464,1.5325 h -74.7094 a 105.64062,105.64062 0 0 1 11.2304,-12.8346 c 0.886,-0.8861 1.7959,-1.7242 2.7298,-2.5862 a 111.73991,111.73991 0 0 1 32.3261,-20.4014 113.72224,113.72224 0 0 1 59.2167,-7.7582 z"
     fill="#f2f2f2"
     id="path1564" />
  <path
     d="m 648.41094,729.63917 h -66.5201 a 108.05808,108.05808 0 0 1 0.096,-15.9954 114.38378,114.38378 0 0 1 47.5314,-83.1621 c -3.4481,12.2839 -1.6762,24.4961 1.9156,36.7561 -0.5028,0.1676 -1.0057,0.3113 -1.4607,0.5027 a 29.751,29.751 0 0 0 -9.8414,6.0343 c -0.7903,0.7423 -1.6283,1.8199 -1.2213,2.8495 0.3591,0.862 1.4367,1.1493 2.3706,1.3409 2.2509,0.431 4.5017,0.862 6.7286,1.2692 1.7959,0.3591 3.5918,0.6944 5.3877,1.0536 0.838,0.1437 1.6762,0.3112 2.5142,0.4788 0.1197,0.2873 0.1916,0.5508 0.3113,0.8142 4.2144,11.6134 8.8119,23.3227 10.967,35.2236 a 82.22012,82.22012 0 0 1 1.1016,9.0273 c 0.072,1.2691 0.1197,2.5381 0.1197,3.8073 z"
     fill="#f2f2f2"
     id="path1566" />
  <polygon
     points="507.91,617.234 501.74,567.209 520.882,567.209 520.879,617.234 "
     fill="#ffb6b6"
     id="polygon1616"
     transform="translate(70.422021,99.562645)" />
  <path
     d="m 594.60894,729.36877 h -41.8189 v -0.529 a 16.27795,16.27795 0 0 1 16.2771,-16.2768 h 10e-4 l 7.6387,-5.7951 14.2523,5.796 3.6505,1e-4 z"
     fill="#2f2e41"
     id="path1618" />
  <polygon
     points="457.969,611.918 440.931,564.48 459.603,560.265 470.62,609.061 "
     fill="#ffb6b6"
     id="polygon1620"
     transform="translate(70.422021,99.562645)" />
  <path
     d="m 547.03784,720.15857 -40.792,9.2102 -0.1165,-0.5159 a 16.278,16.278 0 0 1 12.2918,-19.4625 l 10e-4,-2e-4 6.1746,-7.3355 15.1789,2.5142 3.5609,-0.804 z"
     fill="#2f2e41"
     id="path1622" />
  <path
     d="m 607.72764,410.96997 c 6.0807,18.3394 5.4379,38.2462 -1.4615,59.6117 l -2.9494,120.2931 c 4.8759,5.366 7.9357,27.2457 0.4247,42.9128 -10.0297,20.9212 -3.1202,49.8526 -10.2101,63.7323 h -20.5645 l -5.0537,-56.5085 -4.4508,-6.3722 -0.6773,-50.9686 c -2.7312,-6.4667 -5.8958,-12.8798 -0.3408,-20.3718 l -0.1482,-8.8532 -0.7895,-47.1913 -31.0139,45.3513 c -0.8811,10.2641 -6.1278,15.6423 -13.0743,19.1184 l 9.6052,42.392 c 16.799,14.3789 12.6905,36.6319 12.9678,57.2332 l 5.508,24.3094 -25.31,2.2626 -11.1692,-32.967 -12.5578,-20.315 -21.841,-81.2158 15.2313,-35.3507 6.2253,-14.4484 34.7653,-80.6873 z"
     fill="#2f2e41"
     id="path1624" />
  <path
     d="m 393.22996,413.84983 c 4.31783,4.31064 11.48262,3.67051 14.9679,-1.3373 l 21.27014,-10.32551 -5.503,-17.2408 -18.73734,13.44355 c -4.27753,-2.57469 -9.80474,-1.54316 -12.86565,2.40109 -3.06091,3.94424 -2.68804,9.55451 0.86795,13.05897 z"
     fill="#ffb8b8"
     id="path1626" />
  <path
     d="m 423.71073,382.84175 35.94602,-22.59835 v 0 c 0,0 22.32075,-9.36935 21.32079,-15.70307 l 1.7365,0.40167 12.7483,-15.30285 c 8.1423,-16.27512 23.2499,-30.9895 43.5311,-44.54471 12.96749,-10.45116 32.15046,-7.24201 41.0103,6.86068 v 0 c 7.83222,12.50061 4.55715,28.94021 -7.4677,37.48492 l -59.56354,34.44895 c -5.44497,3.14913 -13.81768,6.79506 -20.10716,6.88048 v 0 0 l -28.75809,15.71392 -16.03115,7.86078 -18.35383,9.94732 z"
     fill="#039be5"
     id="path1628" />
  <circle
     cx="551.58014"
     cy="224.39761"
     r="30.875561"
     fill="#ffb8b8"
     id="circle1630" />
  <path
     d="m 580.41494,243.97943 c 2.2884,-3.26534 3.9115,-8.49494 4.8703,-12.31736 a 37.07488,37.07488 0 0 0 -5.0768,-29.71919 11.30429,11.30429 0 0 0 -4.4065,-4.15875 c -1.8681,-0.83408 -4.3313,-0.63537 -5.6336,0.94253 a 10.13227,10.13227 0 0 0 -3.219,-7.37847 17.85692,17.85692 0 0 0 -7.157,-4.02341 29.7376,29.7376 0 0 0 -29.6034,7.31938 c -1.4899,1.51612 -0.9583,-6.05946 -2.6129,-4.72505 a 8.22972,8.22972 0 0 1 -5.8513,2.08742 c -2.1137,-0.22511 -6.0014,7.30707 -6.0238,5.18157 -2.2237,2.2283 -3.2034,11.62534 -2.5078,14.69556 0.6956,3.07022 11.0438,1.71326 14.0108,2.76552 1.9653,0.697 4.1001,0.72055 6.1355,1.17429 a 15.29688,15.29688 0 0 1 11.3369,16.8241 20.2661,20.2661 0 0 1 4.6682,-4.52813 6.8594,6.8594 0 0 1 6.2304,-0.77781 7.70641,7.70641 0 0 1 3.7974,4.78446 c 0.6738,1.98515 0.935,4.0926 1.6213,6.07347 2.0138,5.81233 3.0529,11.91369 8.6666,13.29183 4.4301,1.08753 7.6302,-3.05358 10.7547,-7.51196 z"
     fill="#2f2e41"
     id="path1632" />
  <path
     d="m 610.36234,404.84917 -3.39,-6.78 c -4.15,-25.71 -8.25,-49.69 -2.68,-71.26003 0.35,-18.83 -5.47,-36.52 -21.63,-46.18 l -7.29,-4.36 -3.69,-9.36005 -33.98,0.83 -0.1,12.27 -12.17,19.41 v 0.08 l 0.76,105.61998 3.36,10.9 -5.07,12.68 2.69,8.09 66.99,-10.71 7.79,-1.25 a 13.91763,13.91763 0 0 0 2.59,-1.13 14.23178,14.23178 0 0 0 6.22,-6.95 c 0.07,-0.17 0.13,-0.33 0.19,-0.5 a 13.93382,13.93382 0 0 0 0.9,-4.3 14.3033,14.3033 0 0 0 -1.49,-7.0999 z"
     fill="#039be5"
     id="path1634" />
  <path
     d="m 611.85234,411.94917 a 13.93382,13.93382 0 0 1 -0.9,4.3 l -6.41,7.45 a 13.91763,13.91763 0 0 1 -2.59,1.13 l -7.79,1.25 11.27,-21.19 -24.77,-54.23 z"
     opacity="0.2"
     id="path1636" />
  <path
     d="m 638.81264,474.67337 a 10.29646,10.29646 0 0 1 -1.5555,-15.7116 l -16.3037,-32.7572 18.8748,2.2984 12.5885,30.7544 a 10.35228,10.35228 0 0 1 -13.6041,15.416 z"
     fill="#ffb8b8"
     id="path1638" />
  <path
     d="m 572.71874,361.96427 12.368,-1.7082 c 0,0 1.1942,18.6469 7.1103,21.4729 5.916,2.826 3.9217,3.2911 4.6193,6.2827 0.6976,2.9915 3.8547,7.5123 8.541,9.5737 4.6863,2.0614 26.0027,53.8958 26.0027,53.8958 l 17.9493,-4.1857 a 57.74664,57.74664 0 0 1 -3.2556,-13.9605 c -0.6306,-7.2128 -8.805,-24.232 -11.497,-26.7584 -2.692,-2.5265 -1.6277,-6.9803 -3.023,-12.9634 -1.3952,-5.9831 -0.4266,-0.4353 -2.752,-10.4071 -2.3254,-9.9718 -28.4688,-69.73303 -29.5645,-78.9402 -1.0957,-9.20717 -13.925,-14.62669 -13.925,-14.62669 l -9.9718,2.3254 z"
     fill="#039be5"
     id="path1640" />
</svg>
