<svg xmlns="http://www.w3.org/2000/svg" width="741.462" height="729.639" data-name="Layer 1"><path fill="#e6e6e6" d="M362.89 172.947h-4V63.402A63.4 63.4 0 0 0 295.49 0H63.402A63.4 63.4 0 0 0 0 63.402v600.974a63.4 63.4 0 0 0 63.402 63.402h232.086a63.4 63.4 0 0 0 63.402-63.402V250.924h4z"/><path fill="#fff" d="M298.047 16.495h-30.295a22.495 22.495 0 0 1-20.827 30.99h-132.96a22.495 22.495 0 0 1-20.827-30.99H64.842a47.35 47.35 0 0 0-47.347 47.348v600.092a47.35 47.35 0 0 0 47.347 47.348h233.205a47.35 47.35 0 0 0 47.348-47.348V63.843a47.35 47.35 0 0 0-47.348-47.348"/><path fill="#e6e6e6" d="M326.151 487.819H46.532a5.184 5.184 0 0 1-5.178-5.178V413.28a5.184 5.184 0 0 1 5.178-5.178h279.62a5.184 5.184 0 0 1 5.177 5.178v69.362a5.184 5.184 0 0 1-5.178 5.177M46.532 410.173a3.11 3.11 0 0 0-3.107 3.107v69.362a3.11 3.11 0 0 0 3.107 3.107h279.62a3.11 3.11 0 0 0 3.106-3.107V413.28a3.11 3.11 0 0 0-3.107-3.107z" data-name="a2804879-ded6-4045-b20f-1f1dde9b938b"/><circle cx="82.778" cy="447.96" r="21.748" fill="#e6e6e6" data-name="b9ad11c9-d8a0-4df6-8741-900b9ec46a35"/><path fill="#e6e6e6" d="M133.006 433.462a3.625 3.625 0 0 0 0 7.249h170.878a3.625 3.625 0 0 0 .14-7.249h-.14z" data-name="bd261eec-7ae0-49b0-bf26-57ff03972605"/><path fill="#e6e6e6" d="M133.006 455.21a3.625 3.625 0 0 0 0 7.249h170.878a3.625 3.625 0 0 0 .12-7.25h-.12z" data-name="e80b4447-8c34-435b-ba6c-5300a190ab24"/><path fill="#e6e6e6" d="M326.151 603.809H46.532a5.184 5.184 0 0 1-5.178-5.178V529.27a5.184 5.184 0 0 1 5.178-5.178h279.62a5.184 5.184 0 0 1 5.177 5.178v69.362a5.184 5.184 0 0 1-5.178 5.177M46.532 526.163a3.11 3.11 0 0 0-3.107 3.107v69.362a3.11 3.11 0 0 0 3.107 3.107h279.62a3.11 3.11 0 0 0 3.106-3.107V529.27a3.11 3.11 0 0 0-3.107-3.107z" data-name="e55fcb7d-3a3b-45d8-b167-72fb2263dd92"/><circle cx="82.778" cy="563.95" r="21.748" fill="#e6e6e6" data-name="a50d232f-7710-43e4-8fa9-6ef0443fc454"/><path fill="#e6e6e6" d="M133.006 549.452a3.625 3.625 0 0 0 0 7.249h170.878a3.625 3.625 0 0 0 .12-7.25h-.12z" data-name="e49b4965-a9e9-4371-9134-194e44e65c31"/><path fill="#e6e6e6" d="M133.006 571.2a3.625 3.625 0 0 0 0 7.249h170.878a3.625 3.625 0 0 0 .12-7.25h-.12z" data-name="abc4586a-ac92-4255-aae6-84f53baad571"/><path fill="#e6e6e6" d="M180.457 343.884a98.343 98.343 0 0 1-98.384-98.302v-.082c0-.206 0-.423.012-.63.3-53.878 44.432-97.755 98.372-97.755a98.384 98.384 0 0 1 .023 196.768zm0-194.7a96.52 96.52 0 0 0-96.3 95.749c-.01.22-.01.4-.01.564a96.325 96.325 0 1 0 96.336-96.313z" data-name="a9e593af-a319-4e97-9065-f0c2c04624d5"/><circle cx="315.114" cy="422.842" r="40" fill="#fff"/><path fill="#039be5" d="M301.222 440.838q-.104 0-.206-.002h-21.5a10.398 10.398 0 0 1-.008-20.793h21.518c.105-.002.22-.002.334 0a10.398 10.398 0 0 1-.138 20.795"/><path fill="#3f3d56" d="M325.345 727.344h324.033v2.241H325.345zm123.342-320.736a6 6 0 0 1-6.287 5.698l-80.276 9.314a6 6 0 0 1 .59-11.986l80.275-9.314a6 6 0 0 1 5.698 6.288"/><path fill="#039be5" d="M332.114 460.794a4 4 0 0 1-4-4v-50.952h-50a4 4 0 0 1 0-8h54a4 4 0 0 1 4 4v54.952a4 4 0 0 1-4 4"/><path fill="#3f3d56" d="M333.06 466.449a48 48 0 1 1 23.34-63.744 48.054 48.054 0 0 1-23.34 63.744m-35.353-76.198a36 36 0 1 0 47.808 17.505 36.04 36.04 0 0 0-47.808-17.505"/><path fill="#f2f2f2" d="M682.246 693.817a110.6 110.6 0 0 1-4.79 34.601c-.12.407-.263.814-.407 1.221h-70.494a63.3 63.3 0 0 1 4.765-14.367c5.866-12.452 15.444-23.107 24.903-33.69 13.026-14.584 25.74-29.047 27.752-48.011a109 109 0 0 1 12.26 25.31 29.8 29.8 0 0 0-9.841 6.034c-.79.742-1.628 1.82-1.221 2.85.383.862 1.436 1.15 2.37 1.34 2.251.431 4.502.862 6.753 1.27 1.772.359 3.568.694 5.364 1.03a117.6 117.6 0 0 1 2.586 22.412"/><path fill="#f2f2f2" d="M741.462 686.059c-11.302 6.872-18.485 17.504-24.352 29.404a30.1 30.1 0 0 0-13.673 7.184c-.814.742-1.652 1.82-1.221 2.85.36.862 1.437 1.149 2.37 1.34 2.227.432 4.502.863 6.73 1.27-.216.503-.432 1.03-.647 1.532h-74.71a105.6 105.6 0 0 1 11.23-12.834c.887-.887 1.797-1.725 2.73-2.587a111.7 111.7 0 0 1 32.327-20.401 113.7 113.7 0 0 1 59.216-7.758"/><path fill="#f2f2f2" d="M648.41 729.64h-66.52a108 108 0 0 1 .097-15.996 114.38 114.38 0 0 1 47.531-83.162c-3.448 12.284-1.676 24.496 1.916 36.756-.503.167-1.006.311-1.46.502a29.8 29.8 0 0 0-9.842 6.035c-.79.742-1.629 1.82-1.222 2.85.36.861 1.437 1.149 2.371 1.34 2.25.431 4.502.862 6.729 1.27 1.796.358 3.591.694 5.387 1.053.838.144 1.677.311 2.515.479.12.287.191.55.31.814 4.215 11.613 8.813 23.323 10.968 35.224a82 82 0 0 1 1.101 9.027c.072 1.269.12 2.538.12 3.807z"/><path fill="#ffb6b6" d="m578.332 716.797-6.17-50.025h19.142l-.003 50.025z"/><path fill="#2f2e41" d="M594.609 729.369H552.79v-.53a16.28 16.28 0 0 1 16.277-16.276h.001l7.639-5.795 14.252 5.796h3.65z"/><path fill="#ffb6b6" d="m528.391 711.48-17.038-47.437 18.672-4.215 11.017 48.796z"/><path fill="#2f2e41" d="m547.038 720.159-40.792 9.21-.117-.516a16.28 16.28 0 0 1 12.292-19.463h.001l6.175-7.335 15.179 2.514 3.56-.804zm60.69-309.189c6.08 18.34 5.438 38.246-1.462 59.612l-2.95 120.293c4.877 5.366 7.936 27.245.425 42.913-10.03 20.92-3.12 49.852-10.21 63.732h-20.564l-5.054-56.509-4.45-6.372-.678-50.968c-2.731-6.467-5.896-12.88-.34-20.372l-.149-8.853-.79-47.192-31.013 45.352c-.881 10.264-6.128 15.642-13.075 19.118l9.606 42.392c16.799 14.379 12.69 36.632 12.967 57.233l5.508 24.31-25.31 2.262-11.169-32.967-12.558-20.315-21.84-81.216 15.23-35.35 6.226-14.449 34.765-80.687z"/><path fill="#ffb8b8" d="M393.23 413.85c4.318 4.31 11.483 3.67 14.968-1.337l21.27-10.326-5.503-17.24-18.737 13.443a9.853 9.853 0 0 0-11.998 15.46"/><path fill="#039be5" d="m423.71 382.842 35.947-22.599s22.32-9.369 21.32-15.703l1.737.402 12.748-15.303c8.143-16.275 23.25-30.99 43.531-44.545 12.968-10.45 32.15-7.242 41.01 6.861 7.833 12.5 4.558 28.94-7.467 37.485l-59.563 34.449c-5.445 3.15-13.818 6.795-20.108 6.88l-28.758 15.714-16.03 7.861-18.355 9.947z"/><circle cx="551.58" cy="224.398" r="30.876" fill="#ffb8b8"/><path fill="#2f2e41" d="M580.415 243.98c2.288-3.266 3.911-8.496 4.87-12.318a37.08 37.08 0 0 0-5.077-29.72 11.3 11.3 0 0 0-4.406-4.158c-1.868-.834-4.331-.635-5.634.943a10.13 10.13 0 0 0-3.219-7.379 17.86 17.86 0 0 0-7.157-4.023 29.74 29.74 0 0 0-29.603 7.32c-1.49 1.515-.958-6.06-2.613-4.726a8.23 8.23 0 0 1-5.851 2.088c-2.114-.226-6.002 7.307-6.024 5.181-2.224 2.228-3.203 11.625-2.508 14.696.696 3.07 11.044 1.713 14.01 2.765 1.966.697 4.101.72 6.136 1.174a15.297 15.297 0 0 1 11.337 16.825 20.3 20.3 0 0 1 4.669-4.529 6.86 6.86 0 0 1 6.23-.777 7.7 7.7 0 0 1 3.797 4.784c.674 1.985.935 4.093 1.622 6.074 2.013 5.812 3.053 11.913 8.666 13.291 4.43 1.088 7.63-3.053 10.755-7.512"/><path fill="#039be5" d="m610.362 404.85-3.39-6.78c-4.15-25.71-8.25-49.69-2.68-71.26.35-18.83-5.47-36.52-21.63-46.18l-7.29-4.36-3.69-9.36-33.98.83-.1 12.27-12.17 19.41v.08l.76 105.62 3.36 10.9-5.07 12.68 2.69 8.09 66.99-10.71 7.79-1.25a14 14 0 0 0 2.59-1.13 14.23 14.23 0 0 0 6.22-6.95c.07-.17.13-.33.19-.5a14 14 0 0 0 .9-4.3 14.3 14.3 0 0 0-1.49-7.1"/><path d="M611.852 411.95a14 14 0 0 1-.9 4.3l-6.41 7.45a14 14 0 0 1-2.59 1.13l-7.79 1.25 11.27-21.19-24.77-54.23z" opacity=".2"/><path fill="#ffb8b8" d="M638.813 474.673a10.296 10.296 0 0 1-1.556-15.711l-16.304-32.757 18.875 2.298 12.589 30.754a10.352 10.352 0 0 1-13.604 15.416"/><path fill="#039be5" d="m572.719 361.964 12.368-1.708s1.194 18.647 7.11 21.473 3.922 3.291 4.62 6.283c.697 2.991 3.854 7.512 8.54 9.573 4.687 2.062 26.003 53.896 26.003 53.896l17.95-4.186a57.8 57.8 0 0 1-3.256-13.96c-.63-7.213-8.805-24.232-11.497-26.758-2.692-2.527-1.628-6.98-3.023-12.964-1.395-5.983-.427-.435-2.752-10.407-2.326-9.972-28.47-69.733-29.565-78.94s-13.925-14.627-13.925-14.627l-9.972 2.326z"/></svg>