<?xml version="1.0" encoding="UTF-8" standalone="no"?>
<svg
   xmlns:dc="http://purl.org/dc/elements/1.1/"
   xmlns:cc="http://creativecommons.org/ns#"
   xmlns:rdf="http://www.w3.org/1999/02/22-rdf-syntax-ns#"
   xmlns:svg="http://www.w3.org/2000/svg"
   xmlns="http://www.w3.org/2000/svg"
   height="89.706863"
   width="89.706863"
   aria-hidden="true"
   focusable="false"
   data-prefix="fas"
   data-icon="user"
   class="svg-inline--fa fa-user fa-w-14"
   role="img"
   viewBox="0 0 89.706863 89.706879"
   version="1.1"
   id="svg4">
  <metadata
     id="metadata10">
    <rdf:RDF>
      <cc:Work
         rdf:about="">
        <dc:format>image/svg+xml</dc:format>
        <dc:type
           rdf:resource="http://purl.org/dc/dcmitype/StillImage" />
        <dc:title />
      </cc:Work>
    </rdf:RDF>
  </metadata>
  <defs
     id="defs8">
    <rect
       x="495.81403"
       y="172.245"
       width="203.04633"
       height="236.53226"
       id="rect837" />
  </defs>
  <g
     style="font-style:normal;font-weight:normal;font-size:40px;line-height:25px;font-family:Sans;letter-spacing:0px;word-spacing:0px;white-space:pre;shape-inside:url(#rect837);fill:#000000;fill-opacity:1;stroke:none;stroke-width:1px;stroke-linecap:butt;stroke-linejoin:miter;stroke-opacity:1"
     id="text835"
     transform="translate(-501.10215,-186.00529)" />
  <g
     transform="translate(-559.55848,-182.68864)"
     style="font-style:normal;font-weight:normal;font-size:40px;line-height:25px;font-family:Sans;letter-spacing:0px;word-spacing:0px;fill:#000000;fill-opacity:1;stroke:none;stroke-width:1px;stroke-linecap:butt;stroke-linejoin:miter;stroke-opacity:1"
     id="text923"
     aria-label="n" />
  <g
     aria-label="n"
     id="g956"
     style="font-style:normal;font-weight:normal;font-size:40px;line-height:25px;font-family:Sans;letter-spacing:0px;word-spacing:0px;fill:#039be5;fill-opacity:1;stroke:none;stroke-width:1px;stroke-linecap:butt;stroke-linejoin:miter;stroke-opacity:1"
     transform="translate(39.908478,-3.2828382)" />
  <g
     style="font-size:40px;line-height:27.7778px;font-family:Sans;letter-spacing:0px;word-spacing:0px;fill:none;stroke:#000000;stroke-width:1px;stroke-linecap:butt;stroke-linejoin:miter;stroke-opacity:1"
     id="text909" />
  <path
     style="display:inline;fill:#e6e6e6;stroke-width:1.315"
     id="path6540"
     cx="68.84848"
     cy="58.139736"
     r="57.678253"
     d="" />
  <ellipse
     ry="44.853432"
     rx="44.8535"
     cy="44.853432"
     cx="44.8535"
     id="path6819"
     style="fill:#ffffff;fill-opacity:1;stroke:none;stroke-width:2;stroke-miterlimit:4;stroke-dasharray:none;stroke-opacity:1" />
  <g
     transform="matrix(-1,0,0,1,5.7818022,-3.019413)"
     aria-label="n"
     id="g1035-1"
     style="font-style:normal;font-weight:normal;font-size:40px;line-height:25px;font-family:Sans;letter-spacing:0px;word-spacing:0px;fill:#039be5;fill-opacity:1;stroke:#039be5;stroke-width:1px;stroke-linecap:butt;stroke-linejoin:miter;stroke-opacity:1">
    <path
       d="m -32.632834,56.976435 v 19.148177 c 0,0.796445 0.273778,1.468445 0.821333,2.016001 0.547556,0.547556 1.219557,0.821334 2.016001,0.821334 0.846223,0 1.543112,-0.273778 2.090668,-0.821334 0.547556,-0.547556 0.821334,-1.219556 0.821334,-2.016001 V 56.976435 c 0,-3.086224 -0.474392,-13.198488 5.620047,-13.198488 6.094439,0 5.620047,10.112264 5.620047,13.198488 v 19.148177 c 0,0.796445 0.273778,1.468445 0.821334,2.016001 0.547556,0.547556 1.244445,0.821334 2.090668,0.821334 0.796444,0 1.468445,-0.273778 2.016001,-0.821334 0.547555,-0.547556 0.8213333,-1.219556 0.8213333,-2.016001 V 56.976435 c 0,-4.08178 0.2671714,-18.911762 -11.3693833,-18.911762 -11.636555,0 -11.369383,14.829982 -11.369383,18.911762 z"
       style="font-style:normal;font-variant:normal;font-weight:normal;font-stretch:normal;font-size:74.6667px;font-family:Comfortaa;-inkscape-font-specification:'Comfortaa, Normal';font-variant-ligatures:normal;font-variant-caps:normal;font-variant-numeric:normal;font-variant-east-asian:normal;fill:#039be5;fill-opacity:1;stroke:#039be5;stroke-opacity:1"
       id="path1033-1" />
  </g>
  <path
     d="m 33.816962,23.410546 a 6.7717133,6.7717133 0 0 1 -6.77171,6.77171 6.7717133,6.7717133 0 0 1 -6.77171,-6.77171 6.7717133,6.7717133 0 0 1 6.77171,-6.77172 6.7717133,6.7717133 0 0 1 6.77171,6.77172"
     style="fill:none;stroke:#039BE5;stroke-width:6.749;stroke-miterlimit:4;stroke-dasharray:none;stroke-opacity:1"
     id="circle1037-5" />
  <g
     style="font-size:52.8517px;line-height:36.7026px;font-family:Sans;letter-spacing:0px;word-spacing:0px;fill:#0d0d0d;fill-opacity:1;stroke:#0d0d0d;stroke-width:2;stroke-linecap:butt;stroke-linejoin:miter;stroke-miterlimit:4;stroke-dasharray:none;stroke-opacity:1"
     id="text6638"
     transform="scale(1.0015418,0.99846058)"
     aria-label="d">
    <path
       id="path22"
       style="font-style:normal;font-variant:normal;font-weight:normal;font-stretch:normal;font-size:52.8517px;font-family:Comfortaa;-inkscape-font-specification:'Comfortaa, Normal';font-variant-ligatures:normal;font-variant-caps:normal;font-variant-numeric:normal;font-variant-east-asian:normal;fill:#0d0d0d;fill-opacity:1;stroke:#0d0d0d;stroke-width:2;stroke-miterlimit:4;stroke-dasharray:none;stroke-opacity:1"
       d="m 58.725541,75.558852 q -4.175284,0 -7.504941,-1.902661 -3.329657,-1.955513 -5.28517,-5.28517 -1.902661,-3.329657 -1.902661,-7.557793 0,-4.175284 1.849809,-7.504941 1.902661,-3.329657 5.126615,-5.232319 3.223954,-1.955512 7.293535,-1.955512 3.541064,0 6.395055,1.532699 2.853992,1.479847 4.598098,3.963877 V 36.078633 q 0,-0.951331 0.581369,-1.479848 0.581369,-0.581369 1.479848,-0.581369 0.898478,0 1.479847,0.581369 0.581369,0.528517 0.581369,1.479848 v 24.946002 q -0.105704,4.122432 -2.061216,7.45209 -1.902662,3.276805 -5.232319,5.179466 -3.276805,1.902661 -7.399238,1.902661 z m 0,-3.699619 q 3.065399,0 5.443725,-1.426996 2.431179,-1.479847 3.805323,-3.963877 1.426996,-2.48403 1.426996,-5.655132 0,-3.11825 -1.426996,-5.60228 -1.374144,-2.536882 -3.805323,-3.963878 -2.378326,-1.426996 -5.443725,-1.426996 -3.012547,0 -5.443725,1.426996 -2.431178,1.426996 -3.858174,3.963878 -1.426996,2.48403 -1.426996,5.60228 0,3.171102 1.426996,5.655132 1.426996,2.48403 3.858174,3.963877 2.431178,1.426996 5.443725,1.426996 z" />
  </g>
</svg>
